<svg width="443" height="387" viewBox="0 0 443 387" fill="none" xmlns="http://www.w3.org/2000/svg">
<path opacity="0.49" fill-rule="evenodd" clip-rule="evenodd" d="M345.879 89.6126C254.121 90.165 198.216 18.1654 154.567 4.29577C88.9894 -16.5123 2.50293 37.3382 58.2828 186.287C114.063 335.236 142.953 373.125 243.416 385.831C323.804 396.003 394.593 337.718 422.827 291.204C466.912 218.438 437.63 89.0601 345.879 89.6126Z" fill="url(#paint0_linear)"/>
<path fill-rule="evenodd" clip-rule="evenodd" d="M0 385.993H428.984L399.547 378.377H27.1553L0 385.993Z" fill="url(#paint1_linear)"/>
<path opacity="0.49" fill-rule="evenodd" clip-rule="evenodd" d="M214.149 3.5295C214.149 3.5295 268.26 12.0884 282.908 12.7071C297.556 13.3259 319.484 14.1803 317.993 38.0967C316.502 62.0131 313.12 66.4988 291.783 68.2445C274.536 69.6587 208.877 26.9966 204.661 17.5464C200.446 8.09623 203.628 6.36529 206.286 4.58279C208.944 2.8003 214.149 3.5295 214.149 3.5295Z" fill="url(#paint2_linear)"/>
<path opacity="0.1" fill-rule="evenodd" clip-rule="evenodd" d="M89.174 262.721V181.102H138.804V76.1333L164.069 55.7524L190.648 77.1792V181.102H253.132V98.002H275.717L315.461 130.058H373.049V196.901H442.178C445.338 229.796 439.062 264.356 422.782 291.182C419.777 296.109 416.519 300.878 413.022 305.471H111.154C103.77 293.156 96.5497 279.021 89.174 262.721Z" fill="#4C93F4"/>
<path fill-rule="evenodd" clip-rule="evenodd" d="M374.164 357.93L377.856 378.554C377.856 378.554 364.994 378.856 362.189 379.29C359.383 379.725 346.226 379.29 346.226 379.29C346.226 379.29 345.702 379.29 346.226 377.014C346.75 374.738 356.134 372.462 358.504 371.939C359.937 371.616 361.042 370.477 361.317 369.037L362.447 363.019L374.164 357.93Z" fill="url(#paint3_linear)"/>
<path fill-rule="evenodd" clip-rule="evenodd" d="M397.288 349.74L405.949 359.042C405.949 359.042 396.816 373.037 394.926 374.606C393.036 376.175 384.279 380.152 382.101 379.585C379.923 379.018 379.635 376.786 381.001 374.569C382.367 372.352 386.826 368.279 387.646 366.688C388.465 365.097 387.55 355.639 387.55 355.639L397.288 349.74Z" fill="url(#paint4_linear)"/>
<path fill-rule="evenodd" clip-rule="evenodd" d="M348.279 207.906L350.117 283.249C350.117 283.249 386.383 358.63 387.144 359.808C387.904 360.987 392.356 361.576 397.539 359.219C402.722 356.862 402.169 353.71 402.169 353.71L379.399 274.838L402.183 204.908L348.279 207.906Z" fill="url(#paint5_linear)"/>
<path fill-rule="evenodd" clip-rule="evenodd" d="M348.279 207.906L350.117 283.249L358.748 301.178C361.115 300.919 363.413 300.217 365.518 299.108C376.069 293.753 375.117 308.344 380.329 320.527C383.866 328.843 394.128 346.882 400.264 357.496C402.479 355.566 402.146 353.702 402.146 353.702L379.399 274.838L402.183 204.908L348.279 207.906Z" fill="url(#paint6_linear)"/>
<path fill-rule="evenodd" clip-rule="evenodd" d="M403.52 196.297C403.52 196.297 405.24 196.466 405.808 209.393C406.377 222.32 405.498 237.383 397.502 246.45C389.506 255.517 363.85 289.082 363.85 289.082L376.062 357.443C376.062 357.443 375.397 361.031 370.369 363.196C365.341 365.362 361.775 364.529 361.775 364.529C361.775 364.529 339.803 294.29 342.778 280.413C345.754 266.536 361.975 198.455 361.975 198.455L403.52 196.297Z" fill="url(#paint7_linear)"/>
<path fill-rule="evenodd" clip-rule="evenodd" d="M293.179 135.94L297.781 136.155C298.262 136.177 298.633 136.584 298.611 137.064L297.744 155.531L291.402 155.235L292.268 136.767C292.291 136.288 292.699 135.917 293.179 135.94Z" fill="url(#paint8_linear)"/>
<path fill-rule="evenodd" clip-rule="evenodd" d="M291.406 155.219L293.37 159.358L295.393 159.476L297.748 155.513L291.406 155.219Z" fill="#0E65DB"/>
<rect width="2.02298" height="2.0624" transform="matrix(0.998911 0.0466473 -0.0468685 0.998901 293.367 159.373)" fill="url(#paint9_linear)"/>
<path fill-rule="evenodd" clip-rule="evenodd" d="M306.852 145.445C306.048 143.722 304.918 142.171 303.522 140.878C300.953 138.315 292.551 139.906 291.096 141.71C289.642 143.515 290.889 143.721 292.204 144.134C293.518 144.546 297.962 143.927 297.962 143.927L297.741 154.114C299.54 154.416 301.386 154.249 303.101 153.628C306.054 152.67 305.671 155.425 305.671 155.425L306.852 145.445Z" fill="url(#paint10_linear)"/>
<path fill-rule="evenodd" clip-rule="evenodd" d="M306.852 145.445C306.048 143.722 304.918 142.171 303.522 140.878C300.953 138.315 292.551 139.906 291.096 141.71C289.642 143.515 290.889 143.721 292.204 144.134C293.518 144.546 297.962 143.927 297.962 143.927L297.741 154.114C299.54 154.416 301.386 154.249 303.101 153.628C306.054 152.67 305.671 155.425 305.671 155.425L306.852 145.445Z" fill="#C68B5E"/>
<path fill-rule="evenodd" clip-rule="evenodd" d="M350.095 112.409C350.095 112.409 333.631 158.401 333.608 158.54V158.68L307.369 144.966C307.369 144.966 303.899 148.148 302.651 151.477L301.403 154.799C301.403 154.799 320.149 169.618 330.419 173.913C340.689 178.207 358.637 156.044 358.637 156.044L350.095 112.409Z" fill="url(#paint11_linear)"/>
<path fill-rule="evenodd" clip-rule="evenodd" d="M379.399 109.993C379.399 109.993 398.462 112.556 402.907 117.631C407.351 122.706 407.44 128.894 407.44 137.209C407.44 145.525 403.276 167.129 404.383 183.466C405.491 199.803 407.44 208.399 407.44 208.399C407.44 208.399 395.775 220.862 374.954 217.819C354.134 214.777 344.617 209.062 344.617 209.062C344.617 209.062 350.154 170.024 350.339 164.131C350.523 158.238 343.428 148 343.642 141.349C343.856 134.698 345.754 117.897 348.271 114.7L350.796 111.503L379.399 109.993Z" fill="url(#paint12_linear)"/>
<path fill-rule="evenodd" clip-rule="evenodd" d="M354.06 108.616C352.764 109.322 351.647 110.314 350.796 111.518C348.995 113.802 352.14 117.499 357.087 116.711C358.507 116.558 359.82 115.889 360.778 114.833C360.857 116.656 361.758 118.346 363.23 119.429C365.127 120.991 367.955 122.729 373.411 118.368C378.867 114.008 379.421 109.986 379.421 109.986L373.382 109.014L354.06 108.616Z" fill="white"/>
<path fill-rule="evenodd" clip-rule="evenodd" d="M354.754 97.6782L354.06 108.609C354.06 108.609 356.134 112.292 362.13 112.402C368.125 112.513 373.382 109.014 373.382 109.014L369.971 98.4148L354.754 97.6782Z" fill="#B78057"/>
<path fill-rule="evenodd" clip-rule="evenodd" d="M334.029 58.706C334.029 58.706 329.599 65.2246 333.52 79.5362C335.735 87.7268 339.205 93.8624 340.357 100.705C341.508 107.548 344.58 108.145 347.917 108.579C351.254 109.014 363.008 104.16 367.556 104.16C372.104 104.16 377.745 105.25 381.843 102.385C384.146 100.771 385.305 82.5487 385.305 82.5487L371.13 54.7801L362.683 50.0881L334.029 58.706Z" fill="url(#paint13_linear)"/>
<path fill-rule="evenodd" clip-rule="evenodd" d="M337.115 76.5605C338.754 84.4049 340.807 93.8625 345.399 101.7C349.992 109.537 366.766 108.815 371.24 101.339C375.715 93.8625 376.017 82.9613 376.017 82.9613C376.017 82.9613 381.761 82.4825 382.574 78.0189C383.386 73.5553 382.079 67.2797 379.236 66.44C376.394 65.6003 374.327 68.9002 374.327 68.9002C374.327 68.9002 374.024 60.5769 367.401 56.3269C360.778 52.0769 338.791 57.255 337.721 58.5366C336.65 59.8183 335.484 68.716 337.115 76.5605Z" fill="url(#paint14_linear)"/>
<path fill-rule="evenodd" clip-rule="evenodd" d="M337.115 76.5605C338.754 84.4049 340.807 93.8625 345.399 101.7C349.992 109.537 366.766 108.815 371.24 101.339C375.715 93.8625 376.017 82.9613 376.017 82.9613C376.017 82.9613 381.761 82.4825 382.574 78.0189C383.386 73.5553 382.079 67.2797 379.236 66.44C376.394 65.6003 374.327 68.9002 374.327 68.9002C374.327 68.9002 374.024 60.5769 367.401 56.3269C360.778 52.0769 338.791 57.255 337.721 58.5366C336.65 59.8183 335.484 68.716 337.115 76.5605Z" fill="#C68B5E"/>
<path fill-rule="evenodd" clip-rule="evenodd" d="M335.366 54.2498C335.366 54.2498 333.394 57.6675 333.623 64.2303C333.852 70.7932 338.149 72.9218 345.274 73.5553C352.399 74.1887 357.382 71.5445 361.517 71.7286C365.651 71.9127 368.413 81.8343 368.435 92.1389C368.457 102.444 373.079 103.239 377.117 103.924C381.156 104.609 396.794 94.2013 387.365 75.3599C379.583 59.9214 381.569 52.4821 368.42 47.1419C355.271 41.8018 344.056 47.5544 340.364 49.9041C336.672 52.2537 335.366 54.2498 335.366 54.2498Z" fill="url(#paint15_linear)"/>
<path d="M343.642 83.2927C343.642 83.2927 344.476 92.9786 344.476 95.0778C344.476 97.1771 347.378 95.2472 348.271 95.0778" stroke="#775942" stroke-width="0.738317" stroke-linecap="round" stroke-linejoin="round"/>
<path fill-rule="evenodd" clip-rule="evenodd" d="M291.679 145.017C291.679 145.017 293.946 145.083 294.921 148.059C295.895 151.035 295.216 155.196 293.584 155.137C291.953 155.078 289.937 153.716 289.221 149.724C288.505 145.731 291.679 145.017 291.679 145.017Z" fill="url(#paint16_linear)"/>
<path fill-rule="evenodd" clip-rule="evenodd" d="M291.679 145.017C291.679 145.017 293.946 145.083 294.921 148.059C295.895 151.035 295.216 155.196 293.584 155.137C291.953 155.078 289.937 153.716 289.221 149.724C288.505 145.731 291.679 145.017 291.679 145.017Z" fill="#C68B5E"/>
<path fill-rule="evenodd" clip-rule="evenodd" d="M396.668 135.95C396.668 135.95 397.133 145.643 396.668 147.124C396.203 148.604 366.131 166.231 366.131 166.231L369.011 176.491C369.011 176.491 387.875 174.458 391.995 173.442C396.114 172.425 399.171 177.596 395.465 182.582C391.758 187.569 382.227 188.674 382.913 193.756C383.6 198.838 377.007 203.177 369.542 205.482C364.374 207.095 351.874 208.348 344.823 208.952V209.055C344.823 209.055 354.333 214.763 375.161 217.812C395.989 220.862 407.647 208.392 407.647 208.392C407.647 208.392 405.705 199.803 404.59 183.459C403.49 167.313 407.543 146.041 407.639 137.519L396.668 135.95Z" fill="url(#paint17_linear)"/>
<path fill-rule="evenodd" clip-rule="evenodd" d="M363.016 191.642C363.016 191.642 358.652 160.478 350.287 154.659C341.922 148.84 339.559 159.476 339.559 159.476H316.088C316.088 159.476 318.451 148.84 326.816 154.659C335.181 160.478 339.544 191.642 339.544 191.642H363.016Z" fill="url(#paint18_linear)"/>
<path fill-rule="evenodd" clip-rule="evenodd" d="M322.977 152.979H321.5C317.41 153.62 316.11 159.476 316.11 159.476H339.552C339.552 159.476 340.851 153.628 344.942 152.979H322.977Z" fill="white"/>
<path fill-rule="evenodd" clip-rule="evenodd" d="M344.949 152.98H346.426C345.936 152.907 345.438 152.907 344.949 152.98Z" fill="white"/>
<path fill-rule="evenodd" clip-rule="evenodd" d="M321.485 152.98H322.962C322.472 152.907 321.975 152.907 321.485 152.98H321.485Z" fill="white"/>
<path fill-rule="evenodd" clip-rule="evenodd" d="M366.626 166.753C366.626 166.753 364.891 165.221 360.793 165.185L356.696 165.148L357.434 167.483C357.434 167.483 357.995 168.514 354.658 168.882C351.321 169.25 349.659 167.085 347.577 168.19C345.495 169.295 345.399 171.607 348.456 174.819C351.513 178.03 355.765 179.761 361.229 179.393C364.496 179.156 367.481 177.459 369.35 174.775L366.626 166.753Z" fill="url(#paint19_linear)"/>
<path fill-rule="evenodd" clip-rule="evenodd" d="M366.626 166.753C366.626 166.753 364.891 165.221 360.793 165.185L356.696 165.148L357.434 167.483C357.434 167.483 357.995 168.514 354.658 168.882C351.321 169.25 349.659 167.085 347.577 168.19C345.495 169.295 345.399 171.607 348.456 174.819C351.513 178.03 355.765 179.761 361.229 179.393C364.496 179.156 367.481 177.459 369.35 174.775L366.626 166.753Z" fill="#C68B5E"/>
<path fill-rule="evenodd" clip-rule="evenodd" d="M398.898 117.381C401.421 116.559 404.171 117.666 405.417 120.003C409.4 127.56 412.991 135.317 416.174 143.242C423.115 160.382 405.373 164.713 391.647 170.075C384.268 172.922 376.638 175.069 368.856 176.491C368.856 176.491 365.902 172.535 365.947 169.383V166.23L401.127 148.553C401.127 148.553 392.866 142.395 391.234 132.746C389.602 123.097 394.571 118.751 398.861 117.352L398.898 117.381Z" fill="url(#paint20_linear)"/>
<path fill-rule="evenodd" clip-rule="evenodd" d="M401.327 240.86C394.985 241.854 387.38 243.593 384.095 246.495C378.018 251.908 367.017 278.506 359.656 282.844C352.295 287.183 346.33 291.366 352.022 295.521C357.714 299.675 357.02 320.866 358.962 331.671C360.395 339.641 369.528 353.769 374.223 360.678C375.157 359.786 375.831 358.658 376.172 357.415L363.99 289.083C363.99 289.083 389.639 255.554 397.643 246.45C399.102 244.749 400.34 242.871 401.327 240.86Z" fill="url(#paint21_linear)"/>
<path fill-rule="evenodd" clip-rule="evenodd" d="M242.397 371.335L185.82 378.384H247.041V371.335H242.397Z" fill="url(#paint22_linear)"/>
<path fill-rule="evenodd" clip-rule="evenodd" d="M251.677 371.335L308.255 378.384H247.041V371.335H251.677Z" fill="url(#paint23_linear)"/>
<rect x="242.397" y="285.813" width="9.26587" height="85.523" fill="url(#paint24_linear)"/>
<rect x="238.528" y="290.21" width="17.0034" height="15.7994" fill="url(#paint25_linear)"/>
<path fill-rule="evenodd" clip-rule="evenodd" d="M160.695 378.377H169.495L135.082 250.236H126.282L160.695 378.377Z" fill="url(#paint26_linear)"/>
<path fill-rule="evenodd" clip-rule="evenodd" d="M91.6029 378.377H82.7948L117.208 250.236H126.016L91.6029 378.377Z" fill="url(#paint27_linear)"/>
<path fill-rule="evenodd" clip-rule="evenodd" d="M364.418 378.377H373.226L338.806 250.236H330.005L364.418 378.377Z" fill="url(#paint28_linear)"/>
<path fill-rule="evenodd" clip-rule="evenodd" d="M295.327 378.377H286.526L320.939 250.236H329.74L295.327 378.377Z" fill="url(#paint29_linear)"/>
<path fill-rule="evenodd" clip-rule="evenodd" d="M116.529 378.377H125.329L90.9163 250.236H82.1082L116.529 378.377Z" fill="url(#paint30_linear)"/>
<path fill-rule="evenodd" clip-rule="evenodd" d="M222.233 364.603C222.233 364.603 223.614 370.886 223.71 373.302C223.708 375.016 223.459 376.72 222.972 378.362H183.553C183.553 378.362 178.385 378.642 177.078 376.661C175.771 374.68 177.779 372.588 183.036 370.503C191.711 367.056 206.168 364.611 206.168 364.611L207.895 356.258L222.233 364.603Z" fill="url(#paint31_linear)"/>
<path fill-rule="evenodd" clip-rule="evenodd" d="M154.249 364.603C154.249 364.603 155.63 370.886 155.726 373.302C155.724 375.016 155.475 376.72 154.987 378.362H115.576C115.576 378.362 110.408 378.642 109.101 376.661C107.794 374.68 109.802 372.588 115.059 370.503C123.734 367.056 138.191 364.611 138.191 364.611L139.918 356.258L154.249 364.603Z" fill="url(#paint32_linear)"/>
<rect x="165.988" y="278.277" width="19.8312" height="8.87566" fill="url(#paint33_linear)"/>
<path fill-rule="evenodd" clip-rule="evenodd" d="M317.085 176.373H234.785C232.784 176.373 231.152 178.318 231.145 180.741V180.881C230.968 191.587 230.229 202.278 228.93 212.907C227.931 221.464 226.388 229.95 224.308 238.311C222.189 246.561 219.398 254.147 215.943 259.789C212.096 266.046 206.938 271.398 200.822 275.478C194.724 279.5 187.85 281.931 180.969 281.931C176.276 281.934 171.655 280.788 167.509 278.594C165.671 277.637 163.537 278.653 162.74 280.877C161.942 283.102 162.791 285.68 164.63 286.637C169.114 289.008 174.063 290.375 179.13 290.644L179.234 290.696H261.711L298.28 268.687L310.3 248.115L317.683 192.673L317.085 176.373Z" fill="url(#paint34_linear)"/>
<g filter="url(#filter0_i)">
<path fill-rule="evenodd" clip-rule="evenodd" d="M232.016 165.774L193.048 222.666L150.491 231.233L152.891 242.421C152.891 242.421 200.468 242.163 204.868 241.132C209.269 240.101 243.999 194.89 243.999 194.89L232.016 165.774Z" fill="#C9D8F4"/>
</g>
<path fill-rule="evenodd" clip-rule="evenodd" d="M203.495 256.629C190.803 258.441 184.247 259.73 178.724 266.706C173.202 273.681 137.091 359.189 137.091 359.189C137.091 359.189 142.259 363.557 148.653 364.087L155.076 364.618L200.652 286.593L203.495 256.629Z" fill="url(#paint35_linear)"/>
<path fill-rule="evenodd" clip-rule="evenodd" d="M183.162 274.197C184.587 286.858 181.331 301.325 179.913 308.683C178.495 316.041 154.028 339.17 148.586 351.404C146.861 355.196 145.499 359.141 144.518 363.189C145.853 363.636 147.236 363.925 148.638 364.051L155.061 364.581L200.638 286.556L203.487 256.593C195.743 257.698 190.286 258.618 185.945 260.747C183.594 264.816 182.618 269.532 183.162 274.197Z" fill="url(#paint36_linear)"/>
<g filter="url(#filter1_i)">
<path fill-rule="evenodd" clip-rule="evenodd" d="M273.406 153.259C273.406 153.259 288.017 157.583 294.862 165.781C301.706 173.979 286.179 269.755 286.179 269.755L281.299 269.195L212.635 261.373C212.635 261.373 221.849 174.752 229.233 167.512C236.616 160.271 248.672 155.69 248.672 155.69L273.406 153.259Z" fill="url(#paint37_linear)"/>
</g>
<g filter="url(#filter2_i)">
<path fill-rule="evenodd" clip-rule="evenodd" d="M222.233 260.416C223.791 260.463 225.18 261.409 225.792 262.839L234.312 263.811C234.817 261.896 236.654 260.641 238.627 260.864C240.599 261.088 242.108 262.723 242.168 264.702L250.238 265.623V265.233C250.249 263.653 251.19 262.227 252.64 261.592C254.091 260.957 255.78 261.231 256.953 262.293C258.126 263.355 258.564 265.005 258.071 266.507L266.665 267.487C266.399 266.928 266.268 266.315 266.281 265.697C266.321 263.955 267.485 262.438 269.161 261.945C270.836 261.452 272.639 262.096 273.62 263.538C274.601 264.979 274.535 266.889 273.458 268.26L281.461 269.173L283.912 269.453C282.356 268.292 281.864 266.181 282.746 264.454C283.629 262.726 285.629 261.883 287.486 262.456L287.656 261.339L287.656 261.335L287.657 261.332C287.991 259.136 288.379 256.579 288.8 253.735C286.987 254.768 284.683 254.24 283.504 252.521C282.325 250.803 282.664 248.469 284.285 247.157C285.906 245.844 288.265 245.992 289.708 247.496C293.835 218.674 299.749 171.401 295.031 165.737C290.314 160.073 281.897 156.28 277.127 154.453C276.358 155.904 274.774 156.734 273.14 156.543C271.506 156.352 270.157 155.18 269.744 153.591L260.773 154.475C260.107 155.39 259.08 155.977 257.951 156.088C256.823 156.199 255.7 155.824 254.867 155.057L248.828 155.653C248.828 155.653 236.771 160.235 229.388 167.475C229.202 167.668 229.034 167.878 228.886 168.101C228.722 168.766 228.389 169.378 227.918 169.877C226.664 173.01 225.676 176.242 224.965 179.54C226.499 179.69 227.811 180.706 228.336 182.152C228.862 183.597 228.509 185.215 227.429 186.312C226.348 187.409 224.732 187.789 223.274 187.289C222.684 190.235 222.1 193.425 221.525 196.739C222.818 195.697 224.623 195.561 226.058 196.398C227.493 197.235 228.261 198.87 227.985 200.506C227.71 202.142 226.45 203.437 224.819 203.761C223.189 204.084 221.527 203.368 220.646 201.962C216.268 228.817 212.812 261.336 212.812 261.336L218.926 262.036C219.699 260.993 220.933 260.388 222.233 260.416ZM289.265 165.059C290.889 165.105 292.326 166.122 292.905 167.636C293.484 169.151 293.092 170.865 291.911 171.978C290.729 173.091 288.992 173.384 287.51 172.721C286.027 172.058 285.091 170.569 285.138 168.948C285.169 167.883 285.624 166.874 286.403 166.144C287.181 165.414 288.219 165.024 289.287 165.059H289.265ZM292.425 183.966C291.846 182.452 290.409 181.434 288.785 181.389H288.807C287.739 181.353 286.701 181.744 285.923 182.473C285.144 183.203 284.689 184.213 284.658 185.278C284.611 186.898 285.547 188.388 287.03 189.051C288.512 189.714 290.249 189.42 291.431 188.307C292.612 187.194 293.005 185.481 292.425 183.966ZM288.305 197.718C289.93 197.764 291.366 198.781 291.946 200.296C292.525 201.81 292.132 203.524 290.951 204.637C289.77 205.75 288.032 206.043 286.55 205.38C285.067 204.717 284.131 203.228 284.178 201.607C284.209 200.541 284.665 199.53 285.445 198.8C286.226 198.07 287.266 197.681 288.335 197.718H288.305ZM291.466 216.626C290.886 215.111 289.45 214.094 287.825 214.049L287.855 214.041C286.785 214.004 285.743 214.394 284.963 215.126C284.182 215.857 283.727 216.87 283.698 217.938C283.651 219.558 284.587 221.047 286.07 221.71C287.552 222.373 289.29 222.08 290.471 220.967C291.652 219.854 292.045 218.14 291.466 216.626ZM287.346 230.378C288.97 230.424 290.407 231.441 290.986 232.955C291.565 234.47 291.172 236.183 289.991 237.297C288.81 238.41 287.073 238.703 285.59 238.04C284.107 237.377 283.171 235.888 283.218 234.267C283.247 233.198 283.703 232.184 284.486 231.452C285.268 230.721 286.311 230.331 287.382 230.371L287.346 230.378ZM276.847 167.179C276.268 165.665 274.831 164.648 273.207 164.602L273.236 164.595C272.166 164.557 271.125 164.947 270.344 165.679C269.564 166.411 269.108 167.423 269.08 168.491C269.032 170.112 269.968 171.601 271.451 172.264C272.934 172.927 274.671 172.634 275.852 171.521C277.033 170.407 277.426 168.694 276.847 167.179ZM272.727 180.933C274.351 180.978 275.788 181.995 276.367 183.51C276.946 185.024 276.554 186.738 275.372 187.851C274.191 188.964 272.454 189.257 270.971 188.594C269.489 187.931 268.552 186.442 268.6 184.822C268.628 183.752 269.085 182.739 269.867 182.007C270.649 181.275 271.692 180.885 272.764 180.925L272.727 180.933ZM275.887 199.839C275.308 198.325 273.871 197.307 272.247 197.262L272.284 197.247C271.211 197.208 270.167 197.598 269.384 198.332C268.602 199.065 268.147 200.08 268.12 201.151C268.073 202.772 269.009 204.261 270.491 204.924C271.974 205.587 273.711 205.293 274.892 204.18C276.074 203.067 276.466 201.354 275.887 199.839ZM271.811 213.607C273.436 213.652 274.872 214.669 275.451 216.184C276.031 217.698 275.638 219.412 274.457 220.525C273.276 221.638 271.538 221.931 270.056 221.268C268.573 220.605 267.637 219.116 267.684 217.496C267.748 215.285 269.596 213.545 271.811 213.607ZM274.972 232.513C274.392 230.999 272.956 229.981 271.331 229.936V229.907C270.262 229.877 269.226 230.274 268.451 231.009C267.676 231.745 267.227 232.758 267.204 233.825C267.157 235.446 268.093 236.935 269.576 237.598C271.059 238.261 272.796 237.968 273.977 236.854C275.158 235.741 275.551 234.028 274.972 232.513ZM270.866 245.839C272.49 245.884 273.927 246.902 274.506 248.416C275.086 249.931 274.693 251.644 273.512 252.757C272.33 253.87 270.593 254.164 269.111 253.501C267.628 252.837 266.692 251.348 266.739 249.728C266.762 248.661 267.211 247.648 267.986 246.912C268.76 246.177 269.797 245.78 270.866 245.81V245.839ZM260.833 166.709C260.254 165.194 258.817 164.177 257.193 164.131C254.977 164.07 253.13 165.81 253.065 168.021C253.018 169.641 253.954 171.13 255.437 171.793C256.92 172.456 258.657 172.163 259.838 171.05C261.019 169.937 261.412 168.223 260.833 166.709ZM256.713 180.461C258.337 180.506 259.774 181.524 260.353 183.038C260.932 184.553 260.54 186.266 259.358 187.379C258.177 188.492 256.44 188.786 254.957 188.123C253.475 187.459 252.538 185.97 252.586 184.35C252.65 182.14 254.497 180.399 256.713 180.461ZM259.873 199.368C259.294 197.853 257.857 196.836 256.233 196.791L256.24 196.783C255.174 196.751 254.138 197.144 253.363 197.875C252.587 198.607 252.135 199.615 252.106 200.68C252.058 202.3 252.995 203.789 254.477 204.452C255.96 205.115 257.697 204.822 258.878 203.709C260.06 202.596 260.452 200.882 259.873 199.368ZM255.753 213.12C257.377 213.166 258.814 214.183 259.393 215.697C259.972 217.212 259.58 218.925 258.398 220.039C257.217 221.152 255.48 221.445 253.997 220.782C252.515 220.119 251.579 218.63 251.626 217.009C251.655 215.945 252.107 214.936 252.883 214.205C253.658 213.474 254.694 213.081 255.76 213.113L255.753 213.12ZM258.913 232.027C258.334 230.512 256.897 229.495 255.273 229.45L255.28 229.435C254.213 229.403 253.176 229.797 252.4 230.53C251.624 231.263 251.173 232.273 251.146 233.339C251.099 234.959 252.035 236.448 253.517 237.112C255 237.775 256.737 237.481 257.918 236.368C259.1 235.255 259.492 233.542 258.913 232.027ZM254.808 245.353C256.432 245.398 257.869 246.415 258.448 247.93C259.027 249.444 258.635 251.158 257.453 252.271C256.272 253.384 254.535 253.678 253.052 253.014C251.57 252.351 250.634 250.862 250.681 249.242C250.708 248.175 251.16 247.163 251.938 246.43C252.715 245.697 253.754 245.304 254.823 245.338L254.808 245.353ZM244.782 166.237C244.203 164.722 242.766 163.705 241.142 163.66C238.926 163.598 237.079 165.338 237.014 167.549C236.967 169.169 237.903 170.658 239.386 171.321C240.869 171.985 242.606 171.691 243.787 170.578C244.968 169.465 245.361 167.751 244.782 166.237ZM240.691 179.989C242.316 180.035 243.752 181.052 244.331 182.567C244.911 184.081 244.518 185.795 243.337 186.908C242.156 188.021 240.418 188.314 238.936 187.651C237.453 186.988 236.517 185.499 236.564 183.879C236.628 181.668 238.476 179.928 240.691 179.989ZM243.852 198.896C243.272 197.382 241.836 196.364 240.211 196.319H240.189C237.982 196.269 236.149 198.006 236.084 200.208C236.037 201.828 236.973 203.317 238.456 203.981C239.938 204.644 241.676 204.35 242.857 203.237C244.038 202.124 244.431 200.411 243.852 198.896ZM239.731 212.649C241.356 212.694 242.792 213.712 243.372 215.226C243.951 216.741 243.558 218.454 242.377 219.567C241.196 220.68 239.459 220.974 237.976 220.311C236.493 219.647 235.557 218.158 235.604 216.538C235.665 214.334 237.499 212.592 239.709 212.642L239.731 212.649ZM242.855 231.548C242.276 230.034 240.839 229.017 239.215 228.971C236.999 228.909 235.152 230.65 235.087 232.86C235.04 234.481 235.976 235.97 237.459 236.633C238.942 237.296 240.679 237.003 241.86 235.89C243.041 234.776 243.434 233.063 242.855 231.548ZM238.749 244.874C240.374 244.919 241.811 245.936 242.39 247.451C242.969 248.966 242.576 250.679 241.395 251.792C240.214 252.905 238.477 253.199 236.994 252.535C235.511 251.872 234.575 250.383 234.622 248.763C234.653 247.697 235.108 246.688 235.887 245.958C236.666 245.228 237.704 244.838 238.772 244.874H238.749ZM227.284 214.755C226.705 213.24 225.268 212.223 223.644 212.177H223.666C222.598 212.142 221.56 212.532 220.781 213.262C220.002 213.992 219.547 215.001 219.516 216.067C219.469 217.687 220.405 219.176 221.888 219.839C223.371 220.502 225.108 220.209 226.289 219.096C227.47 217.983 227.863 216.269 227.284 214.755ZM223.164 228.507C224.788 228.553 226.225 229.57 226.804 231.085C227.383 232.599 226.99 234.313 225.809 235.426C224.628 236.539 222.891 236.832 221.408 236.169C219.925 235.506 218.989 234.017 219.036 232.397C219.067 231.331 219.522 230.322 220.301 229.592C221.08 228.862 222.118 228.472 223.186 228.507H223.164ZM226.339 246.987C225.76 245.472 224.323 244.455 222.698 244.41H222.721C221.653 244.374 220.615 244.764 219.836 245.494C219.057 246.224 218.602 247.233 218.571 248.299C218.524 249.919 219.46 251.408 220.943 252.071C222.426 252.734 224.163 252.441 225.344 251.328C226.525 250.215 226.918 248.501 226.339 246.987Z" fill="url(#paint38_linear)"/>
</g>
<g filter="url(#filter3_i)">
<path fill-rule="evenodd" clip-rule="evenodd" d="M275.643 182.921C275.643 182.921 280.398 191.532 280.14 197.726C278.951 226.57 214.097 248.549 214.097 248.549L212.62 261.358L286.164 269.733L296.885 200.385L275.643 182.921Z" fill="url(#paint39_linear)"/>
</g>
<path fill-rule="evenodd" clip-rule="evenodd" d="M284.481 269.586C284.481 269.586 224.987 243.622 201.214 255.112C183.361 263.693 205.872 363.866 205.872 363.866C205.872 363.866 212.584 366.967 217.899 366.452L223.215 365.936L227.047 278.417L262.915 286.239L282.724 278.748L284.481 269.586Z" fill="url(#paint40_linear)"/>
<path fill-rule="evenodd" clip-rule="evenodd" d="M282.775 278.719L284.503 269.585C275.512 265.787 266.332 262.449 257.001 259.583C255.997 262.028 254.623 264.739 253.095 266.006C249.994 268.547 221.251 263.464 213.351 266.006C205.451 268.547 211.668 274.012 216.201 280.325C220.735 286.637 210.243 300.322 213.351 317.632L216.46 334.941L217.508 366.481H217.922L223.237 365.965L227.069 278.446L262.937 286.269L282.775 278.719Z" fill="url(#paint41_linear)"/>
<path fill-rule="evenodd" clip-rule="evenodd" d="M261.194 229.119C257.671 228.451 254.066 228.32 250.504 228.728C244.907 229.465 241.732 234.518 241.732 234.518C241.732 234.518 258.138 239.062 260.611 239.128C263.084 239.195 266.872 237.081 266.872 237.081L261.194 229.119Z" fill="url(#paint42_linear)"/>
<rect x="227.018" y="278.277" width="19.8312" height="9.28814" fill="url(#paint43_linear)"/>
<g filter="url(#filter4_i)">
<path fill-rule="evenodd" clip-rule="evenodd" d="M295.327 166.414C295.327 166.414 316.856 208.031 316.118 214.888C315.379 221.746 265.993 238.127 265.993 238.127C265.993 238.127 260.463 229.634 260.235 228.404C259.91 226.673 294.67 207.78 294.67 207.78C294.67 207.78 276.286 189.793 274.986 180.314C273.687 170.834 282.428 164.256 287.944 164.256C293.459 164.256 295.327 166.414 295.327 166.414Z" fill="#C9D8F4"/>
</g>
<path fill-rule="evenodd" clip-rule="evenodd" d="M311.902 180.733V180.873C311.725 191.58 310.986 202.27 309.687 212.899C308.688 221.456 307.145 229.942 305.065 238.303C302.946 246.553 300.155 254.14 296.7 259.782C292.85 266.043 287.686 271.397 281.564 275.478C275.466 279.5 268.592 281.93 261.711 281.93C257.019 281.934 252.397 280.788 248.252 278.594C246.413 277.636 244.279 278.653 243.482 280.877C242.685 283.102 243.534 285.68 245.372 286.637C250.402 289.3 256.009 290.693 261.704 290.696C270.002 290.696 278.013 287.801 285.035 283.175C292.122 278.441 298.093 272.225 302.533 264.96C306.83 257.918 309.916 249.183 312.212 240.02C315.667 226.283 317.38 211.544 318.251 200.171C319.123 188.799 319.152 180.829 319.152 180.733C319.152 178.31 317.543 176.314 315.542 176.314C313.541 176.314 311.909 178.258 311.902 180.682V180.733Z" fill="url(#paint44_linear)"/>
<path fill-rule="evenodd" clip-rule="evenodd" d="M252.696 153.259L248.68 155.69C248.68 155.69 247.558 156.92 251.227 160.271C254.897 163.623 259.718 163.218 264.812 160.92C269.907 158.622 273.406 153.259 273.406 153.259L270.224 152.471L252.696 153.259Z" fill="white"/>
<path fill-rule="evenodd" clip-rule="evenodd" d="M250.097 140.738L252.696 153.26C252.696 153.26 254.564 155.631 259.828 155.69C265.093 155.749 270.224 152.471 270.224 152.471L270.379 139.721L250.097 140.738Z" fill="#B78057"/>
<path fill-rule="evenodd" clip-rule="evenodd" d="M243.15 95.4902C243.15 95.4902 241.983 113.381 241.777 119.642C241.57 125.903 249.315 127.502 249.315 127.502L260.685 115.643L255.664 96.9486L243.15 95.4902Z" fill="url(#paint45_linear)"/>
<path fill-rule="evenodd" clip-rule="evenodd" d="M243.209 116.851C243.578 123.9 244.08 132.414 247.041 139.861C250.001 147.308 264.701 148.928 269.619 143.013C274.536 137.099 276.263 127.649 276.263 127.649C276.263 127.649 281.328 128.002 282.642 124.224C283.957 120.445 283.654 114.803 281.291 113.691C278.929 112.578 276.677 115.164 276.677 115.164C276.677 115.164 277.533 107.872 272.336 103.283C267.138 98.6941 247.284 100.256 246.184 101.198C245.084 102.141 242.84 109.802 243.209 116.851Z" fill="url(#paint46_linear)"/>
<path fill-rule="evenodd" clip-rule="evenodd" d="M243.209 116.851C243.578 123.9 244.08 132.414 247.041 139.861C250.001 147.308 264.701 148.928 269.619 143.013C274.536 137.099 276.263 127.649 276.263 127.649C276.263 127.649 281.328 128.002 282.642 124.224C283.957 120.445 283.654 114.803 281.291 113.691C278.929 112.578 276.677 115.164 276.677 115.164C276.677 115.164 277.533 107.872 272.336 103.283C267.138 98.6941 247.284 100.256 246.184 101.198C245.084 102.141 242.84 109.802 243.209 116.851Z" fill="#C68B5E"/>
<path fill-rule="evenodd" clip-rule="evenodd" d="M273.303 124.415C273.303 124.415 275.193 115.363 274.506 111.275C273.82 107.187 271.553 104.477 266.857 102.834C262.161 101.191 248.695 102.768 245.682 101.899C242.67 101.029 240.942 99.5857 241.991 93.6416C243.039 87.6975 251.633 79.3522 263.808 80.6044C275.983 81.8565 281.756 87.3292 285.751 91.0047C289.745 94.6802 287.272 104.712 286.179 113.102C285.086 121.491 282.14 132.989 279.637 137.003C277.135 141.018 271.619 140.112 271.619 140.112L276.153 126.854C276.153 126.854 278.176 127.752 280.516 125.005C282.857 122.257 283.787 117.403 282.436 115.061C281.085 112.719 277.327 113.271 276.13 116.284C274.934 119.296 273.303 124.415 273.303 124.415Z" fill="url(#paint47_linear)"/>
<path fill-rule="evenodd" clip-rule="evenodd" d="M316.383 239.902H278.951L289.42 189.882H326.853L316.383 239.902Z" fill="#223762"/>
<path fill-rule="evenodd" clip-rule="evenodd" d="M319.669 239.902H281.557L292.211 189.882H330.323L319.669 239.902Z" fill="url(#paint48_linear)"/>
<path fill-rule="evenodd" clip-rule="evenodd" d="M310.942 205.431L323.612 239.902H303.596L308.934 205.431H310.942Z" fill="#223762"/>
<path fill-rule="evenodd" clip-rule="evenodd" d="M308.934 205.431L321.611 239.902H301.588L308.934 205.431Z" fill="#4C93F4"/>
<path fill-rule="evenodd" clip-rule="evenodd" d="M244.028 236.359L262.117 239.85L253.907 239.902H244.028V236.359Z" fill="#3769A5"/>
<path fill-rule="evenodd" clip-rule="evenodd" d="M244.361 236.764L261.977 239.85V237.353L244.361 234.267V236.764Z" fill="#4C93F4"/>
<path fill-rule="evenodd" clip-rule="evenodd" d="M186.056 234.231C184.919 234.231 183.996 235.49 183.996 237.052C183.996 238.613 184.919 239.873 186.056 239.873H244.457V234.231H186.056Z" fill="#223762"/>
<path fill-rule="evenodd" clip-rule="evenodd" d="M47.4295 378.377H38.6288L73.0417 250.236H81.8498L47.4295 378.377Z" fill="url(#paint49_linear)"/>
<g filter="url(#filter5_i)">
<path fill-rule="evenodd" clip-rule="evenodd" d="M60.1507 278.277C62.9637 298.275 59.3459 316.918 51.4459 329.697C40.3269 319.584 31.7107 302.65 28.8977 282.653C26.0847 262.655 29.7025 244.012 37.6025 231.233C48.7289 241.346 57.3377 258.279 60.1507 278.277Z" fill="url(#paint50_linear)"/>
</g>
<path d="M34.8338 275.088C38.0607 284.158 40.7285 293.417 42.8224 302.812C46.5509 319.172 45.6132 338.632 45.6132 338.632" stroke="#112244" stroke-width="0.738317" stroke-linecap="round" stroke-linejoin="round"/>
<path d="M55.3737 269.748C55.3737 269.748 53.1588 288.523 50.368 302.989C47.5771 317.456 45.7313 336.57 45.7313 336.57" stroke="#112244" stroke-width="0.738317" stroke-linecap="round" stroke-linejoin="round"/>
<path d="M59.8628 301.258C59.8628 301.258 55.3738 313.493 52.0957 321.411C48.8176 329.329 45.7388 337.483 45.7388 337.483" stroke="#112244" stroke-width="0.738317" stroke-linecap="round" stroke-linejoin="round"/>
<g filter="url(#filter6_i)">
<path fill-rule="evenodd" clip-rule="evenodd" d="M42.2317 197.483C44.0775 210.947 41.5968 223.484 36.2514 232.058C28.7944 225.222 23.0355 213.813 21.1897 200.385C19.3439 186.957 21.8247 174.384 27.1701 165.811C34.6271 172.609 40.3933 184.019 42.2317 197.483Z" fill="url(#paint51_linear)"/>
</g>
<g filter="url(#filter7_i)">
<path fill-rule="evenodd" clip-rule="evenodd" d="M56.9095 228.507C56.1711 212.848 55.1597 184.578 54.5616 168.108C65.4518 181.566 72.4436 202.175 72.4436 225.31C72.4436 248.181 65.6142 268.576 54.9382 282.026C56.1121 266.234 57.5887 242.767 56.9095 228.507Z" fill="url(#paint52_linear)"/>
</g>
<g filter="url(#filter8_i)">
<path fill-rule="evenodd" clip-rule="evenodd" d="M35.7567 225.303C35.7567 201.828 42.9405 180.947 54.1038 167.512C54.2589 167.703 54.4139 167.909 54.569 168.101C55.167 184.578 56.2154 212.848 56.9168 228.5C57.5887 242.767 56.112 266.234 54.9381 282.033C54.6576 282.387 54.3844 282.77 54.1038 283.101C42.9331 269.659 35.7567 248.777 35.7567 225.303Z" fill="url(#paint53_linear)"/>
</g>
<g filter="url(#filter9_i)">
<path fill-rule="evenodd" clip-rule="evenodd" d="M34.1028 250.516C40.1792 263.899 41.486 277.651 38.6139 288.191C28.7722 283.411 19.27 273.357 13.1863 259.973C7.10258 246.59 5.80315 232.838 8.6752 222.298C18.517 227.078 28.056 237.132 34.1028 250.516Z" fill="url(#paint54_linear)"/>
</g>
<path fill-rule="evenodd" clip-rule="evenodd" d="M25.4351 378.325H65.821L71.8161 326.11H19.4399L25.4351 378.325Z" fill="url(#paint55_linear)"/>
<path fill-rule="evenodd" clip-rule="evenodd" d="M71.816 326.11L65.8209 378.325H50.3679L54.8421 326.11H71.816Z" fill="url(#paint56_linear)"/>
<rect x="73.8611" y="337.482" width="56.4665" height="12.8679" transform="rotate(-180 73.8611 337.482)" fill="url(#paint57_linear)"/>
<path fill-rule="evenodd" clip-rule="evenodd" d="M53.2917 235.91C54.4416 235.91 55.3738 234.254 55.3738 232.212C55.3738 230.17 54.4416 228.514 53.2917 228.514C52.1419 228.514 51.2097 230.17 51.2097 232.212C51.2097 234.254 52.1419 235.91 53.2917 235.91Z" fill="#31AA5C"/>
<path fill-rule="evenodd" clip-rule="evenodd" d="M51.1132 238.91C51.9263 238.099 51.4121 236.271 49.9646 234.827C48.5172 233.383 46.6847 232.87 45.8716 233.681C45.0585 234.492 45.5727 236.32 47.0202 237.764C48.4676 239.208 50.3001 239.721 51.1132 238.91Z" fill="#31AA5C"/>
<path fill-rule="evenodd" clip-rule="evenodd" d="M52.7628 259.532C53.8786 258.419 53.1727 255.91 51.1861 253.928C49.1995 251.946 46.6845 251.242 45.5687 252.355C44.4528 253.468 45.1587 255.977 47.1453 257.959C49.1319 259.941 51.647 260.646 52.7628 259.532Z" fill="#31AA5C"/>
<path fill-rule="evenodd" clip-rule="evenodd" d="M52.4802 270.682C53.9107 270.018 54.109 267.419 52.923 264.878C51.737 262.337 49.6158 260.816 48.1853 261.481C46.7548 262.146 46.5565 264.744 47.7425 267.285C48.9285 269.826 51.0497 271.347 52.4802 270.682Z" fill="#31AA5C"/>
<rect x="374.231" y="250.244" width="335.602" height="10.3341" transform="rotate(-180 374.231 250.244)" fill="url(#paint58_linear)"/>
<rect x="374.223" y="250.244" width="61.7528" height="10.3341" transform="rotate(-180 374.223 250.244)" fill="#3769A5"/>
<rect x="374.231" y="250.244" width="335.602" height="3.35875" transform="rotate(-180 374.231 250.244)" fill="#83A4D6"/>
<rect x="374.223" y="250.244" width="61.4575" height="3.35875" transform="rotate(-180 374.223 250.244)" fill="#223762"/>
<path fill-rule="evenodd" clip-rule="evenodd" d="M321.648 378.377H330.448L296.036 250.236H287.235L321.648 378.377Z" fill="url(#paint59_linear)"/>
<path fill-rule="evenodd" clip-rule="evenodd" d="M252.556 378.377H243.748L278.161 250.236H286.969L252.556 378.377Z" fill="url(#paint60_linear)"/>
<path fill-rule="evenodd" clip-rule="evenodd" d="M203.259 239.91H154.205V237.369H201.457C202.436 237.369 203.229 238.16 203.229 239.136V239.873L203.259 239.91Z" fill="#3769A5"/>
<g filter="url(#filter10_i)">
<path fill-rule="evenodd" clip-rule="evenodd" d="M119.77 221.017H234.209C235.256 221.04 236.262 220.611 236.969 219.841C237.676 219.071 238.016 218.033 237.9 216.995L231.47 143.692C231.238 141.437 229.355 139.71 227.084 139.67H112.645C111.598 139.647 110.592 140.075 109.885 140.845C109.178 141.616 108.838 142.653 108.953 143.692L115.384 216.995C115.615 219.249 117.498 220.976 119.77 221.017Z" fill="url(#paint61_linear)"/>
</g>
<g filter="url(#filter11_i)">
<path fill-rule="evenodd" clip-rule="evenodd" d="M116.61 221.017H231.049C232.096 221.04 233.102 220.611 233.809 219.841C234.516 219.071 234.856 218.033 234.74 216.995L228.31 143.692C228.078 141.437 226.195 139.71 223.924 139.67H109.485C108.438 139.647 107.432 140.075 106.725 140.845C106.018 141.616 105.678 142.653 105.793 143.692L112.224 216.995C112.455 219.249 114.338 220.976 116.61 221.017Z" fill="url(#paint62_linear)"/>
<path fill-rule="evenodd" clip-rule="evenodd" d="M116.61 221.017H231.049C232.096 221.04 233.102 220.611 233.809 219.841C234.516 219.071 234.856 218.033 234.74 216.995L228.31 143.692C228.078 141.437 226.195 139.71 223.924 139.67H109.485C108.438 139.647 107.432 140.075 106.725 140.845C106.018 141.616 105.678 142.653 105.793 143.692L112.224 216.995C112.455 219.249 114.338 220.976 116.61 221.017Z" fill="url(#paint63_linear)" fill-opacity="0.23"/>
</g>
<path fill-rule="evenodd" clip-rule="evenodd" d="M120.072 239.902C119.722 239.903 119.4 239.71 119.236 239.401C119.072 239.092 119.093 238.718 119.29 238.429C121.993 234.656 126.355 232.417 131.003 232.417C135.652 232.417 140.014 234.656 142.717 238.429C142.914 238.718 142.934 239.092 142.77 239.401C142.606 239.71 142.284 239.903 141.934 239.902H120.072Z" fill="#4C93F4"/>
<path fill-rule="evenodd" clip-rule="evenodd" d="M132.705 237.685C131.819 235.792 130.638 234.052 129.205 232.529C129.798 232.456 130.395 232.419 130.992 232.418C135.64 232.417 140.001 234.656 142.702 238.429C142.899 238.718 142.92 239.092 142.756 239.401C142.591 239.71 142.27 239.902 141.919 239.902H131.922C132.683 239.902 133.148 238.613 132.705 237.685Z" fill="#223762"/>
<g filter="url(#filter12_i)">
<path fill-rule="evenodd" clip-rule="evenodd" d="M84.493 277.003C78.0475 293.208 67.3567 305.692 55.9497 311.924C71.7349 294.128 87.6973 232.058 87.6973 232.058C91.7064 244.395 90.9385 260.784 84.493 277.003Z" fill="url(#paint64_linear)"/>
</g>
<path fill-rule="evenodd" clip-rule="evenodd" d="M59.1465 266.978C65.592 250.774 76.2829 238.289 87.6899 232.058C87.6899 232.058 71.7496 294.128 55.9422 311.924C51.9332 299.594 52.701 283.198 59.1465 266.978Z" fill="url(#paint65_linear)"/>
<g filter="url(#filter13_i)">
<path fill-rule="evenodd" clip-rule="evenodd" d="M59.1465 266.978C65.592 250.774 76.2829 238.289 87.6899 232.058C87.6899 232.058 71.7496 294.128 55.9422 311.924C51.9332 299.594 52.701 283.198 59.1465 266.978Z" fill="url(#paint66_linear)"/>
</g>
<path fill-rule="evenodd" clip-rule="evenodd" d="M71.6772 279.425C72.2885 277.969 72.1225 276.513 71.3064 276.172C70.4902 275.831 69.3331 276.734 68.7218 278.19C68.1105 279.646 68.2765 281.102 69.0926 281.444C69.9087 281.785 71.0659 280.881 71.6772 279.425Z" fill="#31AA5C"/>
<path fill-rule="evenodd" clip-rule="evenodd" d="M61.3451 281.084C61.9564 279.629 61.7904 278.172 60.9743 277.831C60.1582 277.49 59.001 278.393 58.3897 279.849C57.7784 281.305 57.9444 282.762 58.7605 283.103C59.5766 283.444 60.7338 282.54 61.3451 281.084Z" fill="#31AA5C"/>
<path fill-rule="evenodd" clip-rule="evenodd" d="M66.6386 282.938C67.4574 282.603 67.6352 281.148 67.0356 279.687C66.436 278.227 65.2862 277.314 64.4674 277.648C63.6485 277.983 63.4708 279.438 64.0703 280.899C64.6699 282.359 65.8198 283.272 66.6386 282.938Z" fill="#31AA5C"/>
<path fill-rule="evenodd" clip-rule="evenodd" d="M65.8023 288.456C66.6212 288.122 66.7989 286.667 66.1993 285.206C65.5998 283.745 64.4499 282.832 63.6311 283.167C62.8122 283.502 62.6345 284.957 63.2341 286.417C63.8336 287.878 64.9835 288.791 65.8023 288.456Z" fill="#31AA5C"/>
<path fill-rule="evenodd" clip-rule="evenodd" d="M61.6584 298.096C62.7829 297.637 63.0281 295.641 62.206 293.638C61.3839 291.635 59.8059 290.384 58.6814 290.843C57.5569 291.303 57.3117 293.299 58.1338 295.302C58.9559 297.304 60.534 298.555 61.6584 298.096Z" fill="#31AA5C"/>
<path fill-rule="evenodd" clip-rule="evenodd" d="M58.4413 306.134C59.6565 306.086 60.5712 304.292 60.4844 302.128C60.3976 299.964 59.3422 298.248 58.1271 298.297C56.912 298.345 55.9973 300.139 56.084 302.303C56.1708 304.467 57.2262 306.183 58.4413 306.134Z" fill="#31AA5C"/>
<path fill-rule="evenodd" clip-rule="evenodd" d="M166.933 239.902H138.53L160.03 175.717H179.92L166.933 239.902Z" fill="#3769A5"/>
<path fill-rule="evenodd" clip-rule="evenodd" d="M164.696 239.902H136.293L157.793 175.717H177.683L164.696 239.902Z" fill="#223762"/>
<path fill-rule="evenodd" clip-rule="evenodd" d="M168.58 158.784C168.392 158.128 168.3 157.448 168.307 156.766C167.584 156.661 166.846 156.744 166.166 157.009C163.53 158.04 162.149 161.428 163.079 164.588C164.01 167.748 166.904 169.472 169.532 168.448C171.607 167.637 172.884 165.361 172.884 162.887C170.767 162.479 169.085 160.875 168.58 158.784Z" fill="#D6E3FA"/>
<path d="M249.817 119.406C249.817 119.406 248.222 128.407 248.517 130.647C248.813 132.886 254.623 131.251 254.623 131.251" stroke="#775942" stroke-width="0.738317" stroke-linecap="round" stroke-linejoin="round"/>
<path fill-rule="evenodd" clip-rule="evenodd" d="M273.406 94.9528C267.064 92.5001 247.897 98.179 245.18 95.5273C244.339 94.7024 243.704 92.7726 243.179 90.4966C242.614 91.4893 242.213 92.5662 241.991 93.6859C240.942 99.63 242.67 101.052 245.682 101.943C248.695 102.834 262.169 101.206 266.857 102.878C271.546 104.55 273.82 107.231 274.506 111.319C275.193 115.407 273.303 124.482 273.303 124.482C273.303 124.482 279.756 97.4056 273.406 94.9528Z" fill="url(#paint67_linear)"/>
<path fill-rule="evenodd" clip-rule="evenodd" d="M244.457 239.909C245.594 239.909 246.517 238.646 246.517 237.088C246.517 235.53 245.594 234.267 244.457 234.267C243.319 234.267 242.397 235.53 242.397 237.088C242.397 238.646 243.319 239.909 244.457 239.909Z" fill="#4C93F4"/>
<path d="M277.127 118.884C277.127 118.884 278.84 117.735 279.409 119.274C279.977 120.814 279.918 122.302 277.932 123.244C277.283 123.528 276.524 123.281 276.167 122.67" stroke="#775942" stroke-width="0.738317" stroke-linecap="round" stroke-linejoin="round"/>
<defs>
<filter id="filter0_i" x="150.491" y="165.774" width="98.9646" height="78.6937" filterUnits="userSpaceOnUse" color-interpolation-filters="sRGB">
<feFlood flood-opacity="0" result="BackgroundImageFix"/>
<feBlend mode="normal" in="SourceGraphic" in2="BackgroundImageFix" result="shape"/>
<feColorMatrix in="SourceAlpha" type="matrix" values="0 0 0 0 0 0 0 0 0 0 0 0 0 0 0 0 0 0 127 0" result="hardAlpha"/>
<feOffset dx="5.45679" dy="2.0463"/>
<feGaussianBlur stdDeviation="7.84414"/>
<feComposite in2="hardAlpha" operator="arithmetic" k2="-1" k3="1"/>
<feColorMatrix type="matrix" values="0 0 0 0 0.729412 0 0 0 0 0.8 0 0 0 0 0.933333 0 0 0 1 0"/>
<feBlend mode="normal" in2="shape" result="effect1_innerShadow"/>
</filter>
<filter id="filter1_i" x="212.635" y="153.259" width="89.4256" height="118.542" filterUnits="userSpaceOnUse" color-interpolation-filters="sRGB">
<feFlood flood-opacity="0" result="BackgroundImageFix"/>
<feBlend mode="normal" in="SourceGraphic" in2="BackgroundImageFix" result="shape"/>
<feColorMatrix in="SourceAlpha" type="matrix" values="0 0 0 0 0 0 0 0 0 0 0 0 0 0 0 0 0 0 127 0" result="hardAlpha"/>
<feOffset dx="5.45679" dy="2.0463"/>
<feGaussianBlur stdDeviation="7.84414"/>
<feComposite in2="hardAlpha" operator="arithmetic" k2="-1" k3="1"/>
<feColorMatrix type="matrix" values="0 0 0 0 0.729412 0 0 0 0 0.8 0 0 0 0 0.933333 0 0 0 1 0"/>
<feBlend mode="normal" in2="shape" result="effect1_innerShadow"/>
</filter>
<filter id="filter2_i" x="212.812" y="153.591" width="89.4179" height="117.909" filterUnits="userSpaceOnUse" color-interpolation-filters="sRGB">
<feFlood flood-opacity="0" result="BackgroundImageFix"/>
<feBlend mode="normal" in="SourceGraphic" in2="BackgroundImageFix" result="shape"/>
<feColorMatrix in="SourceAlpha" type="matrix" values="0 0 0 0 0 0 0 0 0 0 0 0 0 0 0 0 0 0 127 0" result="hardAlpha"/>
<feOffset dx="5.45679" dy="2.0463"/>
<feGaussianBlur stdDeviation="7.84414"/>
<feComposite in2="hardAlpha" operator="arithmetic" k2="-1" k3="1"/>
<feColorMatrix type="matrix" values="0 0 0 0 0.729412 0 0 0 0 0.8 0 0 0 0 0.933333 0 0 0 1 0"/>
<feBlend mode="normal" in2="shape" result="effect1_innerShadow"/>
</filter>
<filter id="filter3_i" x="212.62" y="182.921" width="89.7209" height="88.8583" filterUnits="userSpaceOnUse" color-interpolation-filters="sRGB">
<feFlood flood-opacity="0" result="BackgroundImageFix"/>
<feBlend mode="normal" in="SourceGraphic" in2="BackgroundImageFix" result="shape"/>
<feColorMatrix in="SourceAlpha" type="matrix" values="0 0 0 0 0 0 0 0 0 0 0 0 0 0 0 0 0 0 127 0" result="hardAlpha"/>
<feOffset dx="5.45679" dy="2.0463"/>
<feGaussianBlur stdDeviation="7.84414"/>
<feComposite in2="hardAlpha" operator="arithmetic" k2="-1" k3="1"/>
<feColorMatrix type="matrix" values="0 0 0 0 0.729412 0 0 0 0 0.8 0 0 0 0 0.933333 0 0 0 1 0"/>
<feBlend mode="normal" in2="shape" result="effect1_innerShadow"/>
</filter>
<filter id="filter4_i" x="260.232" y="164.256" width="61.3608" height="75.9168" filterUnits="userSpaceOnUse" color-interpolation-filters="sRGB">
<feFlood flood-opacity="0" result="BackgroundImageFix"/>
<feBlend mode="normal" in="SourceGraphic" in2="BackgroundImageFix" result="shape"/>
<feColorMatrix in="SourceAlpha" type="matrix" values="0 0 0 0 0 0 0 0 0 0 0 0 0 0 0 0 0 0 127 0" result="hardAlpha"/>
<feOffset dx="5.45679" dy="2.0463"/>
<feGaussianBlur stdDeviation="7.84414"/>
<feComposite in2="hardAlpha" operator="arithmetic" k2="-1" k3="1"/>
<feColorMatrix type="matrix" values="0 0 0 0 0.729412 0 0 0 0 0.8 0 0 0 0 0.933333 0 0 0 1 0"/>
<feBlend mode="normal" in2="shape" result="effect1_innerShadow"/>
</filter>
<filter id="filter5_i" x="27.951" y="224.412" width="33.1463" height="105.286" filterUnits="userSpaceOnUse" color-interpolation-filters="sRGB">
<feFlood flood-opacity="0" result="BackgroundImageFix"/>
<feBlend mode="normal" in="SourceGraphic" in2="BackgroundImageFix" result="shape"/>
<feColorMatrix in="SourceAlpha" type="matrix" values="0 0 0 0 0 0 0 0 0 0 0 0 0 0 0 0 0 0 127 0" result="hardAlpha"/>
<feOffset dy="-6.82099"/>
<feGaussianBlur stdDeviation="7.50309"/>
<feComposite in2="hardAlpha" operator="arithmetic" k2="-1" k3="1"/>
<feColorMatrix type="matrix" values="0 0 0 0 0.221483 0 0 0 0 0.77854 0 0 0 0 0.610041 0 0 0 1 0"/>
<feBlend mode="normal" in2="shape" result="effect1_innerShadow"/>
</filter>
<filter id="filter6_i" x="20.5841" y="158.99" width="22.2532" height="73.068" filterUnits="userSpaceOnUse" color-interpolation-filters="sRGB">
<feFlood flood-opacity="0" result="BackgroundImageFix"/>
<feBlend mode="normal" in="SourceGraphic" in2="BackgroundImageFix" result="shape"/>
<feColorMatrix in="SourceAlpha" type="matrix" values="0 0 0 0 0 0 0 0 0 0 0 0 0 0 0 0 0 0 127 0" result="hardAlpha"/>
<feOffset dy="-6.82099"/>
<feGaussianBlur stdDeviation="7.50309"/>
<feComposite in2="hardAlpha" operator="arithmetic" k2="-1" k3="1"/>
<feColorMatrix type="matrix" values="0 0 0 0 0.221483 0 0 0 0 0.77854 0 0 0 0 0.610041 0 0 0 1 0"/>
<feBlend mode="normal" in2="shape" result="effect1_innerShadow"/>
</filter>
<filter id="filter7_i" x="54.5616" y="161.287" width="17.882" height="120.739" filterUnits="userSpaceOnUse" color-interpolation-filters="sRGB">
<feFlood flood-opacity="0" result="BackgroundImageFix"/>
<feBlend mode="normal" in="SourceGraphic" in2="BackgroundImageFix" result="shape"/>
<feColorMatrix in="SourceAlpha" type="matrix" values="0 0 0 0 0 0 0 0 0 0 0 0 0 0 0 0 0 0 127 0" result="hardAlpha"/>
<feOffset dy="-6.82099"/>
<feGaussianBlur stdDeviation="7.50309"/>
<feComposite in2="hardAlpha" operator="arithmetic" k2="-1" k3="1"/>
<feColorMatrix type="matrix" values="0 0 0 0 0.221483 0 0 0 0 0.77854 0 0 0 0 0.610041 0 0 0 1 0"/>
<feBlend mode="normal" in2="shape" result="effect1_innerShadow"/>
</filter>
<filter id="filter8_i" x="35.7567" y="160.691" width="21.3286" height="122.411" filterUnits="userSpaceOnUse" color-interpolation-filters="sRGB">
<feFlood flood-opacity="0" result="BackgroundImageFix"/>
<feBlend mode="normal" in="SourceGraphic" in2="BackgroundImageFix" result="shape"/>
<feColorMatrix in="SourceAlpha" type="matrix" values="0 0 0 0 0 0 0 0 0 0 0 0 0 0 0 0 0 0 127 0" result="hardAlpha"/>
<feOffset dy="-6.82099"/>
<feGaussianBlur stdDeviation="7.50309"/>
<feComposite in2="hardAlpha" operator="arithmetic" k2="-1" k3="1"/>
<feColorMatrix type="matrix" values="0 0 0 0 0.221483 0 0 0 0 0.77854 0 0 0 0 0.610041 0 0 0 1 0"/>
<feBlend mode="normal" in2="shape" result="effect1_innerShadow"/>
</filter>
<filter id="filter9_i" x="7.21625" y="215.477" width="32.855" height="72.7145" filterUnits="userSpaceOnUse" color-interpolation-filters="sRGB">
<feFlood flood-opacity="0" result="BackgroundImageFix"/>
<feBlend mode="normal" in="SourceGraphic" in2="BackgroundImageFix" result="shape"/>
<feColorMatrix in="SourceAlpha" type="matrix" values="0 0 0 0 0 0 0 0 0 0 0 0 0 0 0 0 0 0 127 0" result="hardAlpha"/>
<feOffset dy="-6.82099"/>
<feGaussianBlur stdDeviation="7.50309"/>
<feComposite in2="hardAlpha" operator="arithmetic" k2="-1" k3="1"/>
<feColorMatrix type="matrix" values="0 0 0 0 0.221483 0 0 0 0 0.77854 0 0 0 0 0.610041 0 0 0 1 0"/>
<feBlend mode="normal" in2="shape" result="effect1_innerShadow"/>
</filter>
<filter id="filter10_i" x="97.3356" y="134.894" width="140.587" height="86.1232" filterUnits="userSpaceOnUse" color-interpolation-filters="sRGB">
<feFlood flood-opacity="0" result="BackgroundImageFix"/>
<feBlend mode="normal" in="SourceGraphic" in2="BackgroundImageFix" result="shape"/>
<feColorMatrix in="SourceAlpha" type="matrix" values="0 0 0 0 0 0 0 0 0 0 0 0 0 0 0 0 0 0 127 0" result="hardAlpha"/>
<feOffset dx="-11.5957" dy="-4.7747"/>
<feGaussianBlur stdDeviation="8.18519"/>
<feComposite in2="hardAlpha" operator="arithmetic" k2="-1" k3="1"/>
<feColorMatrix type="matrix" values="0 0 0 0 0.239216 0 0 0 0 0.509804 0 0 0 0 0.941176 0 0 0 0.775419 0"/>
<feBlend mode="normal" in2="shape" result="effect1_innerShadow"/>
</filter>
<filter id="filter11_i" x="101.679" y="139.669" width="133.084" height="82.7127" filterUnits="userSpaceOnUse" color-interpolation-filters="sRGB">
<feFlood flood-opacity="0" result="BackgroundImageFix"/>
<feBlend mode="normal" in="SourceGraphic" in2="BackgroundImageFix" result="shape"/>
<feColorMatrix in="SourceAlpha" type="matrix" values="0 0 0 0 0 0 0 0 0 0 0 0 0 0 0 0 0 0 127 0" result="hardAlpha"/>
<feOffset dx="-4.0926" dy="1.3642"/>
<feGaussianBlur stdDeviation="4.0926"/>
<feComposite in2="hardAlpha" operator="arithmetic" k2="-1" k3="1"/>
<feColorMatrix type="matrix" values="0 0 0 0 1 0 0 0 0 1 0 0 0 0 1 0 0 0 0.5 0"/>
<feBlend mode="normal" in2="shape" result="effect1_innerShadow"/>
</filter>
<filter id="filter12_i" x="55.9497" y="225.237" width="34.2082" height="86.6872" filterUnits="userSpaceOnUse" color-interpolation-filters="sRGB">
<feFlood flood-opacity="0" result="BackgroundImageFix"/>
<feBlend mode="normal" in="SourceGraphic" in2="BackgroundImageFix" result="shape"/>
<feColorMatrix in="SourceAlpha" type="matrix" values="0 0 0 0 0 0 0 0 0 0 0 0 0 0 0 0 0 0 127 0" result="hardAlpha"/>
<feOffset dy="-6.82099"/>
<feGaussianBlur stdDeviation="7.50309"/>
<feComposite in2="hardAlpha" operator="arithmetic" k2="-1" k3="1"/>
<feColorMatrix type="matrix" values="0 0 0 0 0.221483 0 0 0 0 0.77854 0 0 0 0 0.610041 0 0 0 1 0"/>
<feBlend mode="normal" in2="shape" result="effect1_innerShadow"/>
</filter>
<filter id="filter13_i" x="53.4817" y="225.237" width="34.2082" height="86.6872" filterUnits="userSpaceOnUse" color-interpolation-filters="sRGB">
<feFlood flood-opacity="0" result="BackgroundImageFix"/>
<feBlend mode="normal" in="SourceGraphic" in2="BackgroundImageFix" result="shape"/>
<feColorMatrix in="SourceAlpha" type="matrix" values="0 0 0 0 0 0 0 0 0 0 0 0 0 0 0 0 0 0 127 0" result="hardAlpha"/>
<feOffset dy="-6.82099"/>
<feGaussianBlur stdDeviation="7.50309"/>
<feComposite in2="hardAlpha" operator="arithmetic" k2="-1" k3="1"/>
<feColorMatrix type="matrix" values="0 0 0 0 0.221483 0 0 0 0 0.77854 0 0 0 0 0.610041 0 0 0 1 0"/>
<feBlend mode="normal" in2="shape" result="effect1_innerShadow"/>
</filter>
<linearGradient id="paint0_linear" x1="-35.0832" y1="376.907" x2="447.617" y2="619.547" gradientUnits="userSpaceOnUse">
<stop stop-color="#EAF1FC"/>
<stop offset="1" stop-color="#C0D4F4"/>
</linearGradient>
<linearGradient id="paint1_linear" x1="428.984" y1="378.377" x2="0" y2="378.377" gradientUnits="userSpaceOnUse">
<stop stop-color="#223762"/>
<stop offset="1" stop-color="#041B48"/>
</linearGradient>
<linearGradient id="paint2_linear" x1="225.014" y1="70.0685" x2="320.582" y2="30.6952" gradientUnits="userSpaceOnUse">
<stop stop-color="#EAF1FC"/>
<stop offset="1" stop-color="#C0D4F4"/>
</linearGradient>
<linearGradient id="paint3_linear" x1="377.819" y1="357.923" x2="345.96" y2="357.923" gradientUnits="userSpaceOnUse">
<stop stop-color="#223762"/>
<stop offset="1" stop-color="#041B48"/>
</linearGradient>
<linearGradient id="paint4_linear" x1="402.028" y1="367.522" x2="398.935" y2="354.339" gradientUnits="userSpaceOnUse">
<stop stop-color="#223762"/>
<stop offset="1" stop-color="#041B48"/>
</linearGradient>
<linearGradient id="paint5_linear" x1="395.507" y1="366.682" x2="424.141" y2="242.312" gradientUnits="userSpaceOnUse">
<stop stop-color="#3769A5"/>
<stop offset="1" stop-color="#08448B"/>
</linearGradient>
<linearGradient id="paint6_linear" x1="395.564" y1="362.824" x2="422.468" y2="240.855" gradientUnits="userSpaceOnUse">
<stop stop-color="#223762"/>
<stop offset="1" stop-color="#041B48"/>
</linearGradient>
<linearGradient id="paint7_linear" x1="397.605" y1="371.289" x2="424.112" y2="234.509" gradientUnits="userSpaceOnUse">
<stop stop-color="#4C93F4"/>
<stop offset="1" stop-color="#0B63DA"/>
</linearGradient>
<linearGradient id="paint8_linear" x1="291.771" y1="147.356" x2="298.409" y2="149.972" gradientUnits="userSpaceOnUse">
<stop stop-color="#4C93F4"/>
<stop offset="1" stop-color="#0B63DA"/>
</linearGradient>
<linearGradient id="paint9_linear" x1="-0.00738313" y1="2.05504" x2="2.01559" y2="2.05504" gradientUnits="userSpaceOnUse">
<stop stop-color="#4C93F4"/>
<stop offset="1" stop-color="#0B63DA"/>
</linearGradient>
<linearGradient id="paint10_linear" x1="290.444" y1="139.539" x2="290.444" y2="155.425" gradientUnits="userSpaceOnUse">
<stop stop-color="#4376C9"/>
<stop offset="1" stop-color="#D6E3FA"/>
</linearGradient>
<linearGradient id="paint11_linear" x1="294.905" y1="184.794" x2="336.961" y2="172.366" gradientUnits="userSpaceOnUse">
<stop stop-color="#FFC063"/>
<stop offset="0.95" stop-color="#E44D0B"/>
</linearGradient>
<linearGradient id="paint12_linear" x1="-559.951" y1="109.007" x2="-614.571" y2="140.52" gradientUnits="userSpaceOnUse">
<stop stop-color="#FFC063"/>
<stop offset="0.95" stop-color="#E44D0B"/>
</linearGradient>
<linearGradient id="paint13_linear" x1="370.711" y1="78.3231" x2="357.172" y2="72.7111" gradientUnits="userSpaceOnUse">
<stop stop-color="#223762"/>
<stop offset="1" stop-color="#041B48"/>
</linearGradient>
<linearGradient id="paint14_linear" x1="336.306" y1="54.6819" x2="336.306" y2="107.269" gradientUnits="userSpaceOnUse">
<stop stop-color="#4376C9"/>
<stop offset="1" stop-color="#D6E3FA"/>
</linearGradient>
<linearGradient id="paint15_linear" x1="384.119" y1="97.765" x2="391.455" y2="42.9922" gradientUnits="userSpaceOnUse">
<stop stop-color="#223762"/>
<stop offset="1" stop-color="#041B48"/>
</linearGradient>
<linearGradient id="paint16_linear" x1="289.116" y1="145.017" x2="289.116" y2="155.138" gradientUnits="userSpaceOnUse">
<stop stop-color="#4376C9"/>
<stop offset="1" stop-color="#D6E3FA"/>
</linearGradient>
<linearGradient id="paint17_linear" x1="-538.985" y1="121.949" x2="-571.382" y2="160.722" gradientUnits="userSpaceOnUse">
<stop stop-color="#FFC063"/>
<stop offset="0.95" stop-color="#E44D0B"/>
</linearGradient>
<linearGradient id="paint18_linear" x1="316.088" y1="152.918" x2="316.088" y2="191.642" gradientUnits="userSpaceOnUse">
<stop stop-color="#C6D6EE"/>
<stop offset="1" stop-color="#E5EFFD"/>
</linearGradient>
<linearGradient id="paint19_linear" x1="346.078" y1="165.148" x2="346.078" y2="179.442" gradientUnits="userSpaceOnUse">
<stop stop-color="#4376C9"/>
<stop offset="1" stop-color="#D6E3FA"/>
</linearGradient>
<linearGradient id="paint20_linear" x1="-568.101" y1="144.102" x2="-557.433" y2="200.532" gradientUnits="userSpaceOnUse">
<stop stop-color="#FFC063"/>
<stop offset="0.95" stop-color="#E44D0B"/>
</linearGradient>
<linearGradient id="paint21_linear" x1="-540.959" y1="204.835" x2="-587.167" y2="222.434" gradientUnits="userSpaceOnUse">
<stop stop-color="#3769A5"/>
<stop offset="1" stop-color="#08448B"/>
</linearGradient>
<linearGradient id="paint22_linear" x1="207.939" y1="379.107" x2="208.122" y2="383.878" gradientUnits="userSpaceOnUse">
<stop stop-color="#223762"/>
<stop offset="1" stop-color="#041B48"/>
</linearGradient>
<linearGradient id="paint23_linear" x1="248.778" y1="377.676" x2="248.595" y2="382.447" gradientUnits="userSpaceOnUse">
<stop stop-color="#223762"/>
<stop offset="1" stop-color="#041B48"/>
</linearGradient>
<linearGradient id="paint24_linear" x1="225.716" y1="473.544" x2="253.016" y2="473.259" gradientUnits="userSpaceOnUse">
<stop stop-color="#223762"/>
<stop offset="1" stop-color="#041B48"/>
</linearGradient>
<linearGradient id="paint25_linear" x1="243.517" y1="309.975" x2="252.646" y2="300.569" gradientUnits="userSpaceOnUse">
<stop stop-color="#223762"/>
<stop offset="1" stop-color="#041B48"/>
</linearGradient>
<linearGradient id="paint26_linear" x1="167.431" y1="341.284" x2="167.431" y2="225.362" gradientUnits="userSpaceOnUse">
<stop stop-color="#3769A5"/>
<stop offset="1" stop-color="#08448B"/>
</linearGradient>
<linearGradient id="paint27_linear" x1="123.955" y1="341.284" x2="123.955" y2="225.362" gradientUnits="userSpaceOnUse">
<stop stop-color="#3769A5"/>
<stop offset="1" stop-color="#08448B"/>
</linearGradient>
<linearGradient id="paint28_linear" x1="357.586" y1="282.27" x2="357.586" y2="246.87" gradientUnits="userSpaceOnUse">
<stop stop-color="#3769A5"/>
<stop offset="1" stop-color="#08448B"/>
</linearGradient>
<linearGradient id="paint29_linear" x1="314.098" y1="282.27" x2="314.098" y2="246.87" gradientUnits="userSpaceOnUse">
<stop stop-color="#3769A5"/>
<stop offset="1" stop-color="#08448B"/>
</linearGradient>
<linearGradient id="paint30_linear" x1="118.187" y1="334.736" x2="118.187" y2="248.947" gradientUnits="userSpaceOnUse">
<stop stop-color="#A7BDE5"/>
<stop offset="1" stop-color="#2F66CB"/>
</linearGradient>
<linearGradient id="paint31_linear" x1="220.362" y1="399.28" x2="219.617" y2="387.465" gradientUnits="userSpaceOnUse">
<stop stop-color="#223762"/>
<stop offset="1" stop-color="#041B48"/>
</linearGradient>
<linearGradient id="paint32_linear" x1="152.383" y1="399.28" x2="151.638" y2="387.465" gradientUnits="userSpaceOnUse">
<stop stop-color="#223762"/>
<stop offset="1" stop-color="#041B48"/>
</linearGradient>
<linearGradient id="paint33_linear" x1="187.5" y1="297.882" x2="187.13" y2="291.391" gradientUnits="userSpaceOnUse">
<stop stop-color="#223762"/>
<stop offset="1" stop-color="#041B48"/>
</linearGradient>
<linearGradient id="paint34_linear" x1="262.572" y1="293.541" x2="261.535" y2="286.827" gradientUnits="userSpaceOnUse">
<stop stop-color="#223762"/>
<stop offset="1" stop-color="#041B48"/>
</linearGradient>
<linearGradient id="paint35_linear" x1="144.476" y1="388.088" x2="202.707" y2="368.485" gradientUnits="userSpaceOnUse">
<stop stop-color="#3769A5"/>
<stop offset="1" stop-color="#08448B"/>
</linearGradient>
<linearGradient id="paint36_linear" x1="144.977" y1="390.524" x2="201.193" y2="375.604" gradientUnits="userSpaceOnUse">
<stop stop-color="#223762"/>
<stop offset="1" stop-color="#041B48"/>
</linearGradient>
<linearGradient id="paint37_linear" x1="280.792" y1="144.858" x2="240.383" y2="156.168" gradientUnits="userSpaceOnUse">
<stop stop-color="#EDF3FD"/>
<stop offset="1" stop-color="#D6E3FA"/>
</linearGradient>
<linearGradient id="paint38_linear" x1="280.963" y1="145.236" x2="240.589" y2="156.596" gradientUnits="userSpaceOnUse">
<stop stop-color="#EDF3FD"/>
<stop offset="1" stop-color="#D6E3FA"/>
</linearGradient>
<linearGradient id="paint39_linear" x1="281.017" y1="176.661" x2="242.728" y2="191.091" gradientUnits="userSpaceOnUse">
<stop stop-color="#EDF3FD"/>
<stop offset="1" stop-color="#D6E3FA"/>
</linearGradient>
<linearGradient id="paint40_linear" x1="202.471" y1="367.661" x2="261.205" y2="335.155" gradientUnits="userSpaceOnUse">
<stop stop-color="#4C93F4"/>
<stop offset="1" stop-color="#0B63DA"/>
</linearGradient>
<linearGradient id="paint41_linear" x1="287.549" y1="339.022" x2="285.289" y2="338.329" gradientUnits="userSpaceOnUse">
<stop stop-color="#3769A5"/>
<stop offset="1" stop-color="#08448B"/>
</linearGradient>
<linearGradient id="paint42_linear" x1="257.456" y1="242.997" x2="266.166" y2="225.062" gradientUnits="userSpaceOnUse">
<stop stop-color="#F8A695"/>
<stop offset="1" stop-color="#E56045"/>
</linearGradient>
<linearGradient id="paint43_linear" x1="248.534" y1="298.504" x2="248.115" y2="291.82" gradientUnits="userSpaceOnUse">
<stop stop-color="#223762"/>
<stop offset="1" stop-color="#041B48"/>
</linearGradient>
<linearGradient id="paint44_linear" x1="231.982" y1="347.987" x2="241.488" y2="341.391" gradientUnits="userSpaceOnUse">
<stop stop-color="#3769A5"/>
<stop offset="1" stop-color="#08448B"/>
</linearGradient>
<linearGradient id="paint45_linear" x1="252.695" y1="98.5088" x2="249.74" y2="101.387" gradientUnits="userSpaceOnUse">
<stop stop-color="#223762"/>
<stop offset="1" stop-color="#041B48"/>
</linearGradient>
<linearGradient id="paint46_linear" x1="243.168" y1="100.162" x2="243.168" y2="146.606" gradientUnits="userSpaceOnUse">
<stop stop-color="#4376C9"/>
<stop offset="1" stop-color="#D6E3FA"/>
</linearGradient>
<linearGradient id="paint47_linear" x1="248.09" y1="101.789" x2="258.854" y2="144.129" gradientUnits="userSpaceOnUse">
<stop stop-color="#223762"/>
<stop offset="1" stop-color="#041B48"/>
</linearGradient>
<linearGradient id="paint48_linear" x1="306.663" y1="162.256" x2="264.512" y2="212.013" gradientUnits="userSpaceOnUse">
<stop stop-color="#4C93F4"/>
<stop offset="1" stop-color="#0B63DA"/>
</linearGradient>
<linearGradient id="paint49_linear" x1="-3179.78" y1="334.736" x2="-3179.78" y2="248.947" gradientUnits="userSpaceOnUse">
<stop stop-color="#A7BDE5"/>
<stop offset="1" stop-color="#2F66CB"/>
</linearGradient>
<linearGradient id="paint50_linear" x1="23.5605" y1="258.041" x2="77.5869" y2="296.965" gradientUnits="userSpaceOnUse">
<stop stop-color="#B1FFBE"/>
<stop offset="0.444207" stop-color="#5CDB8E"/>
<stop offset="1" stop-color="#149654"/>
</linearGradient>
<linearGradient id="paint51_linear" x1="17.6364" y1="183.847" x2="53.9608" y2="209.962" gradientUnits="userSpaceOnUse">
<stop stop-color="#B1FFBE"/>
<stop offset="0.444207" stop-color="#5CDB8E"/>
<stop offset="1" stop-color="#149654"/>
</linearGradient>
<linearGradient id="paint52_linear" x1="52.193" y1="199.124" x2="91.9781" y2="212.49" gradientUnits="userSpaceOnUse">
<stop stop-color="#B1FFBE"/>
<stop offset="0.444207" stop-color="#5CDB8E"/>
<stop offset="1" stop-color="#149654"/>
</linearGradient>
<linearGradient id="paint53_linear" x1="32.9315" y1="198.983" x2="78.616" y2="217.024" gradientUnits="userSpaceOnUse">
<stop stop-color="#B1FFBE"/>
<stop offset="0.444207" stop-color="#5CDB8E"/>
<stop offset="1" stop-color="#149654"/>
</linearGradient>
<linearGradient id="paint54_linear" x1="2.86427" y1="240.238" x2="40.8998" y2="280.826" gradientUnits="userSpaceOnUse">
<stop stop-color="#B1FFBE"/>
<stop offset="0.444207" stop-color="#5CDB8E"/>
<stop offset="1" stop-color="#149654"/>
</linearGradient>
<linearGradient id="paint55_linear" x1="21.7702" y1="316.364" x2="2.33089" y2="392.784" gradientUnits="userSpaceOnUse">
<stop stop-color="#86A8D9"/>
<stop offset="1" stop-color="#BCD0F2"/>
</linearGradient>
<linearGradient id="paint56_linear" x1="51.3221" y1="316.364" x2="14.8523" y2="375.075" gradientUnits="userSpaceOnUse">
<stop stop-color="#86A8D9"/>
<stop offset="1" stop-color="#BCD0F2"/>
</linearGradient>
<linearGradient id="paint57_linear" x1="121.225" y1="355.289" x2="122.327" y2="343.774" gradientUnits="userSpaceOnUse">
<stop stop-color="#ACC5E9"/>
<stop offset="0.627469" stop-color="#D3E3FB"/>
<stop offset="1" stop-color="#EAF2FF"/>
</linearGradient>
<linearGradient id="paint58_linear" x1="955.091" y1="254.629" x2="954.653" y2="228.344" gradientUnits="userSpaceOnUse">
<stop stop-color="#A7BDE5"/>
<stop offset="1" stop-color="#2F66CB"/>
</linearGradient>
<linearGradient id="paint59_linear" x1="-3427.64" y1="312.756" x2="-3427.64" y2="222.593" gradientUnits="userSpaceOnUse">
<stop stop-color="#A7BDE5"/>
<stop offset="1" stop-color="#2F66CB"/>
</linearGradient>
<linearGradient id="paint60_linear" x1="-3384.16" y1="312.756" x2="-3384.16" y2="222.593" gradientUnits="userSpaceOnUse">
<stop stop-color="#A7BDE5"/>
<stop offset="1" stop-color="#2F66CB"/>
</linearGradient>
<linearGradient id="paint61_linear" x1="160.495" y1="167.603" x2="193.211" y2="167.603" gradientUnits="userSpaceOnUse">
<stop stop-color="#002B64"/>
<stop offset="1" stop-color="#0F3177"/>
</linearGradient>
<linearGradient id="paint62_linear" x1="184.361" y1="134.672" x2="126.589" y2="197.721" gradientUnits="userSpaceOnUse">
<stop stop-color="#DBE9FF"/>
<stop offset="0.440948" stop-color="#A7BDE4"/>
<stop offset="1" stop-color="#5876AF"/>
</linearGradient>
<linearGradient id="paint63_linear" x1="185.37" y1="197.849" x2="182.902" y2="207.555" gradientUnits="userSpaceOnUse">
<stop stop-color="#869FCE" stop-opacity="0.01"/>
<stop offset="1" stop-color="#4975C1"/>
</linearGradient>
<linearGradient id="paint64_linear" x1="51.4184" y1="253.802" x2="97.4425" y2="295.992" gradientUnits="userSpaceOnUse">
<stop stop-color="#B1FFBE"/>
<stop offset="0.444207" stop-color="#5CDB8E"/>
<stop offset="1" stop-color="#149654"/>
</linearGradient>
<linearGradient id="paint65_linear" x1="63.5641" y1="203.165" x2="16.0255" y2="236.45" gradientUnits="userSpaceOnUse">
<stop stop-color="#4C93F4"/>
<stop offset="1" stop-color="#0B63DA"/>
</linearGradient>
<linearGradient id="paint66_linear" x1="48.9504" y1="253.802" x2="94.9745" y2="295.992" gradientUnits="userSpaceOnUse">
<stop stop-color="#B1FFBE"/>
<stop offset="0.444207" stop-color="#5CDB8E"/>
<stop offset="1" stop-color="#149654"/>
</linearGradient>
<linearGradient id="paint67_linear" x1="283.364" y1="105.587" x2="267.528" y2="91.2147" gradientUnits="userSpaceOnUse">
<stop stop-color="#223762"/>
<stop offset="1" stop-color="#041B48"/>
</linearGradient>
</defs>
</svg>
