<svg width="30" height="30" viewBox="0 0 30 30" fill="none" xmlns="http://www.w3.org/2000/svg">
<g clip-path="url(#clip0)">
<path d="M29.7165 11.9642C29.9701 14.0676 27.6728 24.2118 20.721 27.3894C25.8826 24.5251 32.8195 11.099 25.8826 4.6544C24.7787 3.93834 23.6748 3.61014 22.7349 3.44604C32.8493 6.96668 24.361 31.2979 7.65289 28.0308C9.816 29.2243 12.2924 29.8956 14.9329 29.8956C25.0174 29.9105 31.4172 20.5868 29.7165 11.9642Z" fill="#0D3261"/>
<path d="M6.44455 25.092C6.2357 25.9722 5.50472 25.9125 3.6549 23.4958C-4.52014 12.8891 16.2904 -1.35752 25.8826 4.65441C20.2735 -1.19342 10.5022 -1.80506 4.29637 4.35605C1.80507 6.83243 0.372949 9.9652 0 13.2024C0.790651 10.8454 6.3998 0.551976 17.9612 2.28246C11.1288 1.90951 5.63899 5.86277 2.75982 9.65193C-1.43212 15.1716 0.551964 22.3919 4.74391 25.9423C5.9821 26.6435 6.34013 25.8976 6.44455 25.092Z" fill="#0D3261"/>
<path d="M5.77321 19.7216C5.95222 20.7211 6.72796 23.8389 6.44452 25.0771C6.34009 25.8976 5.98206 26.6435 4.75879 25.9274C7.66779 28.3143 7.56336 22.7499 11.2481 17.7076C11.3674 17.5435 11.084 13.4113 11.2183 13.2472C11.2928 13.1577 11.7851 17.0214 11.8597 16.917C12.5012 16.1413 13.2322 15.3954 14.0974 14.7091C14.1869 14.6345 14.6046 11.7703 14.6941 11.7106C14.7687 11.6509 14.53 14.3959 14.6046 14.3362C15.5594 13.635 17.5435 12.6057 18.8264 12.0687C18.1849 12.4416 16.3351 13.5604 15.4997 14.2914L18.5728 14.0826C18.5728 14.0826 15.0223 14.7091 14.9179 14.7986C14.53 15.1716 13.1576 16.6634 11.7851 18.8414C11.6956 18.9757 16.171 18.2894 16.0815 18.4237C15.992 18.5729 11.3525 19.5575 11.263 19.7066C10.3829 21.2581 9.56237 23.0781 9.07007 25.0622C23.3018 28.6276 23.3913 9.63703 23.451 5.0423C19.6916 10.5321 3.71453 8.54801 5.77321 19.7216Z" fill="url(#paint0_linear)"/>
</g>
<defs>
<linearGradient id="paint0_linear" x1="17.2932" y1="11.2289" x2="7.80304" y2="26.7764" gradientUnits="userSpaceOnUse">
<stop stop-color="#0D3261"/>
<stop offset="0.1228" stop-color="#0D3261"/>
<stop offset="0.3505" stop-color="#0D3261"/>
<stop offset="0.5566" stop-color="#0D3261"/>
<stop offset="0.6421" stop-color="#0D3261"/>
<stop offset="0.7625" stop-color="#0D3261"/>
<stop offset="0.903" stop-color="#213846"/>
<stop offset="1" stop-color="#0D3261"/>
</linearGradient>
<clipPath id="clip0">
<rect width="30" height="29.9105" fill="white"/>
</clipPath>
</defs>
</svg>
