<svg xmlns="http://www.w3.org/2000/svg" width="734" height="437" fill="none" viewBox="0 0 734 437">
    <path fill="url(#a)" fill-rule="evenodd" d="M479.495 55.334c-45.905-51.423-142.053-70.56-240.859-42.19C116.087 48.332 35.856 143.277 59.434 225.211c19.345 67.221 102.556 104.8 199.493 96.695 46.48 37.151 124.736 49.42 204.528 26.509 111.929-32.138 184.495-121.331 162.081-199.216-15.723-54.636-74.007-89.195-146.041-93.865z" clip-rule="evenodd" opacity=".4"/>
    <g stroke-linecap="round" stroke-width="6.907" opacity=".3">
        <path stroke="url(#b)" d="M301.84 296.658c-3.482-5.789-15.797-22.948-30.369-29.152"/>
        <path stroke="url(#c)" d="M293.972 255.405c-3.482-5.789 10.344-19.619 11.701-35.384"/>
        <path stroke="url(#d)" d="M318.031 368.566c-1.481-2.463-3.914-16.115-7.594-31.414-11.526-47.91-20.883-109.808-41.56-144.182"/>
    </g>
    <g opacity=".3">
        <path stroke="url(#e)" stroke-linecap="round" stroke-width="6.907" d="M416.368 331.702c-.371-21.258 16.269-87.355 39.652-123.77"/>
        <path fill="url(#f)" fill-rule="evenodd" d="M445.076 218.135s.825-10.6-4.685-19.76c-5.509-9.159-12.344-15.162-15.266-13.408-2.923 1.754-.825 10.6 4.685 19.76 5.509 9.159 15.266 13.408 15.266 13.408z" clip-rule="evenodd"/>
        <path fill="url(#g)" fill-rule="evenodd" d="M451.29 221.688s8.983 5.704 19.666 5.145c10.683-.56 19.198-3.77 19.02-7.17-.179-3.401-8.983-5.704-19.666-5.145-10.683.559-19.02 7.17-19.02 7.17z" clip-rule="evenodd"/>
        <path fill="url(#h)" fill-rule="evenodd" d="M440.262 248.936s8.672 6.166 19.369 6.166c10.698 0 19.37-2.761 19.37-6.166 0-3.405-8.672-6.165-19.37-6.165-10.697 0-19.369 6.165-19.369 6.165z" clip-rule="evenodd"/>
        <path fill="url(#i)" fill-rule="evenodd" d="M431.373 276.311s8.671 6.165 19.369 6.165c10.697 0 19.369-2.76 19.369-6.165 0-3.406-8.672-6.166-19.369-6.166-10.698 0-19.369 6.166-19.369 6.166z" clip-rule="evenodd"/>
        <path fill="url(#j)" fill-rule="evenodd" d="M458.015 203.872s9.819-4.078 15.478-13.146c5.659-9.068 7.905-17.884 5.016-19.691-2.889-1.808-9.819 4.077-15.478 13.145-5.659 9.068-5.016 19.692-5.016 19.692z" clip-rule="evenodd"/>
        <path fill="url(#k)" fill-rule="evenodd" d="M433.268 245.881s-1.215-10.563-8.373-18.504c-7.158-7.941-15.015-12.531-17.548-10.252-2.534 2.278 1.215 10.563 8.373 18.504 7.158 7.94 17.548 10.252 17.548 10.252z" clip-rule="evenodd"/>
        <path fill="url(#l)" fill-rule="evenodd" d="M423.748 274.395s-2.315-10.371-10.269-17.516c-7.954-7.146-16.252-10.888-18.535-8.358-2.283 2.529 2.315 10.371 10.269 17.517 7.954 7.145 18.535 8.357 18.535 8.357z" clip-rule="evenodd"/>
    </g>
    <path stroke="url(#m)" stroke-linecap="round" stroke-linejoin="round" stroke-width="9.209" d="M250.361 84.652l53.443-40.85" opacity=".473"/>
    <path stroke="url(#n)" stroke-linecap="round" stroke-linejoin="round" stroke-width="9.209" d="M250.888 105.164l42.153-32.22" opacity=".473"/>
    <path stroke="url(#o)" stroke-linecap="round" stroke-linejoin="round" stroke-width="9.209" d="M435.17 131.46l53.443-40.85" opacity=".473"/>
    <path stroke="url(#p)" stroke-linecap="round" stroke-linejoin="round" stroke-width="9.209" d="M435.697 151.972l42.153-32.22" opacity=".473"/>
    <path fill="url(#q)" fill-rule="evenodd" d="M634.354 193.632l-117.679-21.938c-34.151 49.985-50.311 92.139-48.481 126.463 21.576 8.933 63.114 23.069 124.614 42.409l49.483-132.928c2.027-5.445-.748-11.5-6.199-13.525a10.61 10.61 0 0 0-1.738-.481z" clip-rule="evenodd"/>
    <path fill="url(#r)" fill-rule="evenodd" d="M516.714 200.329c1.074 3.701.589 6.372-1.457 8.013-3.068 2.462-6.15 6.649-9.187 6.993-3.038.345-6.327 2.009-6.86 6.265-.257 2.057-10.798 12.688-14.564 27.314-.954 3.703.206 9.402 3.48 17.095l8.708-4.788 12.404-20.069c13.775-4.78 21.541-7.741 23.296-8.883 2.634-1.713 11.165-9.044 9.52-11.793-1.645-2.749 3.707-20.212 6.885-23.607 3.179-3.394 5.782-11.666 5.846-14.72.063-3.054 1.165-12.198-6.768-11.906-5.289.194-15.723 10.223-31.303 30.086z" clip-rule="evenodd"/>
    <path fill="#C68B5E" fill-opacity=".67" fill-rule="evenodd" d="M516.714 200.329c1.074 3.701.589 6.372-1.457 8.013-3.068 2.462-6.15 6.649-9.187 6.993-3.038.345-6.327 2.009-6.86 6.265-.257 2.057-10.798 12.688-14.564 27.314-.954 3.703.206 9.402 3.48 17.095l8.708-4.788 12.404-20.069c13.775-4.78 21.541-7.741 23.296-8.883 2.634-1.713 11.165-9.044 9.52-11.793-1.645-2.749 3.707-20.212 6.885-23.607 3.179-3.394 5.782-11.666 5.846-14.72.063-3.054 1.165-12.198-6.768-11.906-5.289.194-15.723 10.223-31.303 30.086z" clip-rule="evenodd"/>
    <mask id="s" width="71" height="97" x="484" y="170" maskUnits="userSpaceOnUse">
        <g fill-rule="evenodd" clip-rule="evenodd" opacity=".4">
            <path fill="#fff" d="M516.714 200.329c1.074 3.701.589 6.372-1.457 8.013-3.068 2.462-6.15 6.649-9.187 6.993-3.038.345-6.327 2.009-6.86 6.265-.257 2.057-10.798 12.688-14.564 27.314-.954 3.703.206 9.402 3.48 17.095l8.708-4.788 12.404-20.069c13.775-4.78 21.541-7.741 23.296-8.883 2.634-1.713 11.165-9.044 9.52-11.793-1.645-2.749 3.707-20.212 6.885-23.607 3.179-3.394 5.782-11.666 5.846-14.72.063-3.054 1.165-12.198-6.768-11.906-5.289.194-15.723 10.223-31.303 30.086z"/>
            <path stroke="#fff" d="M516.714 200.329c1.074 3.701.589 6.372-1.457 8.013-3.068 2.462-6.15 6.649-9.187 6.993-3.038.345-6.327 2.009-6.86 6.265-.257 2.057-10.798 12.688-14.564 27.314-.954 3.703.206 9.402 3.48 17.095l8.708-4.788 12.404-20.069c13.775-4.78 21.541-7.741 23.296-8.883 2.634-1.713 11.165-9.044 9.52-11.793-1.645-2.749 3.707-20.212 6.885-23.607 3.179-3.394 5.782-11.666 5.846-14.72.063-3.054 1.165-12.198-6.768-11.906-5.289.194-15.723 10.223-31.303 30.086z"/>
        </g>
    </mask>
    <g mask="url(#s)">
        <path fill="#CCA284" fill-rule="evenodd" d="M546.388 216.04s-15.048-26.676-22.077-33.371c-7.029-6.694 33.538-13.442 33.538-13.442l-11.461 51.848v-5.035z" clip-rule="evenodd" opacity=".717" style="mix-blend-mode:multiply"/>
    </g>
    <path fill="url(#t)" fill-rule="evenodd" d="M508.492 137.584c-3.631 2.442-.534 12.273-4.464 17.884-2.15 3.068-6.67 4.774-8.757 5.995-5.905 3.455.163 5.92 1.383 7.976s.248 6.701-.666 10.362c-.914 3.661-4.156 11.911-.68 13.754 3.476 1.843 24.818 9.891 30.989 7.433 6.172-2.458 8.378-14.772 9.899-15.573 1.521-.801 2.59.045 3.994.394 3.655.911 6.956-1.136 8.713-4.048 1.99-3.298 4.819-1.793 3.289-6.3-2.36-6.953-16.037-34.34-21.471-36.309-5.434-1.969-16.613-5.346-22.229-1.568z" clip-rule="evenodd"/>
    <path fill="#C68B5E" fill-opacity=".67" fill-rule="evenodd" d="M508.492 137.584c-3.631 2.442-.534 12.273-4.464 17.884-2.15 3.068-6.67 4.774-8.757 5.995-5.905 3.455.163 5.92 1.383 7.976s.248 6.701-.666 10.362c-.914 3.661-4.156 11.911-.68 13.754 3.476 1.843 24.818 9.891 30.989 7.433 6.172-2.458 8.378-14.772 9.899-15.573 1.521-.801 2.59.045 3.994.394 3.655.911 6.956-1.136 8.713-4.048 1.99-3.298 4.819-1.793 3.289-6.3-2.36-6.953-16.037-34.34-21.471-36.309-5.434-1.969-16.613-5.346-22.229-1.568z" clip-rule="evenodd"/>
    <path fill="url(#u)" fill-rule="evenodd" d="M526.219 145.108c-13.898-3.461-20.361-.36-25.393-11.15-2.972-6.372 2.815-25.921 12.561-26.363 2.399 10.927 13.985 11.866 20.699 12.774 36.048 4.875 39.82 37.798 29.028 57.19-3.474 6.244-6.689 10.73-9.556 14.093-1.82 2.135-4.2 4.707-5.003 5.928-.269.408-2.594 5.55-2.996 5.449-1.215-.302-.727-.363-.131-5.685.596-5.323.929-6.755 2.01-11.086.319-1.279 6.364-11.104 1.722-14.662-3.095-2.372-7.276-.923-12.543 4.346l-3.198-1.204c2.113-4.693 3.449-8.158 4.007-10.394.837-3.354 2.691-15.774-11.207-19.236z" clip-rule="evenodd"/>
    <path fill="url(#v)" fill-rule="evenodd" d="M533.424 174.899c-1.061 2.361-5.064 7.805-8.677 9.771-3.613 1.967-11.223 2.087-12.784-.155s-8.652-12.396-15.043-13.988c-.32 1.285-1.196 3.471-2.626 6.559 4.946 2.054 7.819 3.986 8.618 5.796 1.199 2.716 1.843.897.646 2.103-1.198 1.207-7.45.279-7.925-4.43-1.804 3.75-3.742 13.871-3.058 16.184.683 2.312 4.614 3.373 8.494 3.622 3.881.248 17.705 2.356 21.226 1.637 3.521-.719 7.994-.305 10.94-8.826 2.946-8.521 2.291-14.041 6.135-21.299 3.844-7.257-4.886.664-5.946 3.026z" clip-rule="evenodd"/>
    <g fill-rule="evenodd" clip-rule="evenodd" filter="url(#w)">
        <path fill="#3D82F0" d="M544.436 209.363c14.606 3.323 24.419 8.861 29.441 16.615 7.532 11.631 11.306 42.526 11.306 52.547 0 10.022 1.201 34.605 0 41.312-1.201 6.707-6.716 11.689-18.13 11.689-7.61 0-50.739-14.137-129.387-42.413 10.343-5.109 15.68-8.638 16.009-10.588.493-2.924 24.495-56.252 32.086-61.685 7.591-5.432 23.348-8.003 29.665-8.003-.923 2.561-2.978 4.628-.074 8.003 2.905 3.376 8.605 3.966 14.252 1.623 3.764-1.562 8.708-4.596 14.832-9.1z"/>
        <path fill="url(#x)" d="M544.436 209.363c14.606 3.323 24.419 8.861 29.441 16.615 7.532 11.631 11.306 42.526 11.306 52.547 0 10.022 1.201 34.605 0 41.312-1.201 6.707-6.716 11.689-18.13 11.689-7.61 0-50.739-14.137-129.387-42.413 10.343-5.109 15.68-8.638 16.009-10.588.493-2.924 24.495-56.252 32.086-61.685 7.591-5.432 23.348-8.003 29.665-8.003-.923 2.561-2.978 4.628-.074 8.003 2.905 3.376 8.605 3.966 14.252 1.623 3.764-1.562 8.708-4.596 14.832-9.1z"/>
    </g>
    <mask id="y" width="149" height="124" x="437" y="208" maskUnits="userSpaceOnUse">
        <path fill="#fff" fill-rule="evenodd" d="M544.436 209.363c14.606 3.323 24.419 8.861 29.441 16.615 7.532 11.631 11.306 42.526 11.306 52.547 0 10.022 1.201 34.605 0 41.312-1.201 6.707-6.716 11.689-18.13 11.689-7.61 0-50.739-14.137-129.387-42.413 10.343-5.109 15.68-8.638 16.009-10.588.493-2.924 24.495-56.252 32.086-61.685 7.591-5.432 23.348-8.003 29.665-8.003-.923 2.561-2.978 4.628-.074 8.003 2.905 3.376 8.605 3.966 14.252 1.623 3.764-1.562 8.708-4.596 14.832-9.1z" clip-rule="evenodd"/>
        <path fill-rule="evenodd" stroke="#fff" d="M544.436 209.363c14.606 3.323 24.419 8.861 29.441 16.615 7.532 11.631 11.306 42.526 11.306 52.547 0 10.022 1.201 34.605 0 41.312-1.201 6.707-6.716 11.689-18.13 11.689-7.61 0-50.739-14.137-129.387-42.413 10.343-5.109 15.68-8.638 16.009-10.588.493-2.924 24.495-56.252 32.086-61.685 7.591-5.432 23.348-8.003 29.665-8.003-.923 2.561-2.978 4.628-.074 8.003 2.905 3.376 8.605 3.966 14.252 1.623 3.764-1.562 8.708-4.596 14.832-9.1z" clip-rule="evenodd"/>
    </mask>
    <g mask="url(#y)">
        <path fill="url(#z)" fill-rule="evenodd" d="M507.732 210.889c-12.095 12.368 11.766 18.957 21.509 15.663 9.743-3.295 20.677-15.663 20.677-15.663s-27.55-20.479-34.868-10.24c-7.318 10.24 4.778-2.127-7.318 10.24z" clip-rule="evenodd" opacity=".585" style="mix-blend-mode:multiply"/>
        <path fill="url(#A)" fill-rule="evenodd" d="M490.494 322.785c8.613 0 64.614-9.264 64.614-16.783 0-7.518-4.318-60.491-4.318-60.491" clip-rule="evenodd" opacity=".547" style="mix-blend-mode:multiply"/>
        <path fill="url(#B)" fill-rule="evenodd" d="M412.04 290.175c3.901 0 21.938 22.825 38.416 15.142 19.906-9.28 31.497-43.643 31.497-47.756 0-3.147 5.227-14.308 3.237-26.468-1.18-7.208-10.81-22.87-10.81-22.87" clip-rule="evenodd" opacity=".547" style="mix-blend-mode:multiply"/>
    </g>
    <path fill="url(#C)" fill-rule="evenodd" d="M83.927 178.548l106.847-25.787c19.761 53.219 28.726 96.991 26.896 131.314-21.576 8.933-53.941 20.515-97.094 34.747l-44.12-126.591c-1.913-5.487.99-11.482 6.482-13.393.325-.113.655-.21.99-.29z" clip-rule="evenodd"/>
    <path fill="#316EEA" fill-rule="evenodd" d="M205.55 159.96c-2.288 7.237 5.144 27.67 16.949 37.655 11.806 9.985-26.166 8.287-26.188-2.845-.022-11.132 11.526-42.047 9.239-34.81z" clip-rule="evenodd"/>
    <path fill="url(#D)" fill-rule="evenodd" d="M210.717 182.637c8.929 3.678 15.365 7.606 19.31 11.783 5.918 6.266 34.697 55.003 38.091 57.888 3.393 2.886 26.746 5.071 30.262 6.223-1.798 2.599-5.297 10.626-3.499 17.686-5.55 2.791-17.74.299-42.677-2.492-18.55-15.499-28.182-39.944-32.148-51.614-3.966-11.67-7.079-24.828-9.339-39.474z" clip-rule="evenodd"/>
    <path fill="url(#E)" fill-rule="evenodd" d="M222.968 190.996c7.208 12.315 18.327 37.044 21.484 47.72 3.387 11.449-9.776 41.599-9.623 48.684.127 5.908-5.959 3.845-60.025 9.28-1.671-10.417-1.671-23.441 0-39.074 2.506-23.448-7.707-54.996-4.875-60.293 2.831-5.297 9.72-16.562 12.744-16.562 3.024 0 33.087-2.071 40.295 10.245z" clip-rule="evenodd"/>
    <path fill="url(#F)" fill-rule="evenodd" d="M0 320.619l335.072-69.871L734 392.365l-238.226 44.121H0V320.619z" clip-rule="evenodd"/>
    <path fill="url(#G)" fill-rule="evenodd" d="M234.094 331.887l128.892-20.809 98.068 42.919-141.974 37.62" clip-rule="evenodd" opacity=".197" style="mix-blend-mode:multiply"/>
    <path fill="url(#H)" fill-rule="evenodd" d="M202.699 162.957c-1.347 6.288-.185 10.837-.185 17.992 0 9.565-19.552 5.673-20.22-1.577-.667-7.251.121-16.972-2.632-23.558-2.754-6.587 24.384.856 23.037 7.143z" clip-rule="evenodd"/>
    <path fill="#C68B5E" fill-opacity=".67" fill-rule="evenodd" d="M202.699 162.957c-1.347 6.288-.185 10.837-.185 17.992 0 9.565-19.552 5.673-20.22-1.577-.667-7.251.121-16.972-2.632-23.558-2.754-6.587 24.384.856 23.037 7.143z" clip-rule="evenodd"/>
    <mask id="I" width="24" height="34" x="179" y="153" maskUnits="userSpaceOnUse">
        <path fill="#fff" fill-rule="evenodd" d="M202.699 162.957c-1.347 6.288-.185 10.837-.185 17.992 0 9.565-19.552 5.673-20.22-1.577-.667-7.251.121-16.972-2.632-23.558-2.754-6.587 24.384.856 23.037 7.143z" clip-rule="evenodd"/>
        <path fill-rule="evenodd" stroke="#fff" d="M202.699 162.957c-1.347 6.288-.185 10.837-.185 17.992 0 9.565-19.552 5.673-20.22-1.577-.667-7.251.121-16.972-2.632-23.558-2.754-6.587 24.384.856 23.037 7.143z" clip-rule="evenodd"/>
    </mask>
    <g mask="url(#I)">
        <path fill="#775942" fill-rule="evenodd" d="M174.707 190.937s29.535-24.719 36.351-24.719c6.816 0-36.351-8.288-36.351-8.288v33.007z" clip-rule="evenodd" opacity=".717" style="mix-blend-mode:multiply"/>
    </g>
    <path fill="url(#J)" fill-rule="evenodd" d="M208.702 112.364c1.738 5.482 1.544 11.561 4.916 16.796 3.372 5.235 7.814 9.807 8.994 12.132 1.18 2.326-4.732 4.393-4.732 6.473s3.94 16.552 1.831 17.935c-1.201 3.232-23.33 7.712-28.918 4.503-4.926 0-12.517-4.317-17.176-14.925-4.659-10.607-4.874-36.366 0-42.914 4.873-6.548 33.348-5.481 35.085 0z" clip-rule="evenodd"/>
    <path fill="#C68B5E" fill-opacity=".67" fill-rule="evenodd" d="M208.702 112.364c1.738 5.482 1.544 11.561 4.916 16.796 3.372 5.235 7.814 9.807 8.994 12.132 1.18 2.326-4.732 4.393-4.732 6.473s3.94 16.552 1.831 17.935c-1.201 3.232-23.33 7.712-28.918 4.503-4.926 0-12.517-4.317-17.176-14.925-4.659-10.607-4.874-36.366 0-42.914 4.873-6.548 33.348-5.481 35.085 0z" clip-rule="evenodd"/>
    <path fill="#123584" fill-rule="evenodd" d="M243.487 332.138l11.407-86.125 99.488-5.038-11.301 84.352-99.594 6.811z" clip-rule="evenodd"/>
    <path fill="#123584" fill-rule="evenodd" d="M194.536 330.688l154.649-10.575.366 5.361-149.962 10.255-5.053-5.041z" clip-rule="evenodd"/>
    <path fill="url(#K)" fill-rule="evenodd" d="M249.386 332.323l11.367-86.711 99.487-5.037-10.675 84.897-100.179 6.851z" clip-rule="evenodd"/>
    <mask id="L" width="112" height="93" x="249" y="240" maskUnits="userSpaceOnUse">
        <path fill="#fff" fill-rule="evenodd" d="M249.386 332.323l11.367-86.711 99.487-5.037-10.675 84.897-100.179 6.851z" clip-rule="evenodd"/>
    </mask>
    <g mask="url(#L)">
        <path fill="#A1B8E3" fill-rule="evenodd" d="M305.071 277.308c4.853-.331 9.012 2.678 9.288 6.723.277 4.044-3.433 7.592-8.287 7.924-4.853.331-9.012-2.678-9.288-6.723-.277-4.044 3.433-7.592 8.287-7.924z" clip-rule="evenodd"/>
    </g>
    <path fill="#C68B5E" fill-rule="evenodd" d="M235.032 297.621c3.057 0 6.759-1.615 12.164-2.849 5.406-1.234 8.816-3.195 10.476-1.371.648.713-.434 2.448-1.225 2.922-.791.473-1.21 1.169-4.985 2.564-3.503 1.293-5.532 1.899-4.899 3.104.633 1.206 6.373 2.255 8.211 2.741 2.346.621 5.875 1.831 9.239 2.395 3.76.631 7.915.701 8.393.976.904.522 2.227 2.485 0 3.112-.527.148-4.332.224-8.96 0-4.943-.24-9.475-1.186-8.672 0 .191.281 4.748 1.209 9.755 1.209 2.967 0 8.971.369 9.35.369 1.373 0 2.062 1.875.817 2.798-.291.215-6.084.87-10.683 1.039-5.293.195-9.978-.284-10.033 0-.041.208 5.535.908 10.549.67 4.057-.193 6.287-.51 7.046 0 .758.51.566 1.873 0 2.486-.236.255-3.902 1.419-7.562 1.661-5.14.34-10.725-.254-10.774 0-.131.675 9.367 1.102 10.774 1.102 2.004 0 1.751 2.588-.567 3.136-2.908.687-8.925.633-11.663.633-2.739 0-6.853-.633-10.971-2.16-4.117-1.527-9.615-3.572-13.099-4.372-3.766-.865-1.062-12.759 1.546-18.999 2.607-6.241 2.716-3.166 5.773-3.166z" clip-rule="evenodd"/>
    <path fill="url(#M)" fill-rule="evenodd" d="M144.038 229.004c-7.788 19.891-1.631 34.989 1.788 52.223 3.418 17.234 4.973 20.964 10.422 24.469 5.448 3.505 18.808 8.388 70.156 14.311 0-4.097-.131-14.274 6.581-22.82-9.489 0-43.218-9.293-54.815-12.205-10.419-7.976 0-20.764 0-44.757 0-23.992-26.344-31.113-34.132-11.221z" clip-rule="evenodd"/>
    <path fill="#143B8C" fill-rule="evenodd" d="M200.343 132.858l-26.284 4.946v1.965l27.22-2.07-.936-4.841z" clip-rule="evenodd"/>
    <path fill="#000" fill-opacity=".01" fill-rule="evenodd" stroke="#143B8C" stroke-width="4.604" d="M207.34 143.136c-3.034.319-5.905-3.29-6.406-8.053-.501-4.763 1.556-8.889 4.59-9.207 3.035-.319 5.905 3.289 6.406 8.053.502 4.763-1.555 8.889-4.59 9.207zM221.996 134.651c-2.745.288-5.342-2.977-5.796-7.286-.453-4.31 1.408-8.043 4.153-8.331 2.746-.288 5.343 2.977 5.796 7.286.454 4.31-1.407 8.043-4.153 8.331z" clip-rule="evenodd"/>
    <path fill="#000" fill-opacity=".01" fill-rule="evenodd" d="M211.379 132.266c0-1.201 3.395-3.558 5.098-2.372l-5.098 2.372z" clip-rule="evenodd"/>
    <path stroke="#143B8C" stroke-width="4.604" d="M211.379 132.266c0-1.201 3.395-3.558 5.098-2.372"/>
    <path fill="url(#N)" fill-rule="evenodd" d="M175.442 114.86c7.277 5.621 24.208 7.269 35.732 1.839 11.525-5.43 14.337-27.661 0-34.501-5.453-2.602-16.283-.918-14.781 6.925-12.544-4.845-26.184-.603-31.592 2.63-8.426 5.035-14.994 10.521-18.447 22.055-3.454 11.534 2.184 23.005-.591 28.879-2.774 5.874-10.949 10.973-6.578 29.024 4.37 18.05-6.132 15.162-8.499 26.172-2.368 11.01 5.173 16.263 0 23.6-5.174 7.336-15.091 38.308 3.484 54.895 18.576 16.588 53.19 28.674 61.055-7.034 7.866-35.709-29.031-43.504-18.203-61.361 10.827-17.856 3.655-34.411 5.921-39.516 2.788-6.281-.21-15.865-5.505-28.855-4.905-12.03 2.156-15.242-1.996-24.752z" clip-rule="evenodd"/>
    <path fill="url(#O)" fill-rule="evenodd" d="M175.442 114.86c7.277 5.621 24.208 7.269 35.732 1.839 11.525-5.43 14.337-27.661 0-34.501-5.453-2.602-16.283-.918-14.781 6.925-12.544-4.845-26.184-.603-31.592 2.63-8.426 5.035-14.994 10.521-18.447 22.055-3.454 11.534 2.184 23.005-.591 28.879-2.774 5.874-10.949 10.973-6.578 29.024 4.37 18.05-6.132 15.162-8.499 26.172-2.368 11.01 5.173 16.263 0 23.6-5.174 7.336-15.091 38.308 3.484 54.895 18.576 16.588 53.19 28.674 61.055-7.034 7.866-35.709-29.031-43.504-18.203-61.361 10.827-17.856 3.655-34.411 5.921-39.516 2.788-6.281-.21-15.865-5.505-28.855-4.905-12.03 2.156-15.242-1.996-24.752z" clip-rule="evenodd"/>
    <path fill="url(#P)" fill-rule="evenodd" d="M240.062 366.742l70.059-12.023c38.67 24.138 57.621 36.285 56.853 36.44-1.093.22-78.454 13.733-83.68 15.133.489-1.246-13.925-14.433-43.232-39.55z" clip-rule="evenodd"/>
    <path fill="url(#Q)" fill-rule="evenodd" d="M281.657 348.069l73.214-4.921 40.25 35.128-91.214 6.285-22.25-36.492z" clip-rule="evenodd"/>
    <path fill="url(#S)" fill-rule="evenodd" d="M461.37 353.327l66.493-26.447a2.629 2.629 0 0 0-.086-4.919l-84.665-30.31-83.521 20.619 101.779 41.057z" clip-rule="evenodd" filter="url(#R)"/>
    <g fill-rule="evenodd" clip-rule="evenodd" filter="url(#T)">
        <path fill="url(#U)" d="M344.787 226.382l93.817 30.325a7.892 7.892 0 0 1 5.335 6.074l16.787 90.876-101.662-41.194-18.333-82.395a3.156 3.156 0 0 1 4.056-3.686z"/>
        <path fill="url(#V)" fill-opacity=".23" d="M344.787 226.382l93.817 30.325a7.892 7.892 0 0 1 5.335 6.074l16.787 90.876-101.662-41.194-18.333-82.395a3.156 3.156 0 0 1 4.056-3.686z"/>
    </g>
    <path fill="#D6E3FA" fill-rule="evenodd" d="M391.849 293.358c4.835 2.356 9.934 2.351 12.037-1.956 2.103-4.308-1.691-9.184-6.526-11.539-4.835-2.356-9.407-2.351-11.51 1.956-2.104 4.308 1.164 9.184 5.999 11.539z" clip-rule="evenodd"/>
    <path fill-rule="evenodd" stroke="#E5EFFD" stroke-width="5.756" d="M359.944 29.384a5.944 5.944 0 0 1 5.91-5.977l5.103-.03a5.991 5.991 0 0 1 6.025 6.096 5.991 5.991 0 0 1-6.067 5.888l-5.102-.064a5.945 5.945 0 0 1-5.869-5.913zM387.815 29.406a5.947 5.947 0 0 1 5.949-6.012l3.613.001a5.983 5.983 0 1 1-.125 11.966l-3.613-.075a5.946 5.946 0 0 1-5.824-5.88z" clip-rule="evenodd"/>
    <path fill="#000" fill-opacity=".01" fill-rule="evenodd" d="M376.966 28.64h10.531-10.531z" clip-rule="evenodd"/>
    <path stroke="#E5EFFD" stroke-width="4.604" d="M376.966 28.64h10.531"/>
    <path fill="#E5EFFD" fill-rule="evenodd" d="M347.902 19.69l12.83 6.225v6.096l-11.613-8.094-1.217-4.227z" clip-rule="evenodd"/>
    <path fill="#1A418F" fill-rule="evenodd" d="M218.102 151.633c.517-.266.355.911.58 1.602.224.691.378.799.452 1.25-2.145 1.103-5.877 1.321-8.376-.156-.501-.296-.938-.538-.523-.946.415-.407.931-.152 1.489.013 1.946.575 5.042-1.076 6.378-1.763z" clip-rule="evenodd"/>
    <path fill="url(#W)" fill-rule="evenodd" d="M142.687 388.379c17.448 0 31.592 3.061 31.592 6.837s-14.144 6.837-31.592 6.837c-17.447 0-31.591-3.061-31.591-6.837s14.144-6.837 31.591-6.837z" clip-rule="evenodd" opacity=".7"/>
    <path fill="url(#X)" fill-rule="evenodd" d="M184.787 355.44c2.376 4.16 3.708 8.82 3.708 13.742 0 17.573-16.973 31.819-37.91 31.819-20.937 0-37.909-14.246-37.909-31.819 0-5.208 1.49-10.124 4.134-14.464 16.793 2.656 50.22 2.485 67.977.722z" clip-rule="evenodd"/>
    <mask id="Y" width="77" height="48" x="112" y="354" maskUnits="userSpaceOnUse">
        <path fill="#fff" fill-rule="evenodd" d="M184.787 355.44c2.376 4.16 3.708 8.82 3.708 13.742 0 17.573-16.973 31.819-37.91 31.819-20.937 0-37.909-14.246-37.909-31.819 0-5.208 1.49-10.124 4.134-14.464 16.793 2.656 50.22 2.485 67.977.722z" clip-rule="evenodd"/>
    </mask>
    <path fill="url(#Z)" fill-rule="evenodd" d="M150.848 348.408c19.047 0 34.488 3.649 34.488 8.152 0 4.502-15.441 8.152-34.488 8.152-19.046 0-34.487-3.65-34.487-8.152 0-4.503 15.441-8.152 34.487-8.152z" clip-rule="evenodd"/>
    <mask id="aa" width="70" height="17" x="116" y="348" maskUnits="userSpaceOnUse">
        <path fill="#fff" fill-rule="evenodd" d="M150.848 348.408c19.047 0 34.488 3.649 34.488 8.152 0 4.502-15.441 8.152-34.488 8.152-19.046 0-34.487-3.65-34.487-8.152 0-4.503 15.441-8.152 34.487-8.152z" clip-rule="evenodd"/>
    </mask>
    <path fill="url(#ac)" fill-rule="evenodd" d="M147.953 350.511c-1.884-13.018-7.065-31.818-22.641-52.067-9.175-11.928-9.205-40.975-10.53-44.178 7.2 2.473 20.133 8.848 33.171 26.822 13.667 18.843 4.996 57.27 0 69.423z" clip-rule="evenodd" filter="url(#ab)"/>
    <mask id="ad" width="42" height="97" x="114" y="254" maskUnits="userSpaceOnUse">
        <path fill="#fff" fill-rule="evenodd" d="M147.953 350.511c-1.884-13.018-7.065-31.818-22.641-52.067-9.175-11.928-9.205-40.975-10.53-44.178 7.2 2.473 20.133 8.848 33.171 26.822 13.667 18.843 4.996 57.27 0 69.423z" clip-rule="evenodd"/>
    </mask>
    <g mask="url(#ad)" opacity=".5" style="mix-blend-mode:multiply">
        <path fill="#000" fill-opacity=".01" d="M145.947 335.173l-9.485-44.836c6.264 12.634 9.152 26.542 9.485 44.836z"/>
        <path stroke="#489C71" stroke-width="3.453" d="M145.947 335.173l-9.485-44.836c6.264 12.634 9.152 26.542 9.485 44.836z"/>
    </g>
    <path fill="url(#af)" fill-rule="evenodd" d="M148.011 363.874c-5.819-9.296-16.099-21.894-34.799-32.109-11.016-6.017-20.814-28.159-22.904-30.157 6.327-.53 18.341-.009 34.339 9.323 16.77 9.783 23.086 41.998 23.364 52.943z" clip-rule="evenodd" filter="url(#ae)"/>
    <mask id="ag" width="59" height="63" x="90" y="301" maskUnits="userSpaceOnUse">
        <path fill="#fff" fill-rule="evenodd" d="M148.011 363.874c-5.819-9.296-16.099-21.894-34.799-32.109-11.016-6.017-20.814-28.159-22.904-30.157 6.327-.53 18.341-.009 34.339 9.323 16.77 9.783 23.086 41.998 23.364 52.943z" clip-rule="evenodd"/>
    </mask>
    <g mask="url(#ag)" opacity=".5" style="mix-blend-mode:multiply">
        <path fill="#000" fill-opacity=".01" d="M139.687 350.092l-19.029-26.429c7.478 6.704 13.469 15.068 19.029 26.429z"/>
        <path stroke="#489C71" stroke-width="3.453" d="M139.687 350.092l-19.029-26.429c7.478 6.704 13.469 15.068 19.029 26.429z"/>
    </g>
    <path fill="url(#ai)" fill-rule="evenodd" d="M152.19 365.148c4.587-10.006 13.19-23.874 30.49-36.455 10.191-7.41 17.074-30.719 18.895-32.978-6.37.287-18.27 2.354-32.992 13.707-15.433 11.901-17.539 44.792-16.393 55.726z" clip-rule="evenodd" filter="url(#ah)"/>
    <mask id="aj" width="51" height="71" x="151" y="295" maskUnits="userSpaceOnUse">
        <path fill="#fff" fill-rule="evenodd" d="M152.19 365.148c4.587-10.006 13.19-23.874 30.49-36.455 10.191-7.41 17.074-30.719 18.895-32.978-6.37.287-18.27 2.354-32.992 13.707-15.433 11.901-17.539 44.792-16.393 55.726z" clip-rule="evenodd"/>
    </mask>
    <g mask="url(#aj)" opacity=".5" style="mix-blend-mode:multiply">
        <path fill="#000" fill-opacity=".01" d="M172.497 321.376l-15.604 28.921c4.08-12.107 8.983-21.25 15.604-28.921z"/>
        <path stroke="#489C71" stroke-width="3.453" d="M172.497 321.376l-15.604 28.921c4.08-12.107 8.983-21.25 15.604-28.921z"/>
    </g>
    <defs>
        <filter id="w" width="161.87" height="123.841" x="423.846" y="208.837" color-interpolation-filters="sRGB" filterUnits="userSpaceOnUse">
            <feFlood flood-opacity="0" result="BackgroundImageFix"/>
            <feBlend in="SourceGraphic" in2="BackgroundImageFix" result="shape"/>
            <feColorMatrix in="SourceAlpha" result="hardAlpha" values="0 0 0 0 0 0 0 0 0 0 0 0 0 0 0 0 0 0 127 0"/>
            <feOffset dx="-13.813" dy="1.151"/>
            <feGaussianBlur stdDeviation="15.54"/>
            <feComposite in2="hardAlpha" k2="-1" k3="1" operator="arithmetic"/>
            <feColorMatrix values="0 0 0 0 0.0901961 0 0 0 0 0.254902 0 0 0 0 0.572549 0 0 0 0.204201 0"/>
            <feBlend in2="shape" result="effect1_innerShadow"/>
        </filter>
        <filter id="R" width="189.509" height="69.737" x="340.012" y="283.589" color-interpolation-filters="sRGB" filterUnits="userSpaceOnUse">
            <feFlood flood-opacity="0" result="BackgroundImageFix"/>
            <feBlend in="SourceGraphic" in2="BackgroundImageFix" result="shape"/>
            <feColorMatrix in="SourceAlpha" result="hardAlpha" values="0 0 0 0 0 0 0 0 0 0 0 0 0 0 0 0 0 0 127 0"/>
            <feOffset dx="-19.569" dy="-8.058"/>
            <feGaussianBlur stdDeviation="13.813"/>
            <feComposite in2="hardAlpha" k2="-1" k3="1" operator="arithmetic"/>
            <feColorMatrix values="0 0 0 0 0.239216 0 0 0 0 0.509804 0 0 0 0 0.941176 0 0 0 0.775419 0"/>
            <feBlend in2="shape" result="effect1_innerShadow"/>
        </filter>
        <filter id="T" width="126.981" height="129.732" x="333.745" y="226.228" color-interpolation-filters="sRGB" filterUnits="userSpaceOnUse">
            <feFlood flood-opacity="0" result="BackgroundImageFix"/>
            <feBlend in="SourceGraphic" in2="BackgroundImageFix" result="shape"/>
            <feColorMatrix in="SourceAlpha" result="hardAlpha" values="0 0 0 0 0 0 0 0 0 0 0 0 0 0 0 0 0 0 127 0"/>
            <feOffset dx="-6.907" dy="2.302"/>
            <feGaussianBlur stdDeviation="6.907"/>
            <feComposite in2="hardAlpha" k2="-1" k3="1" operator="arithmetic"/>
            <feColorMatrix values="0 0 0 0 1 0 0 0 0 1 0 0 0 0 1 0 0 0 0.5 0"/>
            <feBlend in2="shape" result="effect1_innerShadow"/>
        </filter>
        <filter id="ab" width="40.514" height="107.762" x="114.782" y="242.749" color-interpolation-filters="sRGB" filterUnits="userSpaceOnUse">
            <feFlood flood-opacity="0" result="BackgroundImageFix"/>
            <feBlend in="SourceGraphic" in2="BackgroundImageFix" result="shape"/>
            <feColorMatrix in="SourceAlpha" result="hardAlpha" values="0 0 0 0 0 0 0 0 0 0 0 0 0 0 0 0 0 0 127 0"/>
            <feOffset dy="-11.511"/>
            <feGaussianBlur stdDeviation="12.662"/>
            <feComposite in2="hardAlpha" k2="-1" k3="1" operator="arithmetic"/>
            <feColorMatrix values="0 0 0 0 0.221483 0 0 0 0 0.77854 0 0 0 0 0.610041 0 0 0 1 0"/>
            <feBlend in2="shape" result="effect1_innerShadow"/>
        </filter>
        <filter id="ae" width="57.702" height="73.925" x="90.308" y="289.949" color-interpolation-filters="sRGB" filterUnits="userSpaceOnUse">
            <feFlood flood-opacity="0" result="BackgroundImageFix"/>
            <feBlend in="SourceGraphic" in2="BackgroundImageFix" result="shape"/>
            <feColorMatrix in="SourceAlpha" result="hardAlpha" values="0 0 0 0 0 0 0 0 0 0 0 0 0 0 0 0 0 0 127 0"/>
            <feOffset dy="-11.511"/>
            <feGaussianBlur stdDeviation="12.662"/>
            <feComposite in2="hardAlpha" k2="-1" k3="1" operator="arithmetic"/>
            <feColorMatrix values="0 0 0 0 0.221483 0 0 0 0 0.77854 0 0 0 0 0.610041 0 0 0 1 0"/>
            <feBlend in2="shape" result="effect1_innerShadow"/>
        </filter>
        <filter id="ah" width="49.648" height="80.95" x="151.927" y="284.198" color-interpolation-filters="sRGB" filterUnits="userSpaceOnUse">
            <feFlood flood-opacity="0" result="BackgroundImageFix"/>
            <feBlend in="SourceGraphic" in2="BackgroundImageFix" result="shape"/>
            <feColorMatrix in="SourceAlpha" result="hardAlpha" values="0 0 0 0 0 0 0 0 0 0 0 0 0 0 0 0 0 0 127 0"/>
            <feOffset dy="-11.511"/>
            <feGaussianBlur stdDeviation="12.662"/>
            <feComposite in2="hardAlpha" k2="-1" k3="1" operator="arithmetic"/>
            <feColorMatrix values="0 0 0 0 0.221483 0 0 0 0 0.77854 0 0 0 0 0.610041 0 0 0 1 0"/>
            <feBlend in2="shape" result="effect1_innerShadow"/>
        </filter>
        <linearGradient id="a" x1="486.03" x2="486.03" y1="179.995" gradientUnits="userSpaceOnUse">
            <stop stop-color="#ECF2FC" stop-opacity=".642"/>
            <stop offset="1" stop-color="#D4E1F8"/>
        </linearGradient>
        <linearGradient id="b" x1="280.9" x2="301.805" y1="261.847" y2="296.679" gradientUnits="userSpaceOnUse">
            <stop stop-color="#CFDDF3"/>
            <stop offset="1" stop-color="#A1B8E3"/>
        </linearGradient>
        <linearGradient id="c" x1="281.438" x2="293.952" y1="234.567" y2="255.417" gradientUnits="userSpaceOnUse">
            <stop stop-color="#CFDDF3"/>
            <stop offset="1" stop-color="#A1B8E3"/>
        </linearGradient>
        <linearGradient id="d" x1="268.877" x2="359.375" y1="192.97" y2="343.752" gradientUnits="userSpaceOnUse">
            <stop stop-color="#CFDDF3"/>
            <stop offset="1" stop-color="#A1B8E3"/>
        </linearGradient>
        <linearGradient id="e" x1="414.218" x2="416.363" y1="208.661" y2="331.702" gradientUnits="userSpaceOnUse">
            <stop stop-color="#CFDDF3"/>
            <stop offset="1" stop-color="#A1B8E3"/>
        </linearGradient>
        <linearGradient id="f" x1="413.27" x2="389.738" y1="138.331" y2="161.206" gradientUnits="userSpaceOnUse">
            <stop stop-color="#CFDDF3"/>
            <stop offset="1" stop-color="#A1B8E3"/>
        </linearGradient>
        <linearGradient id="g" x1="536.764" x2="527.646" y1="231.102" y2="199.593" gradientUnits="userSpaceOnUse">
            <stop stop-color="#CFDDF3"/>
            <stop offset="1" stop-color="#A1B8E3"/>
        </linearGradient>
        <linearGradient id="h" x1="525.126" x2="517.668" y1="262.806" y2="230.864" gradientUnits="userSpaceOnUse">
            <stop stop-color="#CFDDF3"/>
            <stop offset="1" stop-color="#A1B8E3"/>
        </linearGradient>
        <linearGradient id="i" x1="516.236" x2="508.778" y1="290.18" y2="258.238" gradientUnits="userSpaceOnUse">
            <stop stop-color="#CFDDF3"/>
            <stop offset="1" stop-color="#A1B8E3"/>
        </linearGradient>
        <linearGradient id="j" x1="514.677" x2="483.613" y1="139.298" y2="128.718" gradientUnits="userSpaceOnUse">
            <stop stop-color="#CFDDF3"/>
            <stop offset="1" stop-color="#A1B8E3"/>
        </linearGradient>
        <linearGradient id="k" x1="386.802" x2="368.069" y1="173.605" y2="200.543" gradientUnits="userSpaceOnUse">
            <stop stop-color="#CFDDF3"/>
            <stop offset="1" stop-color="#A1B8E3"/>
        </linearGradient>
        <linearGradient id="l" x1="369.945" x2="354.151" y1="207.411" y2="236.157" gradientUnits="userSpaceOnUse">
            <stop stop-color="#CFDDF3"/>
            <stop offset="1" stop-color="#A1B8E3"/>
        </linearGradient>
        <linearGradient id="m" x1="295.098" x2="197.791" y1="-36.746" y2="87.765" gradientUnits="userSpaceOnUse">
            <stop stop-color="#D2E0F9" stop-opacity=".01"/>
            <stop offset="1" stop-color="#B1C6E7" stop-opacity=".465"/>
        </linearGradient>
        <linearGradient id="n" x1="286.174" x2="209.424" y1="9.411" y2="107.619" gradientUnits="userSpaceOnUse">
            <stop stop-color="#D2E0F9" stop-opacity=".01"/>
            <stop offset="1" stop-color="#B1C6E7" stop-opacity=".465"/>
        </linearGradient>
        <linearGradient id="o" x1="479.907" x2="382.6" y1="10.062" y2="134.573" gradientUnits="userSpaceOnUse">
            <stop stop-color="#D2E0F9" stop-opacity=".01"/>
            <stop offset="1" stop-color="#B1C6E7" stop-opacity=".465"/>
        </linearGradient>
        <linearGradient id="p" x1="470.983" x2="394.232" y1="56.219" y2="154.427" gradientUnits="userSpaceOnUse">
            <stop stop-color="#D2E0F9" stop-opacity=".01"/>
            <stop offset="1" stop-color="#B1C6E7" stop-opacity=".465"/>
        </linearGradient>
        <linearGradient id="q" x1="545.039" x2="612.314" y1="273.97" y2="253.901" gradientUnits="userSpaceOnUse">
            <stop stop-color="#7FA0D4"/>
            <stop offset="1" stop-color="#D6E3FA"/>
        </linearGradient>
        <linearGradient id="r" x1="482.821" x2="482.821" y1="169.064" y2="266.888" gradientUnits="userSpaceOnUse">
            <stop stop-color="#4376C9"/>
            <stop offset="1" stop-color="#D6E3FA"/>
        </linearGradient>
        <linearGradient id="t" x1="488.612" x2="488.612" y1="132.775" y2="204.302" gradientUnits="userSpaceOnUse">
            <stop stop-color="#4376C9"/>
            <stop offset="1" stop-color="#D6E3FA"/>
        </linearGradient>
        <linearGradient id="u" x1="482.017" x2="495.685" y1="106.278" y2="153.511" gradientUnits="userSpaceOnUse">
            <stop stop-color="#2D6DC0"/>
            <stop offset="1" stop-color="#143B8C"/>
        </linearGradient>
        <linearGradient id="v" x1="467.653" x2="488.343" y1="185.8" y2="220.618" gradientUnits="userSpaceOnUse">
            <stop stop-color="#2D6DC0"/>
            <stop offset="1" stop-color="#143B8C"/>
        </linearGradient>
        <linearGradient id="x" x1="478.161" x2="470.526" y1="276.798" y2="304.858" gradientUnits="userSpaceOnUse">
            <stop stop-color="#2E7DE7" stop-opacity=".01"/>
            <stop offset="1" stop-color="#00357E" stop-opacity=".5"/>
        </linearGradient>
        <linearGradient id="z" x1="549.918" x2="549.918" y1="227.395" y2="197.236" gradientUnits="userSpaceOnUse">
            <stop stop-color="#70B8F9" stop-opacity=".276"/>
            <stop offset="1" stop-color="#3D82F0"/>
        </linearGradient>
        <linearGradient id="A" x1="517.277" x2="548.807" y1="304.814" y2="321.066" gradientUnits="userSpaceOnUse">
            <stop stop-color="#3D82F0" stop-opacity=".01"/>
            <stop offset="1" stop-color="#3D82F0"/>
        </linearGradient>
        <linearGradient id="B" x1="442.549" x2="480.073" y1="283.95" y2="301.204" gradientUnits="userSpaceOnUse">
            <stop stop-color="#3D82F0" stop-opacity=".01"/>
            <stop offset="1" stop-color="#3D82F0"/>
        </linearGradient>
        <linearGradient id="C" x1="163.831" x2="110.79" y1="205.917" y2="195.163" gradientUnits="userSpaceOnUse">
            <stop stop-color="#7FA0D4"/>
            <stop offset="1" stop-color="#D6E3FA"/>
        </linearGradient>
        <linearGradient id="D" x1="268.43" x2="315.298" y1="304.624" y2="278.211" gradientUnits="userSpaceOnUse">
            <stop stop-color="#002D65"/>
            <stop offset=".878" stop-color="#3A74C6"/>
            <stop offset="1" stop-color="#3062AA"/>
        </linearGradient>
        <radialGradient id="E" cx="0" cy="0" r="1" gradientTransform="rotate(-173.258 131.26 111.53) scale(59.537 85.9089)" gradientUnits="userSpaceOnUse">
            <stop stop-color="#2D6DC0"/>
            <stop offset="1" stop-color="#143B8C"/>
        </radialGradient>
        <linearGradient id="F" x1="-10.513" x2="439.203" y1="326.933" y2="332.436" gradientUnits="userSpaceOnUse">
            <stop stop-color="#fff"/>
            <stop offset="1" stop-color="#EAF0FD"/>
        </linearGradient>
        <linearGradient id="G" x1="279.164" x2="277.202" y1="308.344" y2="357.433" gradientUnits="userSpaceOnUse">
            <stop stop-color="#0041B2"/>
            <stop offset="1" stop-color="#2D64D7" stop-opacity=".01"/>
        </linearGradient>
        <linearGradient id="H" x1="175.858" x2="175.858" y1="148.553" y2="191.154" gradientUnits="userSpaceOnUse">
            <stop stop-color="#4376C9"/>
            <stop offset="1" stop-color="#D6E3FA"/>
        </linearGradient>
        <linearGradient id="J" x1="167.96" x2="167.96" y1="104.901" y2="174.324" gradientUnits="userSpaceOnUse">
            <stop stop-color="#4376C9"/>
            <stop offset="1" stop-color="#D6E3FA"/>
        </linearGradient>
        <linearGradient id="K" x1="398.067" x2="348.396" y1="297.964" y2="227.874" gradientUnits="userSpaceOnUse">
            <stop stop-color="#367ED7"/>
            <stop offset="1" stop-color="#153D8E"/>
        </linearGradient>
        <linearGradient id="M" x1="206.53" x2="176.584" y1="262.374" y2="285.232" gradientUnits="userSpaceOnUse">
            <stop stop-color="#3D82F0"/>
            <stop offset="1" stop-color="#143B8C"/>
        </linearGradient>
        <linearGradient id="N" x1="248.533" x2="123.846" y1="84.764" y2="86.886" gradientUnits="userSpaceOnUse">
            <stop stop-color="#70B8F9"/>
            <stop offset="1" stop-color="#0457DC"/>
        </linearGradient>
        <linearGradient id="O" x1="181.718" x2="119.258" y1="176.54" y2="195.293" gradientUnits="userSpaceOnUse">
            <stop stop-color="#3D82F0" stop-opacity=".01"/>
            <stop offset="1" stop-color="#0049BD"/>
        </linearGradient>
        <linearGradient id="P" x1="240.062" x2="240.062" y1="354.719" y2="406.292" gradientUnits="userSpaceOnUse">
            <stop stop-color="#B2C7E8"/>
            <stop offset="1" stop-color="#D6E3FA"/>
        </linearGradient>
        <linearGradient id="Q" x1="281.657" x2="281.657" y1="343.148" y2="384.561" gradientUnits="userSpaceOnUse">
            <stop stop-color="#C6D6EE"/>
            <stop offset="1" stop-color="#E5EFFD"/>
        </linearGradient>
        <linearGradient id="S" x1="427.386" x2="471.055" y1="312.753" y2="312.753" gradientUnits="userSpaceOnUse">
            <stop stop-color="#002B64"/>
            <stop offset="1" stop-color="#0F3177"/>
        </linearGradient>
        <linearGradient id="U" x1="414.031" x2="329.953" y1="217.424" y2="272.282" gradientUnits="userSpaceOnUse">
            <stop stop-color="#DBE9FF"/>
            <stop offset=".441" stop-color="#A7BDE4"/>
            <stop offset="1" stop-color="#5876AF"/>
        </linearGradient>
        <linearGradient id="V" x1="414.985" x2="409.091" y1="317.495" y2="331.356" gradientUnits="userSpaceOnUse">
            <stop stop-color="#869FCE" stop-opacity=".01"/>
            <stop offset="1" stop-color="#4975C1"/>
        </linearGradient>
        <linearGradient id="W" x1="175.332" x2="110.57" y1="387.853" y2="387.853" gradientUnits="userSpaceOnUse">
            <stop stop-color="#D9E5F6" stop-opacity=".713"/>
            <stop offset="1" stop-color="#B2C6EA"/>
        </linearGradient>
        <linearGradient id="X" x1="176.629" x2="187.207" y1="419.898" y2="379.441" gradientUnits="userSpaceOnUse">
            <stop stop-color="#ACC5E9"/>
            <stop offset=".627" stop-color="#D3E3FB"/>
            <stop offset="1" stop-color="#EAF2FF"/>
        </linearGradient>
        <linearGradient id="Z" x1="118.471" x2="116.792" y1="344.642" y2="371.583" gradientUnits="userSpaceOnUse">
            <stop stop-color="#86A8D9"/>
            <stop offset="1" stop-color="#BCD0F2"/>
        </linearGradient>
        <linearGradient id="ac" x1="107.909" x2="164.432" y1="280.374" y2="339.624" gradientUnits="userSpaceOnUse">
            <stop stop-color="#B1FFBE"/>
            <stop offset=".444" stop-color="#5CDB8E"/>
            <stop offset="1" stop-color="#149654"/>
        </linearGradient>
        <linearGradient id="af" x1="107.085" x2="115.204" y1="298.352" y2="361.163" gradientUnits="userSpaceOnUse">
            <stop stop-color="#B1FFBE"/>
            <stop offset=".444" stop-color="#5CDB8E"/>
            <stop offset="1" stop-color="#149654"/>
        </linearGradient>
        <linearGradient id="ai" x1="143.154" x2="180.361" y1="314.093" y2="372.554" gradientUnits="userSpaceOnUse">
            <stop stop-color="#B1FFBE"/>
            <stop offset=".444" stop-color="#5CDB8E"/>
            <stop offset="1" stop-color="#149654"/>
        </linearGradient>
    </defs>
</svg>
