<svg xmlns="http://www.w3.org/2000/svg" width="727" height="421" fill="none" viewBox="0 0 727 421">
    <path fill="url(#a)" d="M0 297.025h726.377V421H0z"/>
    <path fill="url(#b)" fill-rule="evenodd" d="M499.465 54.784c-46.05-51.007-141.776-69.908-240.141-41.642C136.895 48.324 56.742 143.254 80.297 225.173c20.227 70.345 110.348 108.222 212.931 95.246 46.202 38.26 125.359 51.137 206.09 27.938 111.821-32.133 184.317-121.311 161.925-199.183-16.848-58.593-82.614-94.09-161.778-94.39z" clip-rule="evenodd" opacity=".118"/>
    <path fill="url(#c)" fill-rule="evenodd" d="M568.475 100.662h26.6a3.167 3.167 0 0 1 3.167 3.168l-9.5 34.85a3.167 3.167 0 0 1-3.167 3.168h-26.601a3.166 3.166 0 0 1-3.166-3.168l9.5-34.85a3.167 3.167 0 0 1 3.167-3.168z" clip-rule="evenodd"/>
    <path fill="url(#d)" fill-rule="evenodd" d="M608.643 115.638h34.946a4.16 4.16 0 0 1 4.16 4.161l-12.481 45.762a4.16 4.16 0 0 1-4.16 4.161h-34.946a4.16 4.16 0 0 1-4.16-4.161l12.48-45.762a4.161 4.161 0 0 1 4.161-4.161z" clip-rule="evenodd"/>
    <path fill="url(#e)" fill-rule="evenodd" d="M574.945 151.833h34.946a4.16 4.16 0 0 1 4.16 4.16l-12.481 45.762a4.16 4.16 0 0 1-4.16 4.161h-34.946a4.16 4.16 0 0 1-4.16-4.161l12.481-45.762a4.16 4.16 0 0 1 4.16-4.16z" clip-rule="evenodd"/>
    <g opacity=".2">
        <path fill="#8CA4D4" fill-rule="evenodd" d="M594.082 249.562h8.736v113.23h-8.736v-113.23z" clip-rule="evenodd"/>
        <path fill="#8CA4D4" fill-rule="evenodd" d="M564.96 362.756h66.98v8.737h-66.98v-8.737zM540.415 240.861h116.486v8.737H540.415v-8.737z" clip-rule="evenodd"/>
        <mask id="f" width="117" height="10" x="540" y="240" maskUnits="userSpaceOnUse">
            <path fill="#fff" fill-rule="evenodd" d="M540.415 240.861h116.486v8.737H540.415v-8.737z" clip-rule="evenodd"/>
        </mask>
    </g>
    <path fill="#123584" fill-rule="evenodd" d="M574.945 240.861l12.225-60.323 70.564 1.248-12.065 59.075h-70.724z" clip-rule="evenodd"/>
    <path fill="#123584" fill-rule="evenodd" d="M540.415 237.47h109.82v3.807H543.743l-3.328-3.807z" clip-rule="evenodd"/>
    <path fill="url(#g)" fill-rule="evenodd" d="M579.105 241.277l12.226-60.739 70.563 1.248-11.649 59.491h-71.14z" clip-rule="evenodd"/>
    <mask id="h" width="83" height="62" x="579" y="180" maskUnits="userSpaceOnUse">
        <path fill="#fff" fill-rule="evenodd" d="M579.105 241.277l12.226-60.739 70.563 1.248-11.649 59.491h-71.14z" clip-rule="evenodd"/>
    </mask>
    <g mask="url(#h)">
        <path fill="#A1B8E3" fill-rule="evenodd" d="M621.123 205.083c3.447 0 6.241 2.328 6.241 5.2 0 2.872-2.794 5.201-6.241 5.201-3.446 0-6.24-2.329-6.24-5.201 0-2.872 2.794-5.2 6.24-5.2z" clip-rule="evenodd"/>
    </g>
    <g opacity=".5">
        <path fill="#000" fill-opacity=".01" fill-rule="evenodd" d="M84.869 76.116c-101.736 106.877 47.768 258.051 138.484 144.49C376.17 29.304 506.301 173.05 506.301 173.05" clip-rule="evenodd"/>
        <path stroke="#8CA4D4" stroke-dasharray="4.95 19.79" stroke-linecap="round" stroke-width="4.948" d="M84.869 76.116c-101.736 106.877 47.768 258.051 138.484 144.49C376.17 29.304 506.301 173.05 506.301 173.05"/>
    </g>
    <path fill="url(#i)" fill-rule="evenodd" d="M498.401 191.368l8.667-11.321 28.091 17.578-21.517-24.728 10.46-9.832 26.297 46.179-51.998-17.876z" clip-rule="evenodd"/>
    <path fill="#E1A846" fill-rule="evenodd" d="M506.769 180.345l6.574-.894 23.011 19.067-29.585-18.173z" clip-rule="evenodd"/>
    <path fill="#E6B052" fill-rule="evenodd" d="M513.044 179.451l.897-6.554 21.815 25.026-22.712-18.472z" clip-rule="evenodd"/>
    <path fill="url(#j)" fill-rule="evenodd" d="M237.758 373.989c47.446 0 85.908-7.73 85.908-17.265s-38.462-17.265-85.908-17.265c-47.447 0-85.909 7.73-85.909 17.265s38.462 17.265 85.909 17.265z" clip-rule="evenodd"/>
    <path fill="url(#k)" fill-rule="evenodd" d="M178.299 346.024c52.647 25.256 129.945 21.92 164.619-46.617 22.908-44.099-25.967-96.904-79.653-133.622-48.184-32.955-91.041-40.428-116.187-21.875-2.872 2.118-7.976 1.702-10.295 4.584-63.825 72.854-11.131 172.275 41.516 197.53z" clip-rule="evenodd"/>
    <path fill="url(#l)" fill-rule="evenodd" d="M210.819 282.924c56.301 35.18 114.447 39.025 133.998 7.737 18.14-33.803-25.868-94.938-82.169-130.119-56.301-35.18-105.355-40.757-124.906-9.469-19.551 31.288 16.776 96.67 73.077 131.851z" clip-rule="evenodd"/>
    <path fill="#94B0D7" fill-rule="evenodd" d="M223.542 258.243c25.244 15.783 51.315 17.508 60.082 3.471 8.133-15.165-11.599-42.592-36.843-58.376-25.244-15.783-47.238-18.285-56.005-4.248-8.766 14.037 7.523 43.37 32.766 59.153z" clip-rule="evenodd" filter="url(#m)"/>
    <path fill="url(#n)" fill-rule="evenodd" d="M385.752 361.158c-.823-3.751-2.06-6.541-.823-11.605 1.238-5.064 15.48-7.933 17.276-6.312 1.797 1.622 1.505 2.49 8.623 6.271 7.118 3.78 27.52 8.177 31.887 13.081 4.368 4.903 5.18 8.146-3.896 8.146h-28.074c-5.039-1.826-6.734-2.81-9.558-4.501-.576 2.119 0 3.923 0 3.923h-12.091s-2.521-5.252-3.344-9.003z" clip-rule="evenodd"/>
    <mask id="o" width="62" height="29" x="384" y="342" maskUnits="userSpaceOnUse">
        <path fill="#fff" fill-rule="evenodd" d="M385.752 361.158c-.823-3.751-2.06-6.541-.823-11.605 1.238-5.064 15.48-7.933 17.276-6.312 1.797 1.622 1.505 2.49 8.623 6.271 7.118 3.78 27.52 8.177 31.887 13.081 4.368 4.903 5.18 8.146-3.896 8.146h-28.074c-5.039-1.826-6.734-2.81-9.558-4.501-.576 2.119 0 3.923 0 3.923h-12.091s-2.521-5.252-3.344-9.003z" clip-rule="evenodd"/>
    </mask>
    <g mask="url(#o)">
        <path fill="#3D82F0" fill-rule="evenodd" d="M385.783 367.318c2.604-6.711 12.756-19.232 15.698-23.307 2.941-4.075-19.491 4.802-19.491 4.802s1.188 25.216 3.793 18.505z" clip-rule="evenodd" opacity=".2" style="mix-blend-mode:multiply"/>
    </g>
    <path fill="url(#p)" fill-rule="evenodd" d="M409.421 259.249c-2.679-2.529-5.169-4.074-6.921-8.753-1.751-4.68 8.006-14.631 10.309-14.314 2.302.316 2.539 1.162 10.232.321s21.454-10.198 27.569-8.665c6.116 1.532 11.606 1.563 4.4 6.455-3.387 2.3-16.501 16.314-20.571 19.077-4.987 1.269-6.864 1.403-10.02 1.585.687 1.99 2.119 3.109 2.119 3.109l-9.6 6.517s-4.838-2.803-7.517-5.332z" clip-rule="evenodd"/>
    <mask id="q" width="57" height="38" x="402" y="227" maskUnits="userSpaceOnUse">
        <path fill="#fff" fill-rule="evenodd" d="M409.421 259.249c-2.679-2.529-5.169-4.074-6.921-8.753-1.751-4.68 8.006-14.631 10.309-14.314 2.302.316 2.539 1.162 10.232.321s21.454-10.198 27.569-8.665c6.116 1.532 11.606 1.563 4.4 6.455-3.387 2.3-16.501 16.314-20.571 19.077-4.987 1.269-6.864 1.403-10.02 1.585.687 1.99 2.119 3.109 2.119 3.109l-9.6 6.517s-4.838-2.803-7.517-5.332z" clip-rule="evenodd"/>
    </mask>
    <g mask="url(#q)">
        <path fill="#617FC8" fill-rule="evenodd" d="M413.385 263.593c-4.031-8.35.121-27.189-1.718-28.858-1.838-1.668-10.828 13.482-10.828 13.482s-4.276 4.242 2.595 10.583c6.871 6.342 13.981 13.143 9.951 4.793z" clip-rule="evenodd" opacity=".2" style="mix-blend-mode:multiply"/>
    </g>
    <path fill="url(#s)" fill-rule="evenodd" d="M235.14 166.612c18.697-9.956 29.351-39.019 37.073-47.191 7.723-8.172 11.133 7.463 9.856 12.066-1.277 4.603-10.688 35.541-30.332 60.527 0 16.323-19.012-12.305-16.597-25.402z" clip-rule="evenodd" filter="url(#r)"/>
    <path fill="url(#t)" fill-rule="evenodd" d="M227.142 133.635s44.317-17.527 50.308-16.368c5.991 1.159-11.915 21.582-15.578 23.23-3.664 1.648-8.643 5.668-14.153 5.811-5.51.144-18.176 2.872-18.176 2.872l-2.401-15.545z" clip-rule="evenodd"/>
    <path fill="#C68B5E" fill-opacity=".67" fill-rule="evenodd" d="M227.142 133.635s44.317-17.527 50.308-16.368c5.991 1.159-11.915 21.582-15.578 23.23-3.664 1.648-8.643 5.668-14.153 5.811-5.51.144-18.176 2.872-18.176 2.872l-2.401-15.545z" clip-rule="evenodd"/>
    <path fill="url(#v)" fill-rule="evenodd" d="M238.084 264.994c5.446-7.347 18.778-22.671 47.477-28.253 28.699-5.583 55.058-10.795 103.439 3.597 3.983 46.713 8.522 93.745 13.103 103.27-3.494 4.251-16.116 7.5-23.521 7.5-2.687-10.517-11.105-35.855-15.381-48.387-4.277-12.533-5.793-28.09-4.967-33.576-14.58 4.142-44.446 16.733-54.917 20.463-10.471 3.729-46.397 15.554-58.289 6.034-11.892-9.519-12.389-23.302-6.944-30.648z" clip-rule="evenodd" filter="url(#u)"/>
    <mask id="w" width="169" height="121" x="234" y="231" maskUnits="userSpaceOnUse">
        <path fill="#fff" fill-rule="evenodd" d="M238.084 264.994c5.446-7.347 18.778-22.671 47.477-28.253 28.699-5.583 55.058-10.795 103.439 3.597 3.983 46.713 8.522 93.745 13.103 103.27-3.494 4.251-16.116 7.5-23.521 7.5-2.687-10.517-11.105-35.855-15.381-48.387-4.277-12.533-5.793-28.09-4.967-33.576-14.58 4.142-44.446 16.733-54.917 20.463-10.471 3.729-46.397 15.554-58.289 6.034-11.892-9.519-12.389-23.302-6.944-30.648z" clip-rule="evenodd"/>
    </mask>
    <g mask="url(#w)">
        <path fill="url(#x)" fill-rule="evenodd" d="M337.007 277.669c0-6.51 16.484-40.867 20.898-44.54 4.414-3.673-8.695-3.127-8.695-3.127s-29.862 30.995-33.783 47.667c-3.922 16.672 21.58 6.51 21.58 0z" clip-rule="evenodd" opacity=".3" style="mix-blend-mode:multiply"/>
    </g>
    <path fill="url(#y)" fill-rule="evenodd" d="M202.163 170.619c-1.443-7.239-4.228-19.929-4.784-22.641-.555-2.711 26.376 6.655 26.376 6.655l3.386 17.751 3.877 30.02s-27.411-24.545-28.855-31.785z" clip-rule="evenodd"/>
    <path fill="#C68B5E" fill-opacity=".67" fill-rule="evenodd" d="M202.163 170.619c-1.443-7.239-4.228-19.929-4.784-22.641-.555-2.711 26.376 6.655 26.376 6.655l3.386 17.751 3.877 30.02s-27.411-24.545-28.855-31.785z" clip-rule="evenodd"/>
    <path fill="url(#z)" fill-rule="evenodd" d="M198.849 148.733c0 2.725 10.22 14.38 15.741 17.575 5.521 3.195 10.478 2.607 10.478 2.607V153.97l-26.219-7.955v2.718z" clip-rule="evenodd"/>
    <path fill="#C68B5E" fill-opacity=".67" fill-rule="evenodd" d="M198.849 148.733c0 2.725 10.22 14.38 15.741 17.575 5.521 3.195 10.478 2.607 10.478 2.607V153.97l-26.219-7.955v2.718z" clip-rule="evenodd"/>
    <path fill="#fff" fill-rule="evenodd" d="M225.647 164.437s10.226 1.664 10.931 2.944c6.649 4.83 13.047 19.204 15.779 26.651 2.732 7.447 7.97 15.138 12.692 21.117 4.723 5.98 6.988 7.213 13.175 11.637s8.46 7.934 4.958 11.233c-3.501 3.298-23.665 2.017-38.019 19.951-12.539 5.141-12.524 7.021-16.25-4.087-3.725-11.108-34.36-38.881-39.329-42.796-4.969-3.914-3.05-7.676-4.302-19.666-1.252-11.991-10.287-21.713-2.688-21.713 5.988 2.229 11.822-2.327 14.455-2.327 9.593 2.388 11.777 11.829 15.76 9.849 3.982-1.979 6.532-1.979 6.532-1.979.929 1.885 1.228 5.114 2.157 6.999.929 1.885 4.817 5.666 6.545 9.171l-3.054-10.2.852-6.098-.194-10.686z" clip-rule="evenodd"/>
    <path fill="url(#A)" fill-rule="evenodd" d="M225.647 164.437s10.226 1.664 10.931 2.944c6.649 4.83 13.047 19.204 15.779 26.651 2.732 7.447 7.97 15.138 12.692 21.117 4.723 5.98 6.988 7.213 13.175 11.637s8.46 7.934 4.958 11.233c-3.501 3.298-23.665 2.017-38.019 19.951-12.539 5.141-12.524 7.021-16.25-4.087-3.725-11.108-34.36-38.881-39.329-42.796-4.969-3.914-3.05-7.676-4.302-19.666-1.252-11.991-10.287-21.713-2.688-21.713 5.988 2.229 11.822-2.327 14.455-2.327 9.593 2.388 11.777 11.829 15.76 9.849 3.982-1.979 6.532-1.979 6.532-1.979.929 1.885 1.228 5.114 2.157 6.999.929 1.885 4.817 5.666 6.545 9.171l-3.054-10.2.852-6.098-.194-10.686z" clip-rule="evenodd"/>
    <mask id="B" width="106" height="99" x="179" y="164" maskUnits="userSpaceOnUse">
        <path fill="#fff" fill-rule="evenodd" d="M225.647 164.437s10.226 1.664 10.931 2.944c6.649 4.83 13.047 19.204 15.779 26.651 2.732 7.447 7.97 15.138 12.692 21.117 4.723 5.98 6.988 7.213 13.175 11.637s8.46 7.934 4.958 11.233c-3.501 3.298-23.665 2.017-38.019 19.951-12.539 5.141-12.524 7.021-16.25-4.087-3.725-11.108-34.36-38.881-39.329-42.796-4.969-3.914-3.05-7.676-4.302-19.666-1.252-11.991-10.287-21.713-2.688-21.713 5.988 2.229 11.822-2.327 14.455-2.327 9.593 2.388 11.777 11.829 15.76 9.849 3.982-1.979 6.532-1.979 6.532-1.979.929 1.885 1.228 5.114 2.157 6.999.929 1.885 4.817 5.666 6.545 9.171l-3.054-10.2.852-6.098-.194-10.686z" clip-rule="evenodd"/>
        <path fill-rule="evenodd" stroke="#fff" d="M225.647 164.437s10.226 1.664 10.931 2.944c6.649 4.83 13.047 19.204 15.779 26.651 2.732 7.447 7.97 15.138 12.692 21.117 4.723 5.98 6.988 7.213 13.175 11.637s8.46 7.934 4.958 11.233c-3.501 3.298-23.665 2.017-38.019 19.951-12.539 5.141-12.524 7.021-16.25-4.087-3.725-11.108-34.36-38.881-39.329-42.796-4.969-3.914-3.05-7.676-4.302-19.666-1.252-11.991-10.287-21.713-2.688-21.713 5.988 2.229 11.822-2.327 14.455-2.327 9.593 2.388 11.777 11.829 15.76 9.849 3.982-1.979 6.532-1.979 6.532-1.979.929 1.885 1.228 5.114 2.157 6.999.929 1.885 4.817 5.666 6.545 9.171l-3.054-10.2.852-6.098-.194-10.686z" clip-rule="evenodd"/>
    </mask>
    <g mask="url(#B)">
        <g opacity=".6">
            <mask id="C" width="53" height="54" x="221.901" y="189.107" fill="#000" maskUnits="userSpaceOnUse">
                <path fill="#fff" d="M221.901 189.107h53v54h-53z"/>
                <path fill-rule="evenodd" d="M226.317 191.355c.903 1.811 10.795 19.141 12.897 21.633 2.101 2.492 8.991 9.436 11.648 12.065 2.657 2.628 18.944 12.979 19.137 16.225" clip-rule="evenodd"/>
            </mask>
            <path fill="#000" fill-opacity=".01" fill-rule="evenodd" d="M226.317 191.355c.903 1.811 10.795 19.141 12.897 21.633 2.101 2.492 8.991 9.436 11.648 12.065 2.657 2.628 18.944 12.979 19.137 16.225" clip-rule="evenodd"/>
            <path fill="#D9E8FF" d="M239.214 212.988l-3.026 2.552 3.026-2.552zm11.648 12.065l2.784-2.814-2.784 2.814zm-28.088-31.932c.524 1.05 3.3 5.964 6.125 10.794a353.842 353.842 0 0 0 4.172 6.976c1.186 1.922 2.362 3.755 3.117 4.649l6.051-5.104c-.296-.351-1.145-1.619-2.432-3.704a350.754 350.754 0 0 1-4.074-6.814c-2.872-4.911-5.494-9.568-5.874-10.33l-7.085 3.533zm13.414 22.419c2.243 2.66 9.281 9.746 11.89 12.327l5.568-5.628c-2.705-2.677-9.446-9.479-11.407-11.803l-6.051 5.104zm11.89 12.327c.926.916 2.739 2.259 4.533 3.57 1.945 1.421 4.18 3.022 6.368 4.663 2.194 1.646 4.199 3.229 5.642 4.556.729.67 1.214 1.186 1.493 1.542.421.537-.012.217-.066-.685l7.903-.471c-.102-1.713-1.087-3.066-1.604-3.727-.66-.841-1.499-1.687-2.366-2.485-1.748-1.609-4.017-3.386-6.251-5.062-2.24-1.681-4.586-3.363-6.449-4.724-2.012-1.47-3.232-2.407-3.635-2.805l-5.568 5.628z" mask="url(#C)"/>
        </g>
        <path fill="#CCDFFD" fill-rule="evenodd" d="M213.796 188.103s4.541-8.258 7.185-8.258c2.644 0-.926-8.029-.926-8.029l-8.245 6.234 1.986 10.053z" clip-rule="evenodd" opacity=".3"/>
    </g>
    <path fill="url(#D)" fill-rule="evenodd" d="M282.034 233.479c15.07-13.833 58.208-40.606 82.808-44.695 14.092 2.344 50.766 42.093 50.766 42.093-1.654 1.743-6.013 17.193-12.897 22.049-17.339-14.393-35.416-21.113-40.27-28.555-6.054 3.686-21.618 14.449-30.57 30.263-8.952 15.813-14.891 33.829-25.092 34.28-10.202.451-24.589 1.616-37.842-6.911-7.697-4.953-29.856-15.991-19.091-23.224 6.17-4.145 25.87-19.5 32.188-25.3z" clip-rule="evenodd"/>
    <path fill="url(#E)" fill-rule="evenodd" d="M223.289 118.027c1.021 2.576 6.621 13.882 7.161 16.7.539 2.818 5.869 21.616 2.694 24.511-3.175 2.895-12.695 4.361-15.356 3.434-2.66-.927-8.38-1.521-10.608-5.431-1.713-3.005-7.153-9.981-8.579-9.581-.522 1.071-2.339 2.216-3.249 1.48-3.931-3.177-7.301-6.619-5.701-14.413 1.599-7.794 7.208-11.64 13.221-14.17 6.013-2.53 19.396-5.106 20.417-2.53z" clip-rule="evenodd"/>
    <path fill="#C68B5E" fill-opacity=".67" fill-rule="evenodd" d="M223.289 118.027c1.021 2.576 6.621 13.882 7.161 16.7.539 2.818 5.869 21.616 2.694 24.511-3.175 2.895-12.695 4.361-15.356 3.434-2.66-.927-8.38-1.521-10.608-5.431-1.713-3.005-7.153-9.981-8.579-9.581-.522 1.071-2.339 2.216-3.249 1.48-3.931-3.177-7.301-6.619-5.701-14.413 1.599-7.794 7.208-11.64 13.221-14.17 6.013-2.53 19.396-5.106 20.417-2.53z" clip-rule="evenodd"/>
    <path fill="url(#F)" fill-rule="evenodd" d="M154.55 161.264c7.284 2.949 30.875-8.791 38.361-7.748 6.881.958-1.85-9.803-4.435-11.708-2.584-1.904-54.255-1.041-56.967 2.934-2.712 3.974 17 14.076 23.041 16.522z" clip-rule="evenodd"/>
    <path fill="#C68B5E" fill-opacity=".67" fill-rule="evenodd" d="M154.55 161.264c7.284 2.949 30.875-8.791 38.361-7.748 6.881.958-1.85-9.803-4.435-11.708-2.584-1.904-54.255-1.041-56.967 2.934-2.712 3.974 17 14.076 23.041 16.522z" clip-rule="evenodd"/>
    <mask id="G" width="65" height="22" x="131" y="140" maskUnits="userSpaceOnUse">
        <path fill="#fff" fill-rule="evenodd" d="M154.55 161.264c7.284 2.949 30.875-8.791 38.361-7.748 6.881.958-1.85-9.803-4.435-11.708-2.584-1.904-54.255-1.041-56.967 2.934-2.712 3.974 17 14.076 23.041 16.522z" clip-rule="evenodd"/>
        <path fill-rule="evenodd" stroke="#fff" d="M154.55 161.264c7.284 2.949 30.875-8.791 38.361-7.748 6.881.958-1.85-9.803-4.435-11.708-2.584-1.904-54.255-1.041-56.967 2.934-2.712 3.974 17 14.076 23.041 16.522z" clip-rule="evenodd"/>
    </mask>
    <g fill-rule="evenodd" clip-rule="evenodd" mask="url(#G)">
        <path fill="url(#H)" d="M140.207 145.112c1.532.558 32.6 14.096 40.287 12.221 7.686-1.875-19.155 7.089-19.155 7.089s-22.663-19.867-21.132-19.31z"/>
        <path fill="#C68B5E" fill-opacity=".67" d="M140.207 145.112c1.532.558 32.6 14.096 40.287 12.221 7.686-1.875-19.155 7.089-19.155 7.089s-22.663-19.867-21.132-19.31z"/>
    </g>
    <path fill="url(#J)" fill-rule="evenodd" d="M201.747 134.769s-3.516-5.342-.798-10.64c2.718-5.298 17.066 1.768 28.686-11.295 11.62-13.063 1.295-30.691-10.651-27.253-11.946 3.438-9.017 9.596-6.851 14.19 2.166 4.594-8.977 6.32-16.945 9.553-7.968 3.234-14.472 11.936-13.068 25.445 1.404 13.51 13.937 24.571 17.926 26.606-1.16-7.983-1.212-11.651-1.212-13.875-4.575 2.114-9.904-8.37-6.802-11.128 5.928-5.269 8.917 6.732 8.917 6.732s.798-1.709 2.207-3.328c-.537-2.89-1.409-5.007-1.409-5.007z" clip-rule="evenodd" filter="url(#I)"/>
    <path fill="#CCDFFD" fill-rule="evenodd" d="M225.896 174.837c3.638 1.292 4.335 8.012 4.959 9.907.625 1.895-2.622-14.853-2.622-14.853-1.142 1.576-3.586-9.12-3.126-7.551 1.235 4.218.2 8.995.789 12.497z" clip-rule="evenodd"/>
    <path fill="url(#K)" fill-rule="evenodd" d="M214.026 191.768c0-5.953 2.366-13.757 5.287-16.542-4.236.262-16.699-7.185-18.029-11.335-1.33-4.151-1.578-4.744-1.578-4.744s-2.565 4.964-2.565 8.113c1.815 6.83 9.914 18.688 16.885 24.508z" clip-rule="evenodd"/>
    <path fill="url(#M)" fill-rule="evenodd" d="M177.609 168.073c-12.304-6.764-36.883-25.993-43.343-24.424-6.461 1.57-4.784 4.485-4.784 11.173s33.762 29.271 38.961 40.446c2.225 4.784 7.926 16.6 18.132 14.675 10.205-1.926 7.109-12.066 4.909-20.245-2.585-9.614-6.298-17.46-13.875-21.625z" clip-rule="evenodd" filter="url(#L)"/>
    <path fill="#000" fill-opacity=".01" fill-rule="evenodd" d="M210.692 135.011c2.153.573 4.845.154 6.284-1.417l-6.284 1.417z" clip-rule="evenodd"/>
    <path stroke="#143B8C" stroke-linecap="round" stroke-width="2.969" d="M210.692 135.011c2.153.573 4.845.154 6.284-1.417"/>
    <path fill="#000" fill-opacity=".01" fill-rule="evenodd" d="M227.969 130.435c1.86.573 4.185.153 5.428-1.417l-5.428 1.417z" clip-rule="evenodd"/>
    <path stroke="#143B8C" stroke-linecap="round" stroke-width="2.969" d="M227.969 130.435c1.86.573 4.185.153 5.428-1.417"/>
    <path fill="#000" fill-opacity=".01" fill-rule="evenodd" stroke="#143B8C" stroke-width="3.958" d="M205.932 131.637l2.313 10.217 12.887-3.093-1.941-10.642-13.259 3.518zM224.765 126.416l2.098 10.44 9.65-2.768-1.761-10.447-9.987 2.775z" clip-rule="evenodd"/>
    <path fill="#143B8C" fill-rule="evenodd" d="M205.672 132.922l-7.599 2.08 1.271 2.536 8.212 1.939-1.884-6.555zM219.618 131.341l5.798-1.786.638 3.061-6.02 1.678-.416-2.953z" clip-rule="evenodd"/>
    <path fill="#000" fill-opacity=".01" fill-rule="evenodd" d="M210.819 282.923c56.301 35.181 114.447 39.026 133.998 7.738 23.48-45.611-57.031-25.876-113.331-61.056-56.301-35.181-54.91-64.547-93.744-78.532-19.551 31.288 16.776 96.67 73.077 131.85z" clip-rule="evenodd"/>
    <mask id="N" width="217" height="161" x="132" y="151" maskUnits="userSpaceOnUse">
        <path fill="#fff" fill-rule="evenodd" d="M210.819 282.923c56.301 35.181 114.447 39.026 133.998 7.738 23.48-45.611-57.031-25.876-113.331-61.056-56.301-35.181-54.91-64.547-93.744-78.532-19.551 31.288 16.776 96.67 73.077 131.85z" clip-rule="evenodd"/>
    </mask>
    <g mask="url(#N)">
        <path fill="#EEF5FF" fill-rule="evenodd" d="M110.109 238.512c29.386 19.083 63.048 19.401 75.187.709 12.138-18.691-1.844-49.314-31.23-68.397-29.386-19.084-63.048-19.402-75.187-.71-12.138 18.691 1.844 49.314 31.23 68.398z" clip-rule="evenodd" filter="url(#O)"/>
        <path fill="#EEF5FF" fill-rule="evenodd" d="M213.202 314.576c21.657-10.099 28.389-41.497 15.038-70.129-13.352-28.633-41.732-43.657-63.388-33.559-21.657 10.099-28.389 41.497-15.038 70.129 13.352 28.633 41.731 43.657 63.388 33.559z" clip-rule="evenodd" filter="url(#P)"/>
        <path fill="#EEF5FF" fill-rule="evenodd" d="M269.365 362.834c21.657-10.098 28.389-41.496 15.038-70.129-13.352-28.632-41.731-43.657-63.388-33.558-21.657 10.098-28.389 41.496-15.038 70.129 13.352 28.632 41.732 43.657 63.388 33.558z" clip-rule="evenodd" filter="url(#Q)"/>
        <path fill="#EEF5FF" fill-rule="evenodd" d="M374.203 379.059c21.657-10.098 28.389-41.496 15.038-70.128-13.352-28.633-41.732-43.658-63.388-33.559-21.657 10.099-28.389 41.496-15.038 70.129 13.352 28.632 41.732 43.657 63.388 33.558z" clip-rule="evenodd" filter="url(#R)"/>
        <path fill="#EEF5FF" fill-rule="evenodd" d="M300.022 347.329c23.717 2.912 44.749-9.425 46.975-27.556 2.226-18.131-15.196-35.189-38.913-38.101-23.718-2.912-44.749 9.425-46.975 27.555-2.226 18.131 15.196 35.189 38.913 38.102z" clip-rule="evenodd" filter="url(#S)"/>
    </g>
    <path fill="url(#T)" fill-rule="evenodd" d="M234.765 193.664s9.847-1.862 11.028-3.186c1.181-1.325 7.849 13.976 7.849 13.976l-3.238 3.675h-7.718l-7.921-14.465z" clip-rule="evenodd"/>
    <path fill="#BBCFF2" fill-rule="evenodd" d="M121.479 361.508c16.543 0 29.954 2.887 29.954 6.449 0 3.561-13.411 6.448-29.954 6.448s-29.954-2.887-29.954-6.448c0-3.562 13.411-6.449 29.954-6.449z" clip-rule="evenodd" opacity=".2"/>
    <path fill="url(#U)" fill-rule="evenodd" d="M149.335 336.285c1.878 3.291 2.93 6.977 2.93 10.871 0 13.9-13.411 25.169-29.954 25.169s-29.954-11.269-29.954-25.169c0-4.12 1.178-8.009 3.267-11.442 13.269 2.101 39.681 1.966 53.711.571z" clip-rule="evenodd"/>
    <mask id="V" width="61" height="38" x="92" y="335" maskUnits="userSpaceOnUse">
        <path fill="#fff" fill-rule="evenodd" d="M149.335 336.285c1.878 3.291 2.93 6.977 2.93 10.871 0 13.9-13.411 25.169-29.954 25.169s-29.954-11.269-29.954-25.169c0-4.12 1.178-8.009 3.267-11.442 13.269 2.101 39.681 1.966 53.711.571z" clip-rule="evenodd"/>
    </mask>
    <path fill="url(#W)" fill-rule="evenodd" d="M122.519 330.722c15.05 0 27.25 2.887 27.25 6.449 0 3.561-12.2 6.448-27.25 6.448s-27.25-2.887-27.25-6.448c0-3.562 12.2-6.449 27.25-6.449z" clip-rule="evenodd"/>
    <mask id="X" width="55" height="14" x="95" y="330" maskUnits="userSpaceOnUse">
        <path fill="#fff" fill-rule="evenodd" d="M122.519 330.722c15.05 0 27.25 2.887 27.25 6.449 0 3.561-12.2 6.448-27.25 6.448s-27.25-2.887-27.25-6.448c0-3.562 12.2-6.449 27.25-6.449z" clip-rule="evenodd"/>
    </mask>
    <path fill="url(#Z)" fill-rule="evenodd" d="M120.231 331.555c-1.488-10.298-5.582-25.169-17.889-41.187-7.25-9.435-7.274-32.412-8.32-34.946 5.688 1.957 15.907 6.999 26.209 21.218 10.799 14.904 3.948 45.301 0 54.915z" clip-rule="evenodd" filter="url(#Y)"/>
    <mask id="aa" width="33" height="77" x="94" y="255" maskUnits="userSpaceOnUse">
        <path fill="#fff" fill-rule="evenodd" d="M120.231 331.555c-1.488-10.298-5.582-25.169-17.889-41.187-7.25-9.435-7.274-32.412-8.32-34.946 5.688 1.957 15.907 6.999 26.209 21.218 10.799 14.904 3.948 45.301 0 54.915z" clip-rule="evenodd"/>
    </mask>
    <g mask="url(#aa)" opacity=".5" style="mix-blend-mode:multiply">
        <path fill="#000" fill-opacity=".01" d="M118.498 318.142l-7.029-33.26c4.504 9.444 6.668 19.847 7.029 33.26z"/>
        <path stroke="#489C71" stroke-width="2.969" d="M118.498 318.142l-7.029-33.26c4.504 9.444 6.668 19.847 7.029 33.26z"/>
    </g>
    <path fill="url(#ac)" fill-rule="evenodd" d="M120.277 342.125c-4.598-7.354-12.721-17.319-27.496-25.399-8.704-4.76-16.446-22.274-18.097-23.855 4.999-.419 14.492-.007 27.132 7.375 13.251 7.739 18.242 33.221 18.461 41.879z" clip-rule="evenodd" filter="url(#ab)"/>
    <mask id="ad" width="47" height="51" x="74" y="292" maskUnits="userSpaceOnUse">
        <path fill="#fff" fill-rule="evenodd" d="M120.277 342.125c-4.598-7.354-12.721-17.319-27.496-25.399-8.704-4.76-16.446-22.274-18.097-23.855 4.999-.419 14.492-.007 27.132 7.375 13.251 7.739 18.242 33.221 18.461 41.879z" clip-rule="evenodd"/>
    </mask>
    <g mask="url(#ad)" opacity=".5" style="mix-blend-mode:multiply">
        <path fill="#000" fill-opacity=".01" d="M112.941 329.963l-13.506-18.779c5.217 4.891 9.515 10.891 13.506 18.779z"/>
        <path stroke="#489C71" stroke-width="2.969" d="M112.941 329.963l-13.506-18.779c5.217 4.891 9.515 10.891 13.506 18.779z"/>
    </g>
    <path fill="url(#af)" fill-rule="evenodd" d="M123.579 343.133c3.625-7.915 10.422-18.886 24.091-28.837 8.052-5.862 13.491-24.3 14.93-26.087-5.034.227-14.436 1.862-26.069 10.843-12.194 9.414-13.858 35.431-12.952 44.081z" clip-rule="evenodd" filter="url(#ae)"/>
    <mask id="ag" width="40" height="56" x="123" y="288" maskUnits="userSpaceOnUse">
        <path fill="#fff" fill-rule="evenodd" d="M123.579 343.133c3.625-7.915 10.422-18.886 24.091-28.837 8.052-5.862 13.491-24.3 14.93-26.087-5.034.227-14.436 1.862-26.069 10.843-12.194 9.414-13.858 35.431-12.952 44.081z" clip-rule="evenodd"/>
    </mask>
    <g mask="url(#ag)" opacity=".5" style="mix-blend-mode:multiply">
        <path fill="#000" fill-opacity=".01" d="M138.975 309.462l-11.092 20.582c2.967-8.439 6.491-15.009 11.092-20.582z"/>
        <path stroke="#489C71" stroke-width="2.969" d="M138.975 309.462l-11.092 20.582c2.967-8.439 6.491-15.009 11.092-20.582z"/>
    </g>
    <g opacity=".6">
        <path fill="url(#ah)" fill-rule="evenodd" d="M113.991 30.354c14.245 0 25.793 11.548 25.793 25.793s-11.548 25.794-25.793 25.794c-14.246 0-25.794-11.549-25.794-25.794 0-14.245 11.548-25.793 25.794-25.793z" clip-rule="evenodd"/>
        <mask id="ai" width="52" height="52" x="88" y="30" maskUnits="userSpaceOnUse">
            <path fill="#fff" fill-rule="evenodd" d="M113.991 30.354c14.245 0 25.793 11.548 25.793 25.793s-11.548 25.794-25.793 25.794c-14.246 0-25.794-11.549-25.794-25.794 0-14.245 11.548-25.793 25.794-25.793z" clip-rule="evenodd"/>
        </mask>
        <mask id="aj" fill="#fff">
            <path fill-rule="evenodd" d="M114.305 38.532V57.09l8.493 8.492" clip-rule="evenodd"/>
        </mask>
        <path fill="#fff" d="M120.243 38.532a5.938 5.938 0 0 0-11.876 0h11.876zm-5.938 18.559h-5.938a5.94 5.94 0 0 0 1.739 4.198l4.199-4.199zm4.294 12.691a5.939 5.939 0 0 0 8.398-8.397l-8.398 8.397zm-10.232-31.25V57.09h11.876V38.53h-11.876zm1.739 22.757l8.493 8.493 8.398-8.397-8.493-8.493-8.398 8.397z" mask="url(#aj)"/>
    </g>
    <defs>
        <filter id="m" width="294.986" height="279.244" x="89.438" y="90.945" color-interpolation-filters="sRGB" filterUnits="userSpaceOnUse">
            <feFlood flood-opacity="0" result="BackgroundImageFix"/>
            <feBlend in="SourceGraphic" in2="BackgroundImageFix" result="shape"/>
            <feGaussianBlur result="effect1_foregroundBlur" stdDeviation="49.472"/>
        </filter>
        <filter id="r" width="47.403" height="80.804" x="234.928" y="117.096" color-interpolation-filters="sRGB" filterUnits="userSpaceOnUse">
            <feFlood flood-opacity="0" result="BackgroundImageFix"/>
            <feBlend in="SourceGraphic" in2="BackgroundImageFix" result="shape"/>
            <feColorMatrix in="SourceAlpha" result="hardAlpha" values="0 0 0 0 0 0 0 0 0 0 0 0 0 0 0 0 0 0 127 0"/>
            <feOffset dy=".99"/>
            <feGaussianBlur stdDeviation="5.938"/>
            <feComposite in2="hardAlpha" k2="-1" k3="1" operator="arithmetic"/>
            <feColorMatrix values="0 0 0 0 0.898039 0 0 0 0 0.941176 0 0 0 0 1 0 0 0 1 0"/>
            <feBlend in2="shape" result="effect1_innerShadow"/>
        </filter>
        <filter id="u" width="183.189" height="124.03" x="234.748" y="231.037" color-interpolation-filters="sRGB" filterUnits="userSpaceOnUse">
            <feFlood flood-opacity="0" result="BackgroundImageFix"/>
            <feBlend in="SourceGraphic" in2="BackgroundImageFix" result="shape"/>
            <feColorMatrix in="SourceAlpha" result="hardAlpha" values="0 0 0 0 0 0 0 0 0 0 0 0 0 0 0 0 0 0 127 0"/>
            <feOffset dx="15.834" dy="3.958"/>
            <feGaussianBlur stdDeviation="13.855"/>
            <feComposite in2="hardAlpha" k2="-1" k3="1" operator="arithmetic"/>
            <feColorMatrix values="0 0 0 0 0.103708 0 0 0 0 0.317385 0 0 0 0 0.809604 0 0 0 1 0"/>
            <feBlend in2="shape" result="effect1_innerShadow"/>
        </filter>
        <filter id="I" width="65.657" height="88.106" x="181.928" y="85.145" color-interpolation-filters="sRGB" filterUnits="userSpaceOnUse">
            <feFlood flood-opacity="0" result="BackgroundImageFix"/>
            <feBlend in="SourceGraphic" in2="BackgroundImageFix" result="shape"/>
            <feColorMatrix in="SourceAlpha" result="hardAlpha" values="0 0 0 0 0 0 0 0 0 0 0 0 0 0 0 0 0 0 127 0"/>
            <feOffset dx="12.865" dy="11.875"/>
            <feGaussianBlur stdDeviation="8.907"/>
            <feComposite in2="hardAlpha" k2="-1" k3="1" operator="arithmetic"/>
            <feColorMatrix values="0 0 0 0 0 0 0 0 0 0 0 0 0 0 0 0 0 0 0.139889 0"/>
            <feBlend in2="shape" result="effect1_innerShadow"/>
        </filter>
        <filter id="L" width="76.296" height="74.511" x="129.286" y="135.642" color-interpolation-filters="sRGB" filterUnits="userSpaceOnUse">
            <feFlood flood-opacity="0" result="BackgroundImageFix"/>
            <feBlend in="SourceGraphic" in2="BackgroundImageFix" result="shape"/>
            <feColorMatrix in="SourceAlpha" result="hardAlpha" values="0 0 0 0 0 0 0 0 0 0 0 0 0 0 0 0 0 0 127 0"/>
            <feOffset dx="17.813" dy="-7.917"/>
            <feGaussianBlur stdDeviation="5.938"/>
            <feComposite in2="hardAlpha" k2="-1" k3="1" operator="arithmetic"/>
            <feColorMatrix values="0 0 0 0 0.898039 0 0 0 0 0.941176 0 0 0 0 1 0 0 0 1 0"/>
            <feBlend in2="shape" result="effect1_innerShadow"/>
        </filter>
        <filter id="O" width="135.95" height="117.516" x="53.721" y="135.518" color-interpolation-filters="sRGB" filterUnits="userSpaceOnUse">
            <feFlood flood-opacity="0" result="BackgroundImageFix"/>
            <feBlend in="SourceGraphic" in2="BackgroundImageFix" result="shape"/>
            <feColorMatrix in="SourceAlpha" result="hardAlpha" values="0 0 0 0 0 0 0 0 0 0 0 0 0 0 0 0 0 0 127 0"/>
            <feOffset dx="-27.214" dy="-38.892"/>
            <feGaussianBlur stdDeviation="10.391"/>
            <feComposite in2="hardAlpha" k2="-1" k3="1" operator="arithmetic"/>
            <feColorMatrix values="0 0 0 0 0.580392 0 0 0 0 0.67451 0 0 0 0 0.854902 0 0 0 0.43 0"/>
            <feBlend in2="shape" result="effect1_innerShadow"/>
        </filter>
        <filter id="P" width="106.89" height="130.76" x="128.209" y="186.961" color-interpolation-filters="sRGB" filterUnits="userSpaceOnUse">
            <feFlood flood-opacity="0" result="BackgroundImageFix"/>
            <feBlend in="SourceGraphic" in2="BackgroundImageFix" result="shape"/>
            <feColorMatrix in="SourceAlpha" result="hardAlpha" values="0 0 0 0 0 0 0 0 0 0 0 0 0 0 0 0 0 0 127 0"/>
            <feOffset dx="-14.745" dy="-24.641"/>
            <feGaussianBlur stdDeviation="10.391"/>
            <feComposite in2="hardAlpha" k2="-1" k3="1" operator="arithmetic"/>
            <feColorMatrix values="0 0 0 0 0.580392 0 0 0 0 0.67451 0 0 0 0 0.854902 0 0 0 0.43 0"/>
            <feBlend in2="shape" result="effect1_innerShadow"/>
        </filter>
        <filter id="Q" width="112.927" height="122.546" x="178.336" y="243.434" color-interpolation-filters="sRGB" filterUnits="userSpaceOnUse">
            <feFlood flood-opacity="0" result="BackgroundImageFix"/>
            <feBlend in="SourceGraphic" in2="BackgroundImageFix" result="shape"/>
            <feColorMatrix in="SourceAlpha" result="hardAlpha" values="0 0 0 0 0 0 0 0 0 0 0 0 0 0 0 0 0 0 127 0"/>
            <feOffset dx="-24.641" dy="-12.568"/>
            <feGaussianBlur stdDeviation="10.391"/>
            <feComposite in2="hardAlpha" k2="-1" k3="1" operator="arithmetic"/>
            <feColorMatrix values="0 0 0 0 0.580392 0 0 0 0 0.67451 0 0 0 0 0.854902 0 0 0 0.43 0"/>
            <feBlend in2="shape" result="effect1_innerShadow"/>
        </filter>
        <filter id="R" width="101.942" height="122.447" x="294.158" y="272.227" color-interpolation-filters="sRGB" filterUnits="userSpaceOnUse">
            <feFlood flood-opacity="0" result="BackgroundImageFix"/>
            <feBlend in="SourceGraphic" in2="BackgroundImageFix" result="shape"/>
            <feColorMatrix in="SourceAlpha" result="hardAlpha" values="0 0 0 0 0 0 0 0 0 0 0 0 0 0 0 0 0 0 127 0"/>
            <feOffset dx="-9.797" dy="12.469"/>
            <feGaussianBlur stdDeviation="10.391"/>
            <feComposite in2="hardAlpha" k2="-1" k3="1" operator="arithmetic"/>
            <feColorMatrix values="0 0 0 0 0.580392 0 0 0 0 0.67451 0 0 0 0 0.854902 0 0 0 0.43 0"/>
            <feBlend in2="shape" result="effect1_innerShadow"/>
        </filter>
        <filter id="S" width="104.876" height="69.081" x="242.313" y="281.246" color-interpolation-filters="sRGB" filterUnits="userSpaceOnUse">
            <feFlood flood-opacity="0" result="BackgroundImageFix"/>
            <feBlend in="SourceGraphic" in2="BackgroundImageFix" result="shape"/>
            <feColorMatrix in="SourceAlpha" result="hardAlpha" values="0 0 0 0 0 0 0 0 0 0 0 0 0 0 0 0 0 0 127 0"/>
            <feOffset dx="-18.605" dy="2.573"/>
            <feGaussianBlur stdDeviation="10.391"/>
            <feComposite in2="hardAlpha" k2="-1" k3="1" operator="arithmetic"/>
            <feColorMatrix values="0 0 0 0 0.580392 0 0 0 0 0.67451 0 0 0 0 0.854902 0 0 0 0.43 0"/>
            <feBlend in2="shape" result="effect1_innerShadow"/>
        </filter>
        <filter id="Y" width="32.012" height="86.028" x="94.021" y="245.526" color-interpolation-filters="sRGB" filterUnits="userSpaceOnUse">
            <feFlood flood-opacity="0" result="BackgroundImageFix"/>
            <feBlend in="SourceGraphic" in2="BackgroundImageFix" result="shape"/>
            <feColorMatrix in="SourceAlpha" result="hardAlpha" values="0 0 0 0 0 0 0 0 0 0 0 0 0 0 0 0 0 0 127 0"/>
            <feOffset dy="-9.896"/>
            <feGaussianBlur stdDeviation="6.433"/>
            <feComposite in2="hardAlpha" k2="-1" k3="1" operator="arithmetic"/>
            <feColorMatrix values="0 0 0 0 0.221483 0 0 0 0 0.77854 0 0 0 0 0.47323 0 0 0 1 0"/>
            <feBlend in2="shape" result="effect1_innerShadow"/>
        </filter>
        <filter id="ab" width="45.593" height="59.262" x="74.684" y="282.863" color-interpolation-filters="sRGB" filterUnits="userSpaceOnUse">
            <feFlood flood-opacity="0" result="BackgroundImageFix"/>
            <feBlend in="SourceGraphic" in2="BackgroundImageFix" result="shape"/>
            <feColorMatrix in="SourceAlpha" result="hardAlpha" values="0 0 0 0 0 0 0 0 0 0 0 0 0 0 0 0 0 0 127 0"/>
            <feOffset dy="-9.896"/>
            <feGaussianBlur stdDeviation="6.433"/>
            <feComposite in2="hardAlpha" k2="-1" k3="1" operator="arithmetic"/>
            <feColorMatrix values="0 0 0 0 0.221483 0 0 0 0 0.77854 0 0 0 0 0.47323 0 0 0 1 0"/>
            <feBlend in2="shape" result="effect1_innerShadow"/>
        </filter>
        <filter id="ae" width="39.229" height="64.819" x="123.371" y="278.313" color-interpolation-filters="sRGB" filterUnits="userSpaceOnUse">
            <feFlood flood-opacity="0" result="BackgroundImageFix"/>
            <feBlend in="SourceGraphic" in2="BackgroundImageFix" result="shape"/>
            <feColorMatrix in="SourceAlpha" result="hardAlpha" values="0 0 0 0 0 0 0 0 0 0 0 0 0 0 0 0 0 0 127 0"/>
            <feOffset dy="-9.896"/>
            <feGaussianBlur stdDeviation="6.433"/>
            <feComposite in2="hardAlpha" k2="-1" k3="1" operator="arithmetic"/>
            <feColorMatrix values="0 0 0 0 0.221483 0 0 0 0 0.77854 0 0 0 0 0.47323 0 0 0 1 0"/>
            <feBlend in2="shape" result="effect1_innerShadow"/>
        </filter>
        <linearGradient id="a" x2="0" y1="297.025" y2="421" gradientUnits="userSpaceOnUse">
            <stop stop-color="#fff"/>
            <stop offset="1" stop-color="#EAF0FD"/>
        </linearGradient>
        <linearGradient id="b" x1="690.138" x2="748.611" y1="406.186" y2="2.447" gradientUnits="userSpaceOnUse">
            <stop stop-color="#ECF2FC"/>
            <stop offset="1" stop-color="#B9CFF7"/>
        </linearGradient>
        <linearGradient id="c" x1="549.089" x2="572.444" y1="111.56" y2="150.201" gradientUnits="userSpaceOnUse">
            <stop stop-color="#ACD6FF" stop-opacity=".152"/>
            <stop offset="1" stop-color="#96ACCB" stop-opacity=".457"/>
        </linearGradient>
        <linearGradient id="d" x1="583.283" x2="613.158" y1="129.953" y2="180.378" gradientUnits="userSpaceOnUse">
            <stop stop-color="#ACD6FF" stop-opacity=".152"/>
            <stop offset="1" stop-color="#96ACCB" stop-opacity=".457"/>
        </linearGradient>
        <linearGradient id="e" x1="549.585" x2="579.792" y1="166.261" y2="216.866" gradientUnits="userSpaceOnUse">
            <stop stop-color="#ACD6FF" stop-opacity=".152"/>
            <stop offset="1" stop-color="#96ACCB" stop-opacity=".457"/>
        </linearGradient>
        <linearGradient id="g" x1="685.857" x2="654.136" y1="224.178" y2="172.236" gradientUnits="userSpaceOnUse">
            <stop stop-color="#367ED7"/>
            <stop offset="1" stop-color="#153D8E"/>
        </linearGradient>
        <linearGradient id="i" x1="501.885" x2="557.698" y1="221.297" y2="212.565" gradientUnits="userSpaceOnUse">
            <stop stop-color="#FDAE6B"/>
            <stop offset="1" stop-color="#FAE539"/>
        </linearGradient>
        <radialGradient id="j" cx="0" cy="0" r="1" gradientTransform="matrix(0 30.5078 -492.618 0 237.549 343.897)" gradientUnits="userSpaceOnUse">
            <stop/>
            <stop offset="1" stop-color="#2062E7"/>
        </radialGradient>
        <radialGradient id="k" cx="0" cy="0" r="1" gradientTransform="matrix(39.52574 -96.6966 169.61409 69.33152 196.083 237.332)" gradientUnits="userSpaceOnUse">
            <stop stop-color="#62ABFB"/>
            <stop offset="1" stop-color="#1440C0"/>
        </radialGradient>
        <radialGradient id="l" cx="0" cy="0" r="1" gradientTransform="rotate(108.466 60.135 177.891) scale(110.286 506.648)" gradientUnits="userSpaceOnUse">
            <stop stop-color="#F4F8FF"/>
            <stop offset="1" stop-color="#89B1E9"/>
        </radialGradient>
        <linearGradient id="n" x1="402.14" x2="397.902" y1="344.408" y2="376.165" gradientUnits="userSpaceOnUse">
            <stop stop-color="#9ABFFF"/>
            <stop offset="1" stop-color="#5B87D2"/>
        </linearGradient>
        <linearGradient id="p" x1="400.215" x2="396.02" y1="222.605" y2="262.778" gradientUnits="userSpaceOnUse">
            <stop stop-color="#91BAFF"/>
            <stop offset="1" stop-color="#5B87D2"/>
        </linearGradient>
        <linearGradient id="s" x1="261.104" x2="223.354" y1="112.06" y2="155.033" gradientUnits="userSpaceOnUse">
            <stop stop-color="#F5F8FF"/>
            <stop offset="1" stop-color="#fff"/>
        </linearGradient>
        <linearGradient id="t" x1="226.317" x2="226.317" y1="115.639" y2="149.753" gradientUnits="userSpaceOnUse">
            <stop stop-color="#4376C9"/>
            <stop offset="1" stop-color="#D6E3FA"/>
        </linearGradient>
        <linearGradient id="v" x1="340.409" x2="387.908" y1="320.046" y2="272.095" gradientUnits="userSpaceOnUse">
            <stop stop-color="#002383"/>
            <stop offset="1" stop-color="#316EEA"/>
        </linearGradient>
        <linearGradient id="x" x1="350.42" x2="379.336" y1="300.95" y2="273.663" gradientUnits="userSpaceOnUse">
            <stop stop-color="#002343"/>
            <stop offset="1" stop-color="#1A72FF" stop-opacity=".437"/>
        </linearGradient>
        <linearGradient id="y" x1="196.363" x2="196.363" y1="144.76" y2="203.004" gradientUnits="userSpaceOnUse">
            <stop stop-color="#4376C9"/>
            <stop offset="1" stop-color="#D6E3FA"/>
        </linearGradient>
        <linearGradient id="z" x1="198.849" x2="198.849" y1="146.015" y2="169.232" gradientUnits="userSpaceOnUse">
            <stop stop-color="#4376C9"/>
            <stop offset="1" stop-color="#D6E3FA"/>
        </linearGradient>
        <linearGradient id="A" x1="273.841" x2="265.287" y1="246.791" y2="222.371" gradientUnits="userSpaceOnUse">
            <stop stop-color="#B1C2E4"/>
            <stop offset="1" stop-color="#fff" stop-opacity=".01"/>
        </linearGradient>
        <linearGradient id="D" x1="281.888" x2="293.367" y1="202.425" y2="247.017" gradientUnits="userSpaceOnUse">
            <stop stop-color="#3D9BF8"/>
            <stop offset="1" stop-color="#3B80F0"/>
        </linearGradient>
        <linearGradient id="E" x1="187.627" x2="187.627" y1="114.807" y2="164.313" gradientUnits="userSpaceOnUse">
            <stop stop-color="#4376C9"/>
            <stop offset="1" stop-color="#D6E3FA"/>
        </linearGradient>
        <linearGradient id="F" x1="128.135" x2="128.135" y1="139.352" y2="164.73" gradientUnits="userSpaceOnUse">
            <stop stop-color="#4376C9"/>
            <stop offset="1" stop-color="#D6E3FA"/>
        </linearGradient>
        <linearGradient id="H" x1="140.11" x2="140.11" y1="145.097" y2="164.422" gradientUnits="userSpaceOnUse">
            <stop stop-color="#4376C9"/>
            <stop offset="1" stop-color="#D6E3FA"/>
        </linearGradient>
        <linearGradient id="J" x1="238.386" x2="176.846" y1="58.343" y2="73.474" gradientUnits="userSpaceOnUse">
            <stop stop-color="#2669E1"/>
            <stop offset="1" stop-color="#143B8C"/>
        </linearGradient>
        <linearGradient id="K" x1="204.837" x2="212.868" y1="182.28" y2="177.146" gradientUnits="userSpaceOnUse">
            <stop stop-color="#EEF5FF"/>
            <stop offset="1" stop-color="#ADC8F2"/>
        </linearGradient>
        <linearGradient id="M" x1="166.461" x2="145.202" y1="142.456" y2="187.613" gradientUnits="userSpaceOnUse">
            <stop stop-color="#F5F8FF"/>
            <stop offset="1" stop-color="#fff"/>
        </linearGradient>
        <linearGradient id="T" x1="239.321" x2="234.02" y1="185.84" y2="206.173" gradientUnits="userSpaceOnUse">
            <stop stop-color="#EEF5FF"/>
            <stop offset="1" stop-color="#D9E8FF"/>
        </linearGradient>
        <linearGradient id="U" x1="167.866" x2="138.906" y1="359.1" y2="326.863" gradientUnits="userSpaceOnUse">
            <stop stop-color="#CEE0FB"/>
            <stop offset="1" stop-color="#E4EDFB"/>
        </linearGradient>
        <linearGradient id="W" x1="94.437" x2="94.437" y1="330.306" y2="344.035" gradientUnits="userSpaceOnUse">
            <stop stop-color="#99BAE9"/>
            <stop offset="1" stop-color="#BCD0F2"/>
        </linearGradient>
        <linearGradient id="Z" x1="88.591" x2="133.304" y1="276.074" y2="322.893" gradientUnits="userSpaceOnUse">
            <stop stop-color="#B1FFBE"/>
            <stop offset=".444" stop-color="#5CDB8E"/>
            <stop offset="1" stop-color="#149654"/>
        </linearGradient>
        <linearGradient id="ac" x1="87.94" x2="94.369" y1="290.296" y2="339.979" gradientUnits="userSpaceOnUse">
            <stop stop-color="#B1FFBE"/>
            <stop offset=".444" stop-color="#5CDB8E"/>
            <stop offset="1" stop-color="#149654"/>
        </linearGradient>
        <linearGradient id="af" x1="116.439" x2="145.885" y1="302.747" y2="348.961" gradientUnits="userSpaceOnUse">
            <stop stop-color="#B1FFBE"/>
            <stop offset=".444" stop-color="#5CDB8E"/>
            <stop offset="1" stop-color="#149654"/>
        </linearGradient>
        <linearGradient id="ah" x1="110.586" x2="95.105" y1="44.628" y2="75.095" gradientUnits="userSpaceOnUse">
            <stop stop-color="#CBDAF1"/>
            <stop offset="1" stop-color="#9CB3DF"/>
        </linearGradient>
    </defs>
</svg>
