<svg width="442" height="401" viewBox="0 0 442 401" fill="none" xmlns="http://www.w3.org/2000/svg">
<path opacity="0.49" fill-rule="evenodd" clip-rule="evenodd" d="M121.355 65.3968C217.575 79.086 286.597 11.5069 334.42 3.20372C406.22 -9.28779 489.254 59.5919 409.336 207.925C329.418 356.258 293.684 391.888 186.393 390.889C100.567 390.073 34.6454 318.806 11.7212 265.974C-24.1604 183.287 25.1428 51.7149 121.355 65.3968Z" fill="url(#paint0_linear)"/>
<rect x="90.4604" y="32.5587" width="277.536" height="200.151" fill="#223762"/>
<rect x="87.2634" y="32.5587" width="274.169" height="200.151" fill="#0D3261"/>
<rect x="91.6832" y="36.8646" width="265.337" height="191.524" fill="white"/>
<path opacity="0.34" fill-rule="evenodd" clip-rule="evenodd" d="M91.6832 36.8646L357.02 228.389H90.1216L91.6832 36.8646Z" fill="#D6E3FA"/>
<path d="M117.252 66.5797C117.252 66.5797 168.198 65.2718 184.75 79.1888C201.302 93.1058 205.737 132.829 213.538 159.664C224.175 196.308 277.949 210.702 302.126 197.675" stroke="url(#paint1_linear)" stroke-width="0.738004" stroke-linecap="round"/>
<path d="M109.974 48.2173C109.974 48.2173 111.845 174.962 109.974 193.361L108.103 211.731C108.103 211.731 277.92 215.119 293.168 214.744L308.387 214.369" stroke="url(#paint2_linear)" stroke-width="0.738004" stroke-linecap="round"/>
<path fill-rule="evenodd" clip-rule="evenodd" d="M67.8088 156.291C67.8088 156.291 59.7058 191.789 59.4479 198.652C59.1901 205.515 80.1916 230.432 80.1916 230.432L90.1215 183.53L67.8088 156.291Z" fill="url(#paint3_linear)"/>
<path fill-rule="evenodd" clip-rule="evenodd" d="M38.4759 341.599L28.2072 349.329C28.2072 349.329 34.8369 364.855 36.4207 366.766C38.0045 368.676 46.0412 374.158 48.31 374.011C50.5789 373.864 51.2566 371.659 50.2989 369.212C49.3413 366.766 45.6139 361.923 45.0983 360.197C44.5826 358.47 47.1314 349.204 47.1314 349.204L38.4759 341.599Z" fill="url(#paint4_linear)"/>
<path fill-rule="evenodd" clip-rule="evenodd" d="M98.9023 368.441L95.5137 384.121C95.5137 384.121 108.213 389.574 111.049 390C113.885 390.426 127.182 390 127.182 390C127.182 390 127.712 390 127.182 387.7C126.651 385.4 117.164 383.1 114.769 382.556C113.313 382.241 112.19 381.081 111.926 379.617L110.784 373.533L98.9023 368.441Z" fill="url(#paint5_linear)"/>
<path fill-rule="evenodd" clip-rule="evenodd" d="M69.5546 234.517C69.5546 234.517 67.0943 248.846 68.4128 256.443C69.7314 264.041 75.4035 303.47 75.4035 303.47L36.5754 340.291C36.5754 340.291 38.3507 347.154 43.3156 348.991C48.2805 350.828 48.8993 350.585 48.8993 350.585C48.8993 350.585 90.4825 319.07 94.3793 313.059C98.2761 307.049 99.4326 237.956 99.4326 237.956L69.5546 234.517Z" fill="url(#paint6_linear)"/>
<path opacity="0.09" fill-rule="evenodd" clip-rule="evenodd" d="M73.2599 159.377C73.9134 159.825 74.5896 160.24 75.2856 160.619C74.9576 160.912 74.8513 161.381 75.0205 161.787C80.9136 173.882 76.9504 214.384 74.7847 232.702H128.449C126.843 217.918 123.808 188.041 125.215 185.242C126.033 183.61 126.077 180.304 125.871 177.1C125.598 172.956 124.906 168.966 124.906 168.966C125.797 165.917 163.807 158.958 167.483 152.235C171.159 145.511 183.24 103.165 183.24 103.165L182.43 102.687C183.903 100.388 186.849 95.2513 185.884 92.9367C185.766 92.6501 185.618 92.3767 185.442 92.1211L189.899 91.3863L193.582 88.5573L195.645 88.212L195.306 86.1986L193.265 86.544L188.846 85.0744L188.183 85.1846C188.301 85.0288 188.358 84.8357 188.345 84.6409C188.094 83.546 188.345 82.6275 185.906 82.5393C184.396 82.4879 180.883 84.4057 178.105 86.882L170.82 88.1164C170.473 88.1757 170.164 88.3701 169.961 88.6567C169.758 88.9434 169.677 89.2989 169.737 89.6448L170.371 93.3188C170.43 93.6648 170.625 93.973 170.912 94.1756C171.2 94.3782 171.556 94.4586 171.903 94.3989L174.01 94.0462C173.797 96.3676 173.861 98.7059 174.201 101.012C173.627 101.144 173.258 101.262 173.258 101.262L155.388 142.41C155.093 143.079 137.252 146.173 136.53 146.312L110.674 152.102L108.177 152.455C109.476 148.908 110.28 145.199 110.563 141.433C112.147 140.919 113.23 140.493 113.804 137.575C114.07 136.223 113.915 133.608 113.856 130.514C114.755 130.588 116.066 130.514 115.955 129.368C115.801 127.898 114.6 123.019 114.254 121.66C114.327 121.168 114.408 120.675 114.512 120.19C114.775 118.547 114.617 116.863 114.055 115.297C114.705 114.51 115.234 113.631 115.624 112.688C117.834 107.544 109.694 94.5826 95.4253 96.0449C88.9797 96.7062 84.2358 98.3154 80.5084 103.07C79.0103 104.925 77.7713 106.974 76.8252 109.161C72.6116 118.515 79.374 120.036 73.142 132.821C67.0795 145.313 69.8935 157.048 73.2599 159.377Z" fill="url(#paint7_linear)"/>
<path fill-rule="evenodd" clip-rule="evenodd" d="M77.9891 229.33C76.5975 237.31 75.9857 245.406 76.1622 253.504C76.5158 266.378 108.397 308.864 108.397 308.864L98.0846 369.558C98.0846 369.558 100.442 373.033 106.121 373.827L111.793 374.621C111.793 374.621 128.817 314.948 129.171 304.279C129.524 293.609 119.395 233.077 119.395 233.077L77.9891 229.33Z" fill="url(#paint8_linear)"/>
<path fill-rule="evenodd" clip-rule="evenodd" d="M87.256 250.227C91.6758 249.897 108.184 245.238 120.766 241.535C119.933 236.391 119.381 233.085 119.381 233.085L77.9744 229.337C76.5832 237.315 75.9714 245.409 76.1475 253.505C76.5011 266.378 108.383 308.864 108.383 308.864L98.0699 369.558C99.4571 371.298 101.339 372.579 103.469 373.232C106.563 365.833 111.359 353.51 112.235 346.397C113.547 335.758 109.804 324.185 111.499 314.845C113.193 305.506 121.988 304.558 121.664 300.656C121.34 296.755 114.504 298.232 107.204 295.057C99.9041 291.883 85.3039 268.171 82.1585 261.83C79.0131 255.489 79.8307 250.786 87.256 250.227Z" fill="url(#paint9_linear)"/>
<g filter="url(#filter0_i)">
<path fill-rule="evenodd" clip-rule="evenodd" d="M360.202 256.157C353.433 281.772 356.519 306.961 366.832 325.353C384.887 314.419 400.032 294.028 406.802 268.413C413.572 242.798 410.485 217.61 400.172 199.218C382.102 210.152 366.95 230.542 360.202 256.157Z" fill="url(#paint10_linear)"/>
</g>
<path d="M387.134 255.128C382.889 267.03 379.379 279.179 376.622 291.508C371.723 312.979 372.939 338.535 372.939 338.535" stroke="#112244" stroke-width="0.738004" stroke-linecap="round" stroke-linejoin="round"/>
<path d="M358.589 247.751C358.589 247.751 361.536 272.381 365.152 291.361C368.769 310.341 371.237 335.449 371.237 335.449" stroke="#112244" stroke-width="0.738004" stroke-linecap="round" stroke-linejoin="round"/>
<path d="M352.703 289.105C352.703 289.105 358.596 305.146 362.898 315.558C367.2 325.97 371.252 336.632 371.252 336.632" stroke="#112244" stroke-width="0.738004" stroke-linecap="round" stroke-linejoin="round"/>
<g filter="url(#filter1_i)">
<path fill-rule="evenodd" clip-rule="evenodd" d="M377.447 157.65C374.375 180.091 377.042 200.797 383.679 214.795C393.837 203.09 401.977 183.86 405.041 161.42C408.106 138.979 405.447 118.273 398.809 104.275C388.659 115.973 380.519 135.202 377.447 157.65Z" fill="url(#paint11_linear)"/>
</g>
<g filter="url(#filter2_i)">
<path fill-rule="evenodd" clip-rule="evenodd" d="M356.571 193.648C357.499 173.074 358.869 136.01 359.657 114.393C345.366 132.028 336.195 159.083 336.195 189.445C336.195 219.454 345.16 246.215 359.171 263.872C357.609 243.136 355.731 212.356 356.571 193.648Z" fill="url(#paint12_linear)"/>
</g>
<g filter="url(#filter3_i)">
<path fill-rule="evenodd" clip-rule="evenodd" d="M384.335 189.445C384.335 158.649 374.913 131.249 360.261 113.614C360.055 113.864 359.856 114.135 359.657 114.385C358.869 136.003 357.499 173.095 356.571 193.64C355.731 212.348 357.609 243.136 359.164 263.865C359.532 264.328 359.9 264.813 360.261 265.268C374.935 247.626 384.335 220.24 384.335 189.445Z" fill="url(#paint13_linear)"/>
</g>
<g filter="url(#filter4_i)">
<path fill-rule="evenodd" clip-rule="evenodd" d="M384.511 210.474C378.964 228.94 379.679 247.06 385.248 260.257C397.204 252.314 407.796 237.574 413.343 219.108C418.89 200.643 418.176 182.523 412.607 169.326C400.629 177.269 390.043 192.009 384.511 210.474Z" fill="url(#paint14_linear)"/>
</g>
<path fill-rule="evenodd" clip-rule="evenodd" d="M397.874 390.22H344.88L337.013 321.708H405.741L397.874 390.22Z" fill="url(#paint15_linear)"/>
<path fill-rule="evenodd" clip-rule="evenodd" d="M337.013 321.708L344.88 390.22H365.16L359.289 321.708H337.013Z" fill="url(#paint16_linear)"/>
<rect x="334.324" y="319.753" width="74.0983" height="16.8856" fill="url(#paint17_linear)"/>
<path fill-rule="evenodd" clip-rule="evenodd" d="M361.322 203.355C362.827 203.355 364.047 201.18 364.047 198.498C364.047 195.815 362.827 193.641 361.322 193.641C359.817 193.641 358.596 195.815 358.596 198.498C358.596 201.18 359.817 203.355 361.322 203.355Z" fill="#269D54"/>
<path fill-rule="evenodd" clip-rule="evenodd" d="M369.549 205.792C371.451 203.895 372.129 201.497 371.065 200.435C370.001 199.373 367.596 200.05 365.695 201.947C363.793 203.844 363.115 206.242 364.179 207.304C365.243 208.366 367.648 207.689 369.549 205.792Z" fill="#269D54"/>
<path fill-rule="evenodd" clip-rule="evenodd" d="M369.382 232.281C371.991 229.678 372.922 226.387 371.46 224.929C369.999 223.471 366.699 224.399 364.09 227.002C361.481 229.605 360.55 232.896 362.011 234.354C363.473 235.812 366.773 234.884 369.382 232.281Z" fill="#269D54"/>
<path fill-rule="evenodd" clip-rule="evenodd" d="M368.589 244.503C370.147 241.166 369.891 237.756 368.017 236.886C366.144 236.016 363.362 238.015 361.805 241.352C360.247 244.688 360.503 248.099 362.376 248.969C364.25 249.839 367.031 247.84 368.589 244.503Z" fill="#269D54"/>
<g filter="url(#filter5_i)">
<path fill-rule="evenodd" clip-rule="evenodd" d="M320.38 257.273C328.836 278.583 342.869 294.91 357.83 303.095C337.109 279.751 316.196 198.306 316.196 198.306C310.914 214.486 311.923 235.994 320.38 257.273Z" fill="url(#paint18_linear)"/>
</g>
<path fill-rule="evenodd" clip-rule="evenodd" d="M353.646 244.121C345.19 222.812 331.157 206.485 316.196 198.299C316.196 198.299 337.116 279.744 357.83 303.088C363.112 286.908 362.095 265.401 353.646 244.121Z" fill="url(#paint19_linear)"/>
<g filter="url(#filter6_i)">
<path fill-rule="evenodd" clip-rule="evenodd" d="M353.646 244.121C345.19 222.812 331.157 206.485 316.196 198.299C316.196 198.299 337.116 279.744 357.83 303.088C363.112 286.908 362.095 265.401 353.646 244.121Z" fill="url(#paint20_linear)"/>
</g>
<path fill-rule="evenodd" clip-rule="evenodd" d="M340.596 263.096C341.669 262.648 341.889 260.737 341.087 258.828C340.286 256.919 338.766 255.735 337.693 256.184C336.619 256.632 336.399 258.543 337.201 260.452C338.003 262.361 339.523 263.545 340.596 263.096Z" fill="#269D54"/>
<path fill-rule="evenodd" clip-rule="evenodd" d="M354.153 265.269C355.226 264.82 355.446 262.909 354.644 261C353.843 259.091 352.323 257.907 351.25 258.356C350.176 258.804 349.956 260.715 350.758 262.624C351.56 264.533 353.08 265.717 354.153 265.269Z" fill="#269D54"/>
<path fill-rule="evenodd" clip-rule="evenodd" d="M347.175 262.378C347.961 260.463 347.725 258.553 346.649 258.113C345.572 257.674 344.062 258.87 343.275 260.785C342.489 262.7 342.724 264.609 343.801 265.049C344.878 265.489 346.388 264.293 347.175 262.378Z" fill="#269D54"/>
<path fill-rule="evenodd" clip-rule="evenodd" d="M348.275 269.62C349.061 267.704 348.826 265.795 347.749 265.355C346.672 264.915 345.162 266.111 344.376 268.027C343.589 269.942 343.825 271.851 344.902 272.291C345.978 272.731 347.489 271.535 348.275 269.62Z" fill="#269D54"/>
<path fill-rule="evenodd" clip-rule="evenodd" d="M354.969 281.279C356.046 278.654 355.723 276.038 354.248 275.435C352.772 274.832 350.702 276.471 349.624 279.096C348.546 281.721 348.869 284.338 350.345 284.941C351.821 285.544 353.891 283.905 354.969 281.279Z" fill="#269D54"/>
<path fill-rule="evenodd" clip-rule="evenodd" d="M358.052 290.21C358.164 287.375 356.962 285.027 355.368 284.965C353.775 284.903 352.393 287.15 352.282 289.984C352.17 292.819 353.372 295.167 354.966 295.229C356.559 295.291 357.941 293.044 358.052 290.21Z" fill="#269D54"/>
<path fill-rule="evenodd" clip-rule="evenodd" d="M163.633 90.4581L162.85 85.8505C162.77 85.3784 163.089 84.9308 163.562 84.8508L182.046 81.7257L183.119 88.043L164.643 91.1669C164.415 91.2053 164.182 91.1521 163.994 91.0189C163.806 90.8858 163.679 90.6836 163.64 90.4569L163.633 90.4581Z" fill="url(#paint21_linear)"/>
<path fill-rule="evenodd" clip-rule="evenodd" d="M183.122 88.0356L186.798 85.2067L186.481 83.1933L182.047 81.7238L183.122 88.0356Z" fill="#D6E3FA"/>
<rect width="2.04287" height="2.0919" transform="matrix(-0.16752 -0.985869 0.986007 -0.166707 186.804 85.2062)" fill="url(#paint22_linear)"/>
<path fill-rule="evenodd" clip-rule="evenodd" d="M167.653 99.3442C167.653 99.3442 166.305 92.731 167.653 88.4251C169.001 84.1192 176.662 79.1006 179.1 79.1888C181.538 79.2769 181.31 80.1954 181.538 81.2903C181.767 82.3851 176.065 86.5808 175.726 87.3376C175.387 88.0945 177.833 86.6028 179.093 89.6082C180.352 92.6135 174.886 100.513 174.886 100.513L167.653 99.3442Z" fill="url(#paint23_linear)"/>
<path fill-rule="evenodd" clip-rule="evenodd" d="M167.653 99.3442C167.653 99.3442 166.305 92.731 167.653 88.4251C169.001 84.1192 176.662 79.1006 179.1 79.1888C181.538 79.2769 181.31 80.1954 181.538 81.2903C181.767 82.3851 176.065 86.5808 175.726 87.3376C175.387 88.0945 177.833 86.6028 179.093 89.6082C180.352 92.6135 174.886 100.513 174.886 100.513L167.653 99.3442Z" fill="#C68B5E"/>
<path fill-rule="evenodd" clip-rule="evenodd" d="M103.852 148.722L129.701 142.969C130.438 142.829 148.264 139.736 148.559 139.067L166.43 97.9186C166.43 97.9186 170.754 96.449 173.583 98.139L176.411 99.7997C176.411 99.7997 164.338 142.153 160.655 148.869C156.971 155.585 118.968 162.551 118.077 165.601C118.077 165.601 120.287 178.092 118.386 181.854C116.486 185.616 122.534 237.5 122.534 237.5C122.534 237.5 103.757 242.644 88.5378 242.019C73.3188 241.395 66.7996 238.448 66.7996 238.448C66.7996 238.448 75.8529 174.19 68.1992 158.392C65.9819 153.814 103.852 148.722 103.852 148.722Z" fill="url(#paint24_linear)"/>
<path fill-rule="evenodd" clip-rule="evenodd" d="M107.359 117.92C107.359 117.92 108.972 124.283 109.149 126.003C109.326 127.722 106.247 127.039 106.247 127.039L107.359 117.92Z" fill="url(#paint25_linear)"/>
<path fill-rule="evenodd" clip-rule="evenodd" d="M107.359 117.92C107.359 117.92 108.972 124.283 109.149 126.003C109.326 127.722 106.247 127.039 106.247 127.039L107.359 117.92Z" fill="#C68B5E"/>
<path fill-rule="evenodd" clip-rule="evenodd" d="M107.705 116.832C109.002 110.535 100.987 101.159 99.6021 100.586C98.2172 100.013 77.3704 103.158 73.1715 108.353C68.9727 113.548 71.6983 119.727 71.6983 119.727C71.6983 119.727 74.2397 118.478 72.0887 119.992C69.9377 121.506 67.3226 126.105 67.8456 129.008C68.5086 132.682 75.2857 130.551 75.2857 130.551C75.2857 130.551 79.4624 138.428 86.0259 142.484L86.35 142.66L85.908 146.334C88.7495 148.143 92.1481 148.874 95.4843 148.392C101.267 147.51 101.377 146.276 101.377 146.276L101.193 139.067C104.199 137.399 106.121 138.457 106.968 134.188C107.536 131.455 106.342 123.445 107.705 116.832Z" fill="url(#paint26_linear)"/>
<path fill-rule="evenodd" clip-rule="evenodd" d="M107.705 116.832C109.002 110.535 100.987 101.159 99.6021 100.586C98.2172 100.013 77.3704 103.158 73.1715 108.353C68.9727 113.548 71.6983 119.727 71.6983 119.727C71.6983 119.727 74.2397 118.478 72.0887 119.992C69.9377 121.506 67.3226 126.105 67.8456 129.008C68.5086 132.682 75.2857 130.551 75.2857 130.551C75.2857 130.551 79.4624 138.428 86.0259 142.484L86.35 142.66L85.908 146.334C88.7495 148.143 92.1481 148.874 95.4843 148.392C101.267 147.51 101.377 146.276 101.377 146.276L101.193 139.067C104.199 137.399 106.121 138.457 106.968 134.188C107.536 131.455 106.342 123.445 107.705 116.832Z" fill="#C68B5E"/>
<path fill-rule="evenodd" clip-rule="evenodd" d="M103.683 148.752C100.781 149.148 66.1145 154.013 68.2434 158.429C69.341 160.699 70.0924 163.969 70.5859 167.9C80.7662 172.596 100.663 175.873 103.683 148.752Z" fill="url(#paint27_linear)"/>
<path fill-rule="evenodd" clip-rule="evenodd" d="M108.817 109.323C106.607 114.466 102.475 114.327 102.784 116.73C109.93 172.265 75.4625 160.215 66.9764 154.336C63.6836 152.051 60.9286 140.574 66.8659 128.361C72.9432 115.87 66.3282 114.363 70.4533 105.215C74.5785 96.0671 80.1327 93.5467 88.6114 92.6797C102.88 91.2248 110.99 104.157 108.817 109.323Z" fill="url(#paint28_linear)"/>
<path fill-rule="evenodd" clip-rule="evenodd" d="M97.1049 145.57C93.6648 149.134 88.302 149.825 84.7294 148.752C81.1567 147.679 77.8492 143.924 79.6392 134.732C81.4292 125.54 78.4016 113.739 79.6392 108.529C80.8767 103.32 86.2689 97.5514 94.6298 95.6336C96.5671 95.2308 98.5565 95.139 100.523 95.3617C96.8765 93.3427 92.6889 92.5104 88.5451 92.981C79.8749 93.8701 74.2102 96.4271 69.9819 105.803C65.7536 115.179 72.5306 116.678 66.2987 129.464C60.2288 141.955 63.0428 153.712 66.4092 156.019C73.8787 161.199 101.083 171.06 103.786 137.348C101.739 140.229 99.5069 142.976 97.1049 145.57Z" fill="url(#paint29_linear)"/>
<path fill-rule="evenodd" clip-rule="evenodd" d="M160.706 148.899C164.389 142.175 176.463 99.8292 176.463 99.8292L174.791 98.8519C174.791 98.8519 162.032 139.699 158.29 143.674C154.548 147.65 112.692 156.026 108.508 159.671C104.324 163.315 119.094 173.764 119.094 173.764C118.821 169.62 118.129 165.63 118.129 165.63C119.02 162.581 157.023 155.622 160.706 148.899Z" fill="url(#paint30_linear)"/>
<rect opacity="0.45" x="264.837" y="53.2802" width="29.0751" height="29.0024" fill="url(#paint31_linear)"/>
<path fill-rule="evenodd" clip-rule="evenodd" d="M256.145 77.8883L260.565 76.595C264.984 75.3018 264.822 66.1315 264.822 66.1315V50.8037H293.905V66.1315C293.905 66.1315 294.082 75.3091 289.647 76.595L285.227 77.8883H256.145Z" fill="url(#paint32_linear)"/>
<rect opacity="0.45" width="29.0749" height="29.0025" transform="matrix(0.99892 -0.0464672 0.0467 0.998909 300.896 98.2675)" fill="url(#paint33_linear)"/>
<path fill-rule="evenodd" clip-rule="evenodd" d="M289.949 120.117L294.479 119.22C299.01 118.324 299.636 109.169 299.636 109.169L300.984 93.8848L329.941 96.4198L328.593 111.689C328.593 111.689 327.967 120.844 323.437 121.741L318.906 122.637L289.949 120.117Z" fill="url(#paint34_linear)"/>
<path fill-rule="evenodd" clip-rule="evenodd" d="M178.879 329.327L182.304 328.593C185.73 327.858 186.223 320.767 186.223 320.767L187.269 308.885L209.192 310.818L208.146 322.7C208.146 322.7 207.652 329.82 204.227 330.525L200.801 331.26L178.879 329.327Z" fill="url(#paint35_linear)"/>
<rect opacity="0.45" x="222.613" y="83.8916" width="26.6221" height="26.5555" fill="url(#paint36_linear)"/>
<path fill-rule="evenodd" clip-rule="evenodd" d="M214.657 106.435L218.716 105.252C222.775 104.069 222.613 95.6995 222.613 95.6995V81.6282H249.235V95.6701C249.235 95.6701 249.397 104.069 245.338 105.222L241.28 106.405L214.657 106.435Z" fill="url(#paint37_linear)"/>
<rect opacity="0.45" width="26.077" height="27.1654" transform="matrix(0.999888 0.0149717 -0.0150469 0.999887 159.996 170.127)" fill="url(#paint38_linear)"/>
<path fill-rule="evenodd" clip-rule="evenodd" d="M148.566 190.642L152.743 189.996C156.92 189.349 157.855 180.995 157.855 180.995L159.682 167.033L186.076 170.472L184.249 184.433C184.249 184.433 183.321 192.788 179.137 193.435L174.96 194.081L148.566 190.642Z" fill="url(#paint39_linear)"/>
<path fill-rule="evenodd" clip-rule="evenodd" d="M0.958954 401H426.831L397.601 390.221H27.9199L0.958954 401Z" fill="url(#paint40_linear)"/>
<path d="M193.634 79.189L207.674 56.9908H233.331" stroke="#0D3261" stroke-width="0.738004" stroke-linecap="round"/>
<path d="M237.994 178.901L254.082 165.829H278.045" stroke="#0D3261" stroke-width="0.738004" stroke-linecap="round"/>
<path fill-rule="evenodd" clip-rule="evenodd" d="M132.618 72.0391C135.511 72.0391 137.856 69.7001 137.856 66.8147C137.856 63.9294 135.511 61.5903 132.618 61.5903C129.726 61.5903 127.381 63.9294 127.381 66.8147C127.381 69.7001 129.726 72.0391 132.618 72.0391Z" stroke="#0D3261" stroke-width="0.738004" stroke-linecap="round"/>
<path fill-rule="evenodd" clip-rule="evenodd" d="M193.634 96.9634C196.526 96.9634 198.871 94.6244 198.871 91.739C198.871 88.8537 196.526 86.5146 193.634 86.5146C190.741 86.5146 188.396 88.8537 188.396 91.739C188.396 94.6244 190.741 96.9634 193.634 96.9634Z" stroke="#0D3261" stroke-width="0.738004" stroke-linecap="round"/>
<path fill-rule="evenodd" clip-rule="evenodd" d="M209.685 147.569C212.578 147.569 214.923 145.23 214.923 142.345C214.923 139.459 212.578 137.12 209.685 137.12C206.793 137.12 204.448 139.459 204.448 142.345C204.448 145.23 206.793 147.569 209.685 147.569Z" stroke="#0D3261" stroke-width="0.738004" stroke-linecap="round"/>
<path fill-rule="evenodd" clip-rule="evenodd" d="M231.946 190.936C234.839 190.936 237.184 188.597 237.184 185.712C237.184 182.827 234.839 180.488 231.946 180.488C229.054 180.488 226.709 182.827 226.709 185.712C226.709 188.597 229.054 190.936 231.946 190.936Z" stroke="url(#paint41_linear)" stroke-width="0.738004" stroke-linecap="round"/>
<path d="M204.448 149.964L193.634 162.471H165.376" stroke="#0D3261" stroke-width="0.738004" stroke-linecap="round"/>
<path fill-rule="evenodd" clip-rule="evenodd" d="M245.515 289.12L249.478 290.45C253.441 291.78 257.102 285.732 257.102 285.732L263.452 275.761L285.92 290.002L279.57 299.973C279.57 299.973 275.887 306.02 271.946 304.69L267.983 303.36L245.515 289.12Z" fill="url(#paint42_linear)"/>
<path d="M268.778 56.1751H288.992" stroke="white" stroke-width="0.738004" stroke-linecap="round"/>
<path d="M268.778 61.583L284.638 62.2002" stroke="white" stroke-width="0.738004" stroke-linecap="round"/>
<path d="M268.778 67.7774H284.638" stroke="white" stroke-width="0.738004" stroke-linecap="round"/>
<path d="M227.21 87.5436L242.105 88.0359" stroke="white" stroke-width="0.738004" stroke-linecap="round"/>
<path d="M227.21 93.8773H244.351" stroke="white" stroke-width="0.738004" stroke-linecap="round"/>
<path d="M315.267 102.136C308.387 101.578 307.128 105.076 306.708 108.301C306.288 111.527 310.31 116.046 314.943 114.687C319.577 113.327 320.748 111.52 320.468 107.743C320.188 103.966 317.382 102.981 317.382 102.981" stroke="white" stroke-width="0.738004" stroke-linecap="round"/>
<path d="M313.551 108.265L323.945 104.833" stroke="white" stroke-width="0.738004" stroke-linecap="round"/>
<path d="M162.378 173.764L178.85 175.939" stroke="white" stroke-width="0.738004" stroke-linecap="round"/>
<path d="M162.378 181.164L174.304 182.097" stroke="white" stroke-width="0.738004" stroke-linecap="round"/>
<path d="M161.067 185.712L178.85 186.579" stroke="white" stroke-width="0.738004" stroke-linecap="round"/>
<path d="M209.685 46.9387L227.21 45.6307" stroke="#0D3261" stroke-width="0.738004" stroke-linecap="round"/>
<path d="M209.685 51.6046H229.228" stroke="#0D3261" stroke-width="0.738004" stroke-linecap="round"/>
<path d="M255.393 157.084H272.616" stroke="#0D3261" stroke-width="0.738004" stroke-linecap="round"/>
<path d="M256.145 161.464H272.616" stroke="#0D3261" stroke-width="0.738004" stroke-linecap="round"/>
<path d="M168.345 157.084H181.553" stroke="#0D3261" stroke-width="0.738004" stroke-linecap="round"/>
<path d="M168.345 153.344H188.396" stroke="#0D3261" stroke-width="0.738004" stroke-linecap="round"/>
<path fill-rule="evenodd" clip-rule="evenodd" d="M226.701 9.77277C229.208 9.77277 231.239 7.58506 231.239 4.88639C231.239 2.18771 229.208 0 226.701 0C224.195 0 222.164 2.18771 222.164 4.88639C222.164 7.58506 224.195 9.77277 226.701 9.77277Z" fill="#FFD46A"/>
<path fill-rule="evenodd" clip-rule="evenodd" d="M380.681 97.7496C383.187 97.7496 385.218 95.5619 385.218 92.8632C385.218 90.1645 383.187 87.9768 380.681 87.9768C378.175 87.9768 376.143 90.1645 376.143 92.8632C376.143 95.5619 378.175 97.7496 380.681 97.7496Z" fill="#FFD46A"/>
<path fill-rule="evenodd" clip-rule="evenodd" d="M59.4479 97.7496C61.954 97.7496 63.9856 95.5619 63.9856 92.8632C63.9856 90.1645 61.954 87.9768 59.4479 87.9768C56.9419 87.9768 54.9103 90.1645 54.9103 92.8632C54.9103 95.5619 56.9419 97.7496 59.4479 97.7496Z" fill="#FFD46A"/>
<path fill-rule="evenodd" clip-rule="evenodd" d="M142.106 265.261C144.612 265.261 146.644 263.073 146.644 260.374C146.644 257.676 144.612 255.488 142.106 255.488C139.6 255.488 137.568 257.676 137.568 260.374C137.568 263.073 139.6 265.261 142.106 265.261Z" fill="#FFD46A"/>
<defs>
<filter id="filter0_i" x="356.6" y="192.4" width="53.8035" height="132.953" filterUnits="userSpaceOnUse" color-interpolation-filters="sRGB">
<feFlood flood-opacity="0" result="BackgroundImageFix"/>
<feBlend mode="normal" in="SourceGraphic" in2="BackgroundImageFix" result="shape"/>
<feColorMatrix in="SourceAlpha" type="matrix" values="0 0 0 0 0 0 0 0 0 0 0 0 0 0 0 0 0 0 127 0" result="hardAlpha"/>
<feOffset dy="-6.81811"/>
<feGaussianBlur stdDeviation="7.49992"/>
<feComposite in2="hardAlpha" operator="arithmetic" k2="-1" k3="1"/>
<feColorMatrix type="matrix" values="0 0 0 0 0.221483 0 0 0 0 0.77854 0 0 0 0 0.610041 0 0 0 1 0"/>
<feBlend mode="normal" in2="shape" result="effect1_innerShadow"/>
</filter>
<filter id="filter1_i" x="376.177" y="97.4567" width="30.1301" height="117.339" filterUnits="userSpaceOnUse" color-interpolation-filters="sRGB">
<feFlood flood-opacity="0" result="BackgroundImageFix"/>
<feBlend mode="normal" in="SourceGraphic" in2="BackgroundImageFix" result="shape"/>
<feColorMatrix in="SourceAlpha" type="matrix" values="0 0 0 0 0 0 0 0 0 0 0 0 0 0 0 0 0 0 127 0" result="hardAlpha"/>
<feOffset dy="-6.81811"/>
<feGaussianBlur stdDeviation="7.49992"/>
<feComposite in2="hardAlpha" operator="arithmetic" k2="-1" k3="1"/>
<feColorMatrix type="matrix" values="0 0 0 0 0.221483 0 0 0 0 0.77854 0 0 0 0 0.610041 0 0 0 1 0"/>
<feBlend mode="normal" in2="shape" result="effect1_innerShadow"/>
</filter>
<filter id="filter2_i" x="336.195" y="107.575" width="23.4619" height="156.297" filterUnits="userSpaceOnUse" color-interpolation-filters="sRGB">
<feFlood flood-opacity="0" result="BackgroundImageFix"/>
<feBlend mode="normal" in="SourceGraphic" in2="BackgroundImageFix" result="shape"/>
<feColorMatrix in="SourceAlpha" type="matrix" values="0 0 0 0 0 0 0 0 0 0 0 0 0 0 0 0 0 0 127 0" result="hardAlpha"/>
<feOffset dy="-6.81811"/>
<feGaussianBlur stdDeviation="7.49992"/>
<feComposite in2="hardAlpha" operator="arithmetic" k2="-1" k3="1"/>
<feColorMatrix type="matrix" values="0 0 0 0 0.221483 0 0 0 0 0.77854 0 0 0 0 0.610041 0 0 0 1 0"/>
<feBlend mode="normal" in2="shape" result="effect1_innerShadow"/>
</filter>
<filter id="filter3_i" x="356.363" y="106.796" width="27.9714" height="158.472" filterUnits="userSpaceOnUse" color-interpolation-filters="sRGB">
<feFlood flood-opacity="0" result="BackgroundImageFix"/>
<feBlend mode="normal" in="SourceGraphic" in2="BackgroundImageFix" result="shape"/>
<feColorMatrix in="SourceAlpha" type="matrix" values="0 0 0 0 0 0 0 0 0 0 0 0 0 0 0 0 0 0 127 0" result="hardAlpha"/>
<feOffset dy="-6.81811"/>
<feGaussianBlur stdDeviation="7.49992"/>
<feComposite in2="hardAlpha" operator="arithmetic" k2="-1" k3="1"/>
<feColorMatrix type="matrix" values="0 0 0 0 0.221483 0 0 0 0 0.77854 0 0 0 0 0.610041 0 0 0 1 0"/>
<feBlend mode="normal" in2="shape" result="effect1_innerShadow"/>
</filter>
<filter id="filter4_i" x="380.693" y="162.508" width="36.4677" height="97.749" filterUnits="userSpaceOnUse" color-interpolation-filters="sRGB">
<feFlood flood-opacity="0" result="BackgroundImageFix"/>
<feBlend mode="normal" in="SourceGraphic" in2="BackgroundImageFix" result="shape"/>
<feColorMatrix in="SourceAlpha" type="matrix" values="0 0 0 0 0 0 0 0 0 0 0 0 0 0 0 0 0 0 127 0" result="hardAlpha"/>
<feOffset dy="-6.81811"/>
<feGaussianBlur stdDeviation="7.49992"/>
<feComposite in2="hardAlpha" operator="arithmetic" k2="-1" k3="1"/>
<feColorMatrix type="matrix" values="0 0 0 0 0.221483 0 0 0 0 0.77854 0 0 0 0 0.610041 0 0 0 1 0"/>
<feBlend mode="normal" in2="shape" result="effect1_innerShadow"/>
</filter>
<filter id="filter5_i" x="312.951" y="191.488" width="44.8796" height="111.607" filterUnits="userSpaceOnUse" color-interpolation-filters="sRGB">
<feFlood flood-opacity="0" result="BackgroundImageFix"/>
<feBlend mode="normal" in="SourceGraphic" in2="BackgroundImageFix" result="shape"/>
<feColorMatrix in="SourceAlpha" type="matrix" values="0 0 0 0 0 0 0 0 0 0 0 0 0 0 0 0 0 0 127 0" result="hardAlpha"/>
<feOffset dy="-6.81811"/>
<feGaussianBlur stdDeviation="7.49992"/>
<feComposite in2="hardAlpha" operator="arithmetic" k2="-1" k3="1"/>
<feColorMatrix type="matrix" values="0 0 0 0 0.221483 0 0 0 0 0.77854 0 0 0 0 0.610041 0 0 0 1 0"/>
<feBlend mode="normal" in2="shape" result="effect1_innerShadow"/>
</filter>
<filter id="filter6_i" x="316.196" y="191.481" width="44.8774" height="111.607" filterUnits="userSpaceOnUse" color-interpolation-filters="sRGB">
<feFlood flood-opacity="0" result="BackgroundImageFix"/>
<feBlend mode="normal" in="SourceGraphic" in2="BackgroundImageFix" result="shape"/>
<feColorMatrix in="SourceAlpha" type="matrix" values="0 0 0 0 0 0 0 0 0 0 0 0 0 0 0 0 0 0 127 0" result="hardAlpha"/>
<feOffset dy="-6.81811"/>
<feGaussianBlur stdDeviation="7.49992"/>
<feComposite in2="hardAlpha" operator="arithmetic" k2="-1" k3="1"/>
<feColorMatrix type="matrix" values="0 0 0 0 0.221483 0 0 0 0 0.77854 0 0 0 0 0.610041 0 0 0 1 0"/>
<feBlend mode="normal" in2="shape" result="effect1_innerShadow"/>
</filter>
<linearGradient id="paint0_linear" x1="106.694" y1="48.6826" x2="125.572" y2="222.325" gradientUnits="userSpaceOnUse">
<stop stop-color="#EAF1FC"/>
<stop offset="1" stop-color="#C0D4F4"/>
</linearGradient>
<linearGradient id="paint1_linear" x1="116.884" y1="202.666" x2="302.494" y2="202.666" gradientUnits="userSpaceOnUse">
<stop stop-color="#0D3261"/>
<stop offset="1" stop-color="#0B63DA"/>
</linearGradient>
<linearGradient id="paint2_linear" x1="107.698" y1="215.079" x2="308.726" y2="215.079" gradientUnits="userSpaceOnUse">
<stop stop-color="#4C93F4"/>
<stop offset="1" stop-color="#0B63DA"/>
</linearGradient>
<linearGradient id="paint3_linear" x1="94.0625" y1="177.14" x2="75.1454" y2="176.056" gradientUnits="userSpaceOnUse">
<stop stop-color="#FFC063"/>
<stop offset="0.95" stop-color="#E44D0B"/>
</linearGradient>
<linearGradient id="paint4_linear" x1="43.6986" y1="366.857" x2="51.5153" y2="356.334" gradientUnits="userSpaceOnUse">
<stop stop-color="#223762"/>
<stop offset="1" stop-color="#041B48"/>
</linearGradient>
<linearGradient id="paint5_linear" x1="95.5064" y1="390.207" x2="127.417" y2="390.207" gradientUnits="userSpaceOnUse">
<stop stop-color="#223762"/>
<stop offset="1" stop-color="#041B48"/>
</linearGradient>
<linearGradient id="paint6_linear" x1="80.7562" y1="342.79" x2="120.834" y2="307.785" gradientUnits="userSpaceOnUse">
<stop stop-color="#3769A5"/>
<stop offset="1" stop-color="#08448B"/>
</linearGradient>
<linearGradient id="paint7_linear" x1="253.657" y1="194.768" x2="146.044" y2="98.2207" gradientUnits="userSpaceOnUse">
<stop stop-color="#223762"/>
<stop offset="1" stop-color="#041B48"/>
</linearGradient>
<linearGradient id="paint8_linear" x1="76.118" y1="374.597" x2="129.156" y2="374.597" gradientUnits="userSpaceOnUse">
<stop stop-color="#4C93F4"/>
<stop offset="1" stop-color="#0B63DA"/>
</linearGradient>
<linearGradient id="paint9_linear" x1="195.662" y1="249.545" x2="94.4316" y2="236.627" gradientUnits="userSpaceOnUse">
<stop stop-color="#3769A5"/>
<stop offset="1" stop-color="#08448B"/>
</linearGradient>
<linearGradient id="paint10_linear" x1="349.474" y1="233.56" x2="422.134" y2="299.892" gradientUnits="userSpaceOnUse">
<stop stop-color="#B1FFBE"/>
<stop offset="0.444207" stop-color="#5CDB8E"/>
<stop offset="1" stop-color="#149654"/>
</linearGradient>
<linearGradient id="paint11_linear" x1="372.186" y1="134.366" x2="427.841" y2="166.838" gradientUnits="userSpaceOnUse">
<stop stop-color="#B1FFBE"/>
<stop offset="0.444207" stop-color="#5CDB8E"/>
<stop offset="1" stop-color="#149654"/>
</linearGradient>
<linearGradient id="paint12_linear" x1="333.088" y1="155.091" x2="385.288" y2="172.626" gradientUnits="userSpaceOnUse">
<stop stop-color="#B1FFBE"/>
<stop offset="0.444207" stop-color="#5CDB8E"/>
<stop offset="1" stop-color="#149654"/>
</linearGradient>
<linearGradient id="paint13_linear" x1="352.658" y1="154.904" x2="412.578" y2="178.557" gradientUnits="userSpaceOnUse">
<stop stop-color="#B1FFBE"/>
<stop offset="0.444207" stop-color="#5CDB8E"/>
<stop offset="1" stop-color="#149654"/>
</linearGradient>
<linearGradient id="paint14_linear" x1="375.863" y1="194.083" x2="427.854" y2="238.708" gradientUnits="userSpaceOnUse">
<stop stop-color="#B1FFBE"/>
<stop offset="0.444207" stop-color="#5CDB8E"/>
<stop offset="1" stop-color="#149654"/>
</linearGradient>
<linearGradient id="paint15_linear" x1="340.071" y1="308.92" x2="314.566" y2="409.193" gradientUnits="userSpaceOnUse">
<stop stop-color="#86A8D9"/>
<stop offset="1" stop-color="#BCD0F2"/>
</linearGradient>
<linearGradient id="paint16_linear" x1="338.265" y1="308.92" x2="290.416" y2="385.962" gradientUnits="userSpaceOnUse">
<stop stop-color="#86A8D9"/>
<stop offset="1" stop-color="#BCD0F2"/>
</linearGradient>
<linearGradient id="paint17_linear" x1="396.477" y1="343.121" x2="397.924" y2="328.009" gradientUnits="userSpaceOnUse">
<stop stop-color="#ACC5E9"/>
<stop offset="0.627469" stop-color="#D3E3FB"/>
<stop offset="1" stop-color="#EAF2FF"/>
</linearGradient>
<linearGradient id="paint18_linear" x1="307.006" y1="226.837" x2="367.392" y2="282.187" gradientUnits="userSpaceOnUse">
<stop stop-color="#B1FFBE"/>
<stop offset="0.444207" stop-color="#5CDB8E"/>
<stop offset="1" stop-color="#149654"/>
</linearGradient>
<linearGradient id="paint19_linear" x1="306.463" y1="219.495" x2="368.835" y2="263.156" gradientUnits="userSpaceOnUse">
<stop stop-color="#4C93F4"/>
<stop offset="1" stop-color="#0B63DA"/>
</linearGradient>
<linearGradient id="paint20_linear" x1="310.251" y1="226.83" x2="370.637" y2="282.177" gradientUnits="userSpaceOnUse">
<stop stop-color="#B1FFBE"/>
<stop offset="0.444207" stop-color="#5CDB8E"/>
<stop offset="1" stop-color="#149654"/>
</linearGradient>
<linearGradient id="paint21_linear" x1="175.242" y1="89.3725" x2="176.387" y2="82.2603" gradientUnits="userSpaceOnUse">
<stop stop-color="#4C93F4"/>
<stop offset="1" stop-color="#0B63DA"/>
</linearGradient>
<linearGradient id="paint22_linear" x1="0" y1="2.08814" x2="2.03552" y2="2.08814" gradientUnits="userSpaceOnUse">
<stop stop-color="#4C93F4"/>
<stop offset="1" stop-color="#0B63DA"/>
</linearGradient>
<linearGradient id="paint23_linear" x1="167.053" y1="79.1876" x2="167.053" y2="100.513" gradientUnits="userSpaceOnUse">
<stop stop-color="#4376C9"/>
<stop offset="1" stop-color="#D6E3FA"/>
</linearGradient>
<linearGradient id="paint24_linear" x1="161.854" y1="246.271" x2="208.345" y2="99.9901" gradientUnits="userSpaceOnUse">
<stop stop-color="#FFC063"/>
<stop offset="0.95" stop-color="#E44D0B"/>
</linearGradient>
<linearGradient id="paint25_linear" x1="106.247" y1="117.92" x2="106.247" y2="127.173" gradientUnits="userSpaceOnUse">
<stop stop-color="#4376C9"/>
<stop offset="1" stop-color="#D6E3FA"/>
</linearGradient>
<linearGradient id="paint26_linear" x1="67.778" y1="100.519" x2="67.778" y2="148.536" gradientUnits="userSpaceOnUse">
<stop stop-color="#4376C9"/>
<stop offset="1" stop-color="#D6E3FA"/>
</linearGradient>
<linearGradient id="paint27_linear" x1="133.322" y1="185.103" x2="125.71" y2="144.493" gradientUnits="userSpaceOnUse">
<stop stop-color="#FFC063"/>
<stop offset="0.95" stop-color="#E44D0B"/>
</linearGradient>
<linearGradient id="paint28_linear" x1="69.8129" y1="122.441" x2="90.4708" y2="152.914" gradientUnits="userSpaceOnUse">
<stop stop-color="#223762"/>
<stop offset="1" stop-color="#041B48"/>
</linearGradient>
<linearGradient id="paint29_linear" x1="93.4689" y1="91.7868" x2="70.6998" y2="103.811" gradientUnits="userSpaceOnUse">
<stop stop-color="#223762"/>
<stop offset="1" stop-color="#041B48"/>
</linearGradient>
<linearGradient id="paint30_linear" x1="179.1" y1="150.965" x2="155.613" y2="125.81" gradientUnits="userSpaceOnUse">
<stop stop-color="#FFC063"/>
<stop offset="0.95" stop-color="#E44D0B"/>
</linearGradient>
<linearGradient id="paint31_linear" x1="292.505" y1="85.8499" x2="301.927" y2="52.1547" gradientUnits="userSpaceOnUse">
<stop stop-color="#223762"/>
<stop offset="1" stop-color="#041B48"/>
</linearGradient>
<linearGradient id="paint32_linear" x1="297.458" y1="82.0139" x2="302.492" y2="47.1862" gradientUnits="userSpaceOnUse">
<stop stop-color="#4C93F4"/>
<stop offset="1" stop-color="#0B63DA"/>
</linearGradient>
<linearGradient id="paint33_linear" x1="27.6643" y1="32.5773" x2="37.0863" y2="-1.12543" gradientUnits="userSpaceOnUse">
<stop stop-color="#223762"/>
<stop offset="1" stop-color="#041B48"/>
</linearGradient>
<linearGradient id="paint34_linear" x1="330.395" y1="126.838" x2="337.11" y2="92.5039" gradientUnits="userSpaceOnUse">
<stop stop-color="#4C93F4"/>
<stop offset="1" stop-color="#0B63DA"/>
</linearGradient>
<linearGradient id="paint35_linear" x1="210.402" y1="334.004" x2="215.798" y2="307.459" gradientUnits="userSpaceOnUse">
<stop stop-color="#4C93F4"/>
<stop offset="1" stop-color="#0B63DA"/>
</linearGradient>
<linearGradient id="paint36_linear" x1="247.946" y1="113.721" x2="256.576" y2="82.8627" gradientUnits="userSpaceOnUse">
<stop stop-color="#223762"/>
<stop offset="1" stop-color="#041B48"/>
</linearGradient>
<linearGradient id="paint37_linear" x1="194.93" y1="84.1779" x2="194.93" y2="137.289" gradientUnits="userSpaceOnUse">
<stop stop-color="#FFC063"/>
<stop offset="0.95" stop-color="#E44D0B"/>
</linearGradient>
<linearGradient id="paint38_linear" x1="24.8858" y1="30.008" x2="34.0418" y2="-1.26054" gradientUnits="userSpaceOnUse">
<stop stop-color="#223762"/>
<stop offset="1" stop-color="#041B48"/>
</linearGradient>
<linearGradient id="paint39_linear" x1="132.072" y1="168.337" x2="128.466" y2="221.224" gradientUnits="userSpaceOnUse">
<stop stop-color="#FFC063"/>
<stop offset="0.95" stop-color="#E44D0B"/>
</linearGradient>
<linearGradient id="paint40_linear" x1="426.831" y1="390.217" x2="0.951592" y2="390.217" gradientUnits="userSpaceOnUse">
<stop stop-color="#223762"/>
<stop offset="1" stop-color="#041B48"/>
</linearGradient>
<linearGradient id="paint41_linear" x1="226.333" y1="191.307" x2="237.552" y2="191.307" gradientUnits="userSpaceOnUse">
<stop stop-color="#4C93F4"/>
<stop offset="1" stop-color="#0B63DA"/>
</linearGradient>
<linearGradient id="paint42_linear" x1="241.751" y1="275.671" x2="228.175" y2="316.807" gradientUnits="userSpaceOnUse">
<stop stop-color="#FFC063"/>
<stop offset="0.95" stop-color="#E44D0B"/>
</linearGradient>
</defs>
</svg>
