<svg width="443" height="407" viewBox="0 0 443 407" fill="none" xmlns="http://www.w3.org/2000/svg">
<path opacity="0.49" fill-rule="evenodd" clip-rule="evenodd" d="M410.032 249.056C410.032 249.056 387.837 302.017 380.306 315.41C372.776 328.803 361.413 348.805 383.644 360.721C405.875 372.638 411.7 372.084 425.035 354.025C435.814 339.435 433.894 257.34 427.811 248.318C421.727 239.296 418.367 241.237 415.311 242.625C412.254 244.013 410.032 249.056 410.032 249.056Z" fill="url(#paint0_linear)"/>
<path opacity="0.49" fill-rule="evenodd" clip-rule="evenodd" d="M122.799 94.1473C218.967 94.7306 277.612 19.0665 323.322 4.51399C392.046 -17.348 482.698 39.2155 424.237 195.742C365.776 352.268 335.49 392.012 230.189 405.346C145.938 416.052 71.7436 354.822 42.1808 305.952C-4.0682 229.498 26.6242 93.5714 122.799 94.1473Z" fill="url(#paint1_linear)"/>
<path opacity="0.1" fill-rule="evenodd" clip-rule="evenodd" d="M391.861 276.028V190.27H339.868V79.9935L313.384 58.5819L285.542 81.0936V190.27H220.022V102.963H196.396L154.739 136.638H94.3438V206.861H21.862C18.5469 241.437 25.1032 277.74 42.1882 305.952C45.3396 311.128 48.7552 316.138 52.4215 320.962H368.818C376.548 308.019 384.124 293.12 391.861 276.028Z" fill="#4C93F4"/>
<path fill-rule="evenodd" clip-rule="evenodd" d="M254.059 390.129L194.764 397.542H258.925V390.129H254.059Z" fill="url(#paint2_linear)"/>
<path fill-rule="evenodd" clip-rule="evenodd" d="M263.791 390.129L323.093 397.542H258.925V390.129H263.791Z" fill="url(#paint3_linear)"/>
<rect x="254.059" y="300.274" width="9.70904" height="89.8548" fill="url(#paint4_linear)"/>
<rect x="250.006" y="304.896" width="17.8159" height="16.5977" fill="url(#paint5_linear)"/>
<path fill-rule="evenodd" clip-rule="evenodd" d="M168.428 397.527H177.657L141.582 262.907H132.36L168.428 397.527Z" fill="url(#paint6_linear)"/>
<path fill-rule="evenodd" clip-rule="evenodd" d="M96.0125 397.527H86.7833L122.851 262.907H132.08L96.0125 397.527Z" fill="url(#paint7_linear)"/>
<path fill-rule="evenodd" clip-rule="evenodd" d="M381.96 397.527H391.189L355.115 262.907H345.893L381.96 397.527Z" fill="url(#paint8_linear)"/>
<path fill-rule="evenodd" clip-rule="evenodd" d="M309.545 397.527H300.316L336.383 262.907H345.612L309.545 397.527Z" fill="url(#paint9_linear)"/>
<path fill-rule="evenodd" clip-rule="evenodd" d="M122.135 397.527H131.364L95.2889 262.907H86.0598L122.135 397.527Z" fill="url(#paint10_linear)"/>
<path fill-rule="evenodd" clip-rule="evenodd" d="M232.921 383.078C232.921 383.078 234.398 389.686 234.457 392.219C234.466 394.017 234.218 395.807 233.718 397.535H192.387C192.387 397.535 186.96 397.83 185.601 395.748C184.243 393.666 186.34 391.473 191.84 389.28C200.929 385.662 216.087 383.085 216.087 383.085L217.896 374.307L232.921 383.078Z" fill="url(#paint11_linear)"/>
<path fill-rule="evenodd" clip-rule="evenodd" d="M161.694 383.078C161.694 383.078 163.171 389.686 163.23 392.219C163.24 394.017 162.991 395.807 162.492 397.535H121.138C121.138 397.535 115.711 397.83 114.353 395.748C112.994 393.666 115.091 391.473 120.591 389.28C129.68 385.662 144.838 383.085 144.838 383.085L146.647 374.307L161.694 383.078Z" fill="url(#paint12_linear)"/>
<rect x="173.98" y="292.367" width="20.784" height="9.32511" fill="url(#paint13_linear)"/>
<path fill-rule="evenodd" clip-rule="evenodd" d="M332.345 185.324H246.093C243.996 185.324 242.29 187.369 242.276 189.909V190.056C242.091 201.297 241.317 212.52 239.957 223.68C238.911 232.671 237.293 241.585 235.114 250.37C232.899 259.038 229.946 267.012 226.342 272.934C222.309 279.512 216.898 285.139 210.483 289.428C204.089 293.659 196.89 296.213 189.67 296.206C184.753 296.208 179.911 295.004 175.568 292.699C173.64 291.687 171.403 292.765 170.569 295.099C169.735 297.432 170.621 300.141 172.548 301.153C177.249 303.643 182.437 305.079 187.75 305.361L187.861 305.42H274.304L312.698 282.266L325.294 260.655L332.987 202.431L332.345 185.324Z" fill="url(#paint14_linear)"/>
<g filter="url(#filter0_i)">
<path fill-rule="evenodd" clip-rule="evenodd" d="M243.184 174.167L202.339 233.972L157.737 242.913L160.255 254.727C160.255 254.727 210.121 254.453 214.736 253.368C219.351 252.283 255.772 204.786 255.772 204.786L243.184 174.167Z" fill="#C9D8F4"/>
</g>
<path fill-rule="evenodd" clip-rule="evenodd" d="M213.289 269.626C199.999 271.524 193.11 272.882 187.322 280.214C181.533 287.545 143.679 377.378 143.679 377.378C143.679 377.378 149.069 381.963 155.802 382.546L162.536 383.1L210.306 301.146L213.289 269.626Z" fill="url(#paint15_linear)"/>
<path fill-rule="evenodd" clip-rule="evenodd" d="M191.966 288.077C193.443 301.367 190.046 316.577 188.562 324.314C187.078 332.052 161.429 356.343 155.729 369.234C153.919 373.218 152.49 377.364 151.461 381.616C152.86 382.087 154.31 382.392 155.78 382.524L162.514 383.078L210.284 301.124L213.237 269.641C205.116 270.8 199.401 271.768 194.853 274.005C192.411 278.266 191.399 283.198 191.966 288.077Z" fill="url(#paint16_linear)"/>
<g filter="url(#filter1_i)">
<path fill-rule="evenodd" clip-rule="evenodd" d="M286.568 161.018C286.568 161.018 301.888 165.559 309.058 174.167C316.227 182.776 299.961 283.44 299.961 283.44L294.845 282.857L222.88 274.639C222.88 274.639 232.537 183.633 240.275 176.028C248.012 168.423 260.631 163.572 260.631 163.572L286.568 161.018Z" fill="url(#paint17_linear)"/>
</g>
<g filter="url(#filter2_i)">
<path fill-rule="evenodd" clip-rule="evenodd" d="M232.951 273.606C234.583 273.658 236.037 274.651 236.679 276.153L245.606 277.172C246.145 275.174 248.065 273.87 250.121 274.104C252.178 274.339 253.754 276.041 253.831 278.11L262.292 279.092V278.685C262.308 277.028 263.296 275.535 264.814 274.871C266.333 274.207 268.1 274.496 269.327 275.61C270.555 276.723 271.015 278.453 270.502 280.029L279.51 281.056C279.232 280.468 279.095 279.823 279.111 279.173C279.156 277.345 280.376 275.755 282.131 275.239C283.885 274.723 285.771 275.399 286.799 276.912C287.827 278.424 287.76 280.427 286.635 281.868L295.022 282.828L297.584 283.123C295.899 281.921 295.346 279.668 296.282 277.822C297.217 275.976 299.362 275.091 301.327 275.74C301.719 273.192 302.184 270.091 302.701 266.577C300.801 267.66 298.388 267.105 297.153 265.3C295.918 263.495 296.274 261.045 297.971 259.666C299.669 258.288 302.14 258.442 303.653 260.02C307.98 229.749 314.174 180.074 309.235 174.138C304.295 168.202 295.465 164.2 290.466 162.288C289.658 163.806 288.002 164.674 286.294 164.475C284.586 164.276 283.174 163.05 282.736 161.387L273.337 162.31C272.637 163.267 271.563 163.879 270.383 163.995C269.203 164.111 268.03 163.718 267.157 162.915L260.83 163.536C260.83 163.536 248.19 168.349 240.452 175.954C240.258 176.157 240.082 176.377 239.928 176.611C239.757 177.311 239.409 177.954 238.916 178.479C237.595 181.77 236.552 185.166 235.8 188.631C237.428 188.764 238.83 189.828 239.395 191.36C239.96 192.892 239.584 194.612 238.433 195.769C237.281 196.927 235.563 197.31 234.029 196.753C233.408 199.869 232.795 203.199 232.197 206.676C233.554 205.584 235.444 205.443 236.947 206.323C238.45 207.203 239.252 208.92 238.964 210.637C238.675 212.354 237.355 213.715 235.648 214.055C233.94 214.395 232.199 213.645 231.275 212.169C226.689 240.381 223.057 274.551 223.057 274.551L229.466 275.289C230.284 274.195 231.584 273.567 232.951 273.606ZM303.21 173.422C304.912 173.47 306.417 174.539 307.023 176.13C307.629 177.721 307.217 179.521 305.979 180.689C304.74 181.858 302.92 182.165 301.367 181.468C299.814 180.771 298.833 179.207 298.883 177.505C298.914 176.389 299.388 175.33 300.199 174.563C301.011 173.796 302.094 173.383 303.21 173.414V173.422ZM306.528 193.282C305.922 191.691 304.417 190.622 302.715 190.573C300.394 190.507 298.457 192.334 298.389 194.656C298.339 196.358 299.319 197.922 300.872 198.619C302.425 199.317 304.246 199.009 305.484 197.841C306.722 196.672 307.134 194.873 306.528 193.282ZM302.213 207.725C303.915 207.773 305.42 208.842 306.026 210.433C306.632 212.024 306.22 213.824 304.982 214.992C303.744 216.161 301.923 216.468 300.37 215.771C298.817 215.074 297.837 213.509 297.887 211.808C297.955 209.486 299.891 207.658 302.213 207.725ZM305.524 227.585C304.918 225.994 303.413 224.925 301.711 224.876C299.389 224.81 297.453 226.637 297.385 228.959C297.335 230.661 298.315 232.225 299.868 232.922C301.421 233.619 303.241 233.312 304.48 232.144C305.718 230.975 306.13 229.176 305.524 227.585ZM301.239 242.035C302.941 242.083 304.445 243.152 305.052 244.743C305.658 246.334 305.245 248.134 304.007 249.302C302.769 250.471 300.949 250.778 299.395 250.081C297.842 249.384 296.862 247.82 296.912 246.118C296.98 243.796 298.917 241.969 301.239 242.035ZM290.226 175.636C289.62 174.045 288.115 172.976 286.413 172.927H286.391C284.078 172.873 282.155 174.697 282.086 177.01C282.036 178.712 283.017 180.276 284.57 180.973C286.123 181.67 287.943 181.363 289.182 180.195C290.42 179.026 290.832 177.227 290.226 175.636ZM285.911 190.078C287.613 190.127 289.118 191.196 289.724 192.787C290.33 194.378 289.918 196.177 288.679 197.346C287.441 198.514 285.621 198.822 284.068 198.125C282.514 197.427 281.534 195.863 281.584 194.161C281.653 191.848 283.576 190.025 285.889 190.078H285.911ZM289.222 209.939C288.616 208.348 287.111 207.278 285.409 207.23L285.387 207.237C283.076 207.183 281.155 209.003 281.082 211.313C281.032 213.015 282.012 214.579 283.566 215.276C285.119 215.973 286.939 215.666 288.177 214.497C289.416 213.329 289.828 211.529 289.222 209.939ZM284.907 224.381C286.609 224.43 288.114 225.499 288.72 227.09C289.326 228.681 288.914 230.48 287.675 231.649C286.437 232.817 284.617 233.125 283.064 232.427C281.51 231.73 280.53 230.166 280.58 228.464C280.653 226.151 282.579 224.331 284.892 224.389L284.907 224.381ZM288.218 244.241C287.612 242.65 286.107 241.581 284.405 241.533L284.39 241.54C282.077 241.482 280.151 243.303 280.078 245.616C280.028 247.317 281.008 248.882 282.561 249.579C284.115 250.276 285.935 249.969 287.173 248.8C288.411 247.632 288.824 245.832 288.218 244.241ZM283.917 258.241C285.619 258.29 287.124 259.359 287.73 260.95C288.336 262.541 287.924 264.34 286.686 265.509C285.448 266.677 283.627 266.984 282.074 266.287C280.521 265.59 279.541 264.026 279.591 262.324C279.663 260.011 281.589 258.191 283.903 258.248L283.917 258.241ZM273.385 175.148C272.778 173.557 271.274 172.488 269.572 172.44C267.25 172.374 265.313 174.201 265.245 176.523C265.195 178.225 266.175 179.789 267.728 180.486C269.282 181.183 271.102 180.876 272.34 179.707C273.578 178.539 273.991 176.739 273.385 175.148ZM269.07 189.591C270.771 189.64 272.276 190.709 272.882 192.3C273.489 193.891 273.076 195.69 271.838 196.859C270.6 198.027 268.78 198.335 267.226 197.637C265.673 196.94 264.693 195.376 264.743 193.674C264.811 191.352 266.748 189.525 269.07 189.591ZM272.38 209.444C271.774 207.853 270.269 206.784 268.568 206.735C266.246 206.669 264.309 208.496 264.241 210.818C264.191 212.52 265.171 214.084 266.724 214.781C268.278 215.479 270.098 215.171 271.336 214.003C272.574 212.834 272.987 211.035 272.38 209.444ZM268.066 223.887C269.767 223.935 271.272 225.004 271.878 226.595C272.484 228.186 272.072 229.986 270.834 231.154C269.596 232.323 267.776 232.63 266.222 231.933C264.669 231.236 263.689 229.671 263.739 227.97C263.815 225.651 265.754 223.831 268.073 223.901L268.066 223.887ZM271.376 243.747C270.77 242.156 269.265 241.087 267.563 241.038L267.571 241.053C265.252 240.982 263.313 242.802 263.237 245.121C263.187 246.823 264.167 248.387 265.72 249.084C267.273 249.781 269.094 249.474 270.332 248.306C271.57 247.137 271.982 245.338 271.376 243.747ZM267.076 257.746C268.778 257.795 270.283 258.864 270.889 260.455C271.495 262.046 271.083 263.846 269.845 265.014C268.606 266.183 266.786 266.49 265.233 265.793C263.68 265.096 262.699 263.531 262.75 261.829C262.826 259.511 264.764 257.691 267.084 257.761L267.076 257.746ZM256.558 174.654C255.952 173.063 254.447 171.994 252.745 171.945C250.423 171.879 248.487 173.706 248.419 176.028C248.368 177.73 249.349 179.294 250.902 179.991C252.455 180.688 254.275 180.381 255.514 179.213C256.752 178.044 257.164 176.245 256.558 174.654ZM252.243 189.096C253.945 189.145 255.45 190.214 256.056 191.805C256.662 193.396 256.25 195.196 255.012 196.364C253.773 197.533 251.953 197.84 250.4 197.143C248.847 196.446 247.866 194.881 247.917 193.179C247.989 190.858 249.929 189.033 252.25 189.104L252.243 189.096ZM255.583 208.964C254.977 207.373 253.472 206.304 251.771 206.255C249.449 206.189 247.512 208.016 247.444 210.338C247.394 212.04 248.374 213.604 249.927 214.302C251.481 214.999 253.301 214.691 254.539 213.523C255.777 212.354 256.189 210.555 255.583 208.964ZM251.269 223.407C252.97 223.455 254.475 224.524 255.081 226.115C255.687 227.706 255.275 229.506 254.037 230.674C252.799 231.843 250.978 232.15 249.425 231.453C247.872 230.756 246.892 229.191 246.942 227.49C247.01 225.177 248.933 223.353 251.246 223.407H251.269ZM254.579 243.267C253.973 241.676 252.468 240.607 250.766 240.558L250.752 240.565C248.438 240.508 246.512 242.328 246.44 244.641C246.39 246.343 247.37 247.907 248.923 248.604C250.476 249.302 252.297 248.994 253.535 247.826C254.773 246.657 255.185 244.858 254.579 243.267ZM250.294 257.274C252.611 257.356 254.426 259.298 254.351 261.615C254.277 263.933 252.341 265.754 250.023 265.687C247.705 265.619 245.878 263.69 245.938 261.372C245.967 260.249 246.443 259.184 247.261 258.414C248.079 257.645 249.171 257.234 250.294 257.274ZM238.27 225.628C237.664 224.037 236.159 222.968 234.457 222.919H234.427C232.117 222.87 230.199 224.692 230.13 227.002C230.08 228.704 231.06 230.269 232.613 230.966C234.167 231.663 235.987 231.355 237.225 230.187C238.463 229.019 238.876 227.219 238.27 225.628ZM233.955 240.071C235.657 240.119 237.161 241.188 237.768 242.779C238.374 244.37 237.961 246.17 236.723 247.338C235.485 248.507 233.665 248.814 232.111 248.117C230.558 247.42 229.578 245.856 229.628 244.154C229.696 241.841 231.619 240.017 233.933 240.071H233.955ZM237.28 259.488C236.674 257.897 235.169 256.828 233.467 256.779H233.445C231.132 256.725 229.209 258.549 229.141 260.862C229.091 262.564 230.071 264.128 231.624 264.825C233.177 265.523 234.998 265.215 236.236 264.047C237.474 262.878 237.886 261.079 237.28 259.488Z" fill="url(#paint18_linear)"/>
</g>
<g filter="url(#filter3_i)">
<path fill-rule="evenodd" clip-rule="evenodd" d="M288.909 192.183C288.909 192.183 293.892 201.227 293.626 207.739C292.379 238.011 224.401 261.143 224.401 261.143L222.872 274.603L299.954 283.403L311.191 210.545L288.909 192.183Z" fill="url(#paint19_linear)"/>
</g>
<path fill-rule="evenodd" clip-rule="evenodd" d="M298.175 283.197C298.175 283.197 235.815 255.915 210.897 268.017C192.187 277.083 215.784 382.281 215.784 382.281C215.784 382.281 222.821 385.537 228.395 384.998L233.969 384.451L237.986 292.5L275.582 300.725L296.344 292.854L298.175 283.197Z" fill="url(#paint20_linear)"/>
<path fill-rule="evenodd" clip-rule="evenodd" d="M296.366 292.832L298.197 283.234C288.783 279.243 279.172 275.733 269.402 272.72C268.353 275.289 266.906 278.154 265.304 279.468C262.056 282.141 231.932 276.795 223.648 279.468C215.364 282.141 221.883 287.885 226.601 294.508C231.319 301.131 220.362 315.521 223.648 333.706L226.904 351.891L228.004 385.027H228.439L234.014 384.481L238.03 292.529L275.626 300.754L296.366 292.832Z" fill="url(#paint21_linear)"/>
<path fill-rule="evenodd" clip-rule="evenodd" d="M273.765 240.699C270.074 239.999 266.298 239.862 262.565 240.292C256.703 241.031 253.365 246.376 253.365 246.376C253.365 246.376 270.554 251.153 273.153 251.22C275.752 251.286 279.716 249.071 279.716 249.071L273.765 240.699Z" fill="url(#paint22_linear)"/>
<path fill-rule="evenodd" clip-rule="evenodd" d="M273.765 240.699C270.074 239.999 266.298 239.862 262.565 240.292C256.703 241.031 253.365 246.376 253.365 246.376C253.365 246.376 270.554 251.153 273.153 251.22C275.752 251.286 279.716 249.071 279.716 249.071L273.765 240.699Z" fill="#C68B5E"/>
<rect x="237.942" y="292.367" width="20.784" height="9.76073" fill="url(#paint23_linear)"/>
<g filter="url(#filter4_i)">
<path fill-rule="evenodd" clip-rule="evenodd" d="M309.508 174.839C309.508 174.839 332.071 218.563 331.304 225.784C330.536 233.005 278.764 250.193 278.764 250.193C278.764 250.193 272.968 241.267 272.732 239.982C272.392 238.159 308.829 218.342 308.829 218.342C308.829 218.342 289.558 199.441 288.2 189.48C286.841 179.52 296.026 172.565 301.8 172.565C307.574 172.565 309.508 174.839 309.508 174.839Z" fill="#C9D8F4"/>
</g>
<path fill-rule="evenodd" clip-rule="evenodd" d="M326.91 189.886V190.034C326.729 201.282 325.958 212.513 324.599 223.68C323.553 232.67 321.935 241.585 319.756 250.37C317.541 259.038 314.588 267.012 310.985 272.934C306.949 279.513 301.536 285.14 295.118 289.428C288.724 293.659 281.525 296.213 274.304 296.206C269.388 296.208 264.545 295.004 260.202 292.699C258.275 291.687 256.038 292.765 255.204 295.098C254.37 297.432 255.256 300.141 257.183 301.153C262.456 303.952 268.334 305.418 274.304 305.42C283.002 305.42 291.397 302.378 298.758 297.52C306.187 292.546 312.445 286.016 317.098 278.383C321.602 270.999 324.821 261.807 327.243 252.179C330.861 237.745 332.655 222.255 333.57 210.316C334.486 198.377 334.515 189.997 334.515 189.894C334.515 187.354 332.824 185.279 330.728 185.272C328.631 185.264 326.925 187.317 326.91 189.857V189.886Z" fill="url(#paint24_linear)"/>
<path fill-rule="evenodd" clip-rule="evenodd" d="M264.854 161.018L260.645 163.573C260.645 163.573 259.464 164.865 263.311 168.386C267.157 171.908 272.171 171.51 277.553 169.066C282.935 166.622 286.561 161.018 286.561 161.018L283.201 160.169L264.854 161.018Z" fill="white"/>
<path fill-rule="evenodd" clip-rule="evenodd" d="M262.107 147.868L264.832 161.018C264.832 161.018 266.788 163.506 272.304 163.572C277.819 163.639 283.179 160.169 283.179 160.169L283.342 146.775L262.107 147.868Z" fill="#B78057"/>
<path fill-rule="evenodd" clip-rule="evenodd" d="M254.849 100.327C254.849 100.327 253.631 119.125 253.373 125.696C253.114 132.267 261.28 133.951 261.28 133.951L273.197 121.488L267.933 101.841L254.849 100.327Z" fill="url(#paint25_linear)"/>
<path fill-rule="evenodd" clip-rule="evenodd" d="M254.908 122.772C255.292 130.156 255.824 139.126 258.925 146.945C262.026 154.764 277.435 156.47 282.552 150.26C287.668 144.051 289.507 134.113 289.507 134.113C289.507 134.113 294.815 134.482 296.189 130.517C297.562 126.553 297.252 120.624 294.778 119.442C292.305 118.261 289.942 120.993 289.942 120.993C289.942 120.993 290.902 113.344 285.424 108.537C279.945 103.731 259.169 105.355 258.017 106.322C256.865 107.29 254.525 115.36 254.908 122.772Z" fill="url(#paint26_linear)"/>
<path fill-rule="evenodd" clip-rule="evenodd" d="M254.908 122.772C255.292 130.156 255.824 139.126 258.925 146.945C262.026 154.764 277.435 156.47 282.552 150.26C287.668 144.051 289.507 134.113 289.507 134.113C289.507 134.113 294.815 134.482 296.189 130.517C297.562 126.553 297.252 120.624 294.778 119.442C292.305 118.261 289.942 120.993 289.942 120.993C289.942 120.993 290.902 113.344 285.424 108.537C279.945 103.731 259.169 105.355 258.017 106.322C256.865 107.29 254.525 115.36 254.908 122.772Z" fill="#C68B5E"/>
<path fill-rule="evenodd" clip-rule="evenodd" d="M286.472 130.687C286.472 130.687 288.451 121.178 287.735 116.88C287.018 112.583 284.641 109.741 279.724 108.02C274.807 106.3 260.631 107.976 257.507 107.061C254.384 106.145 252.538 104.632 253.639 98.3853C254.739 92.139 263.746 83.375 276.527 84.6893C289.307 86.0035 295.339 91.7551 299.526 95.6166C303.712 99.478 301.121 110.014 299.976 118.867C298.832 127.719 295.746 139.761 293.117 143.97C290.489 148.178 284.715 147.233 284.715 147.233L289.425 133.286C289.425 133.286 291.544 134.231 293.996 131.344C296.447 128.457 297.422 123.356 296.011 120.897C294.601 118.438 290.658 119.014 289.366 122.182C288.074 125.349 286.472 130.687 286.472 130.687Z" fill="url(#paint27_linear)"/>
<path fill-rule="evenodd" clip-rule="evenodd" d="M331.614 252.047H292.379L303.35 199.5H342.585L331.614 252.047Z" fill="#223762"/>
<g filter="url(#filter5_i)">
<path fill-rule="evenodd" clip-rule="evenodd" d="M335.054 252.047H295.103L306.274 199.5H346.225L335.054 252.047Z" fill="url(#paint28_linear)"/>
<path fill-rule="evenodd" clip-rule="evenodd" d="M335.054 252.047H295.103L306.274 199.5H346.225L335.054 252.047Z" fill="url(#paint29_linear)" fill-opacity="0.23"/>
</g>
<path fill-rule="evenodd" clip-rule="evenodd" d="M325.906 215.831L339.189 252.046H318.213L323.802 215.831H325.906Z" fill="#223762"/>
<path fill-rule="evenodd" clip-rule="evenodd" d="M323.802 215.831L337.085 252.046H316.109L323.802 215.831Z" fill="#4C93F4"/>
<path fill-rule="evenodd" clip-rule="evenodd" d="M255.772 248.318L274.733 251.995L266.124 252.047H255.772V248.318Z" fill="#3769A5"/>
<path fill-rule="evenodd" clip-rule="evenodd" d="M256.127 248.754L274.585 251.995V249.366L256.127 246.125V248.754Z" fill="#4C93F4"/>
<path fill-rule="evenodd" clip-rule="evenodd" d="M195.015 246.125C193.819 246.125 192.852 247.454 192.852 249.078C192.852 250.703 193.819 252.032 195.015 252.032H256.201V246.125H195.015Z" fill="#223762"/>
<path fill-rule="evenodd" clip-rule="evenodd" d="M49.7118 397.527H40.4901L76.5575 262.907H85.7866L49.7118 397.527Z" fill="url(#paint30_linear)"/>
<g filter="url(#filter6_i)">
<path fill-rule="evenodd" clip-rule="evenodd" d="M63.046 292.382C65.9993 313.387 62.2043 332.99 53.9276 346.398C42.2768 335.773 33.2544 317.979 30.3011 296.974C27.3478 275.969 31.1428 256.366 39.4195 242.958C51.0629 253.568 60.1001 271.354 63.046 292.382Z" fill="url(#paint31_linear)"/>
</g>
<path d="M36.5104 289.007C39.9002 298.539 42.7038 308.268 44.9053 318.142C48.8184 335.33 47.8586 355.797 47.8586 355.797" stroke="#112244" stroke-width="0.73833" stroke-linecap="round" stroke-linejoin="round"/>
<path d="M58.0401 283.404C58.0401 283.404 55.6923 303.124 52.798 318.327C49.9037 333.529 47.9398 353.611 47.9398 353.611" stroke="#112244" stroke-width="0.73833" stroke-linecap="round" stroke-linejoin="round"/>
<path d="M62.7581 316.518C62.7581 316.518 58.0549 329.365 54.6364 337.686C51.218 346.006 47.9915 354.571 47.9915 354.571" stroke="#112244" stroke-width="0.73833" stroke-linecap="round" stroke-linejoin="round"/>
<g filter="url(#filter7_i)">
<path fill-rule="evenodd" clip-rule="evenodd" d="M44.2999 207.473C46.2343 221.613 43.6354 234.792 38.0314 243.799C30.2125 236.623 24.1804 224.603 22.2459 210.486C20.3115 196.369 22.9104 183.168 28.5144 174.16C36.2964 181.344 42.3359 193.334 44.2999 207.473Z" fill="url(#paint32_linear)"/>
</g>
<g filter="url(#filter8_i)">
<path fill-rule="evenodd" clip-rule="evenodd" d="M59.6497 240.078C58.9114 223.621 57.8113 193.925 57.1837 176.582C68.5983 190.714 75.9225 212.369 75.9225 236.682C75.9225 260.715 68.7607 282.141 57.575 296.28C58.8228 279.712 60.3216 255.059 59.6497 240.078Z" fill="url(#paint33_linear)"/>
</g>
<g filter="url(#filter9_i)">
<path fill-rule="evenodd" clip-rule="evenodd" d="M37.4777 236.711C37.4777 212.051 45.0012 190.108 56.6742 175.991C56.8367 176.191 56.9991 176.405 57.1615 176.611C57.7891 193.925 58.8892 223.621 59.6276 240.108C60.2994 255.089 58.8006 279.741 57.5529 296.339C57.2575 296.708 56.977 297.077 56.6742 297.461C45.0382 283.315 37.4777 261.372 37.4777 236.711Z" fill="url(#paint34_linear)"/>
</g>
<g filter="url(#filter10_i)">
<path fill-rule="evenodd" clip-rule="evenodd" d="M35.7426 263.195C42.1144 277.224 43.495 291.71 40.4679 302.777C30.1313 297.749 20.1933 287.191 13.8216 273.126C7.44976 259.061 6.06909 244.612 9.09624 233.544C19.4107 238.572 29.3708 249.137 35.7426 263.195Z" fill="url(#paint35_linear)"/>
</g>
<path fill-rule="evenodd" clip-rule="evenodd" d="M26.6611 397.483H68.9895L75.2727 342.618H20.3779L26.6611 397.483Z" fill="url(#paint36_linear)"/>
<path fill-rule="evenodd" clip-rule="evenodd" d="M75.2728 342.618L68.9896 397.483H52.798L57.4864 342.618H75.2728Z" fill="url(#paint37_linear)"/>
<rect x="77.4213" y="354.571" width="59.1846" height="13.5188" transform="rotate(-180 77.4213 354.571)" fill="url(#paint38_linear)"/>
<rect x="374.013" y="143.671" width="2.98285" height="58.0327" rx="0.989362" transform="rotate(79.76 374.013 143.671)" fill="#223762"/>
<path fill-rule="evenodd" clip-rule="evenodd" d="M55.8621 247.853C57.065 247.853 58.0402 246.111 58.0402 243.962C58.0402 241.813 57.065 240.071 55.8621 240.071C54.6592 240.071 53.684 241.813 53.684 243.962C53.684 246.111 54.6592 247.853 55.8621 247.853Z" fill="#31AA5C"/>
<path fill-rule="evenodd" clip-rule="evenodd" d="M53.5742 251.01C54.4248 250.16 53.8825 248.238 52.363 246.719C50.8434 245.199 48.9221 244.657 48.0715 245.508C47.2209 246.358 47.7632 248.28 49.2827 249.799C50.8022 251.319 52.7236 251.861 53.5742 251.01Z" fill="#31AA5C"/>
<path opacity="0.48" fill-rule="evenodd" clip-rule="evenodd" d="M308.127 183.821C310.66 179.846 309.491 174.569 305.516 172.036C301.541 169.502 296.265 170.671 293.732 174.646C291.198 178.622 292.367 183.898 296.342 186.431C300.317 188.965 305.593 187.796 308.127 183.821Z" fill="#EF8C48"/>
<path fill-rule="evenodd" clip-rule="evenodd" d="M55.3059 272.679C56.4736 271.511 55.7303 268.875 53.6457 266.79C51.561 264.705 48.9244 263.962 47.7566 265.13C46.5889 266.297 47.3322 268.934 49.4168 271.019C51.5015 273.103 54.1381 273.847 55.3059 272.679Z" fill="#31AA5C"/>
<path fill-rule="evenodd" clip-rule="evenodd" d="M55.0048 284.398C56.5019 283.701 56.7066 280.969 55.4621 278.296C54.2175 275.624 51.995 274.022 50.4979 274.72C49.0008 275.417 48.796 278.149 50.0406 280.821C51.2851 283.494 53.5077 285.095 55.0048 284.398Z" fill="#31AA5C"/>
<rect x="372.939" y="137.757" width="2.98285" height="58.0327" rx="0.989362" transform="rotate(79.76 372.939 137.757)" fill="#223762"/>
<rect x="347.438" y="255.825" width="2.98285" height="116.9" rx="0.989362" transform="rotate(-169.34 347.438 255.825)" fill="#223762"/>
<rect x="317.866" y="143.217" width="10.0856" height="40.7411" rx="2.19284" transform="rotate(32.51 317.866 143.217)" fill="url(#paint39_linear)"/>
<path fill-rule="evenodd" clip-rule="evenodd" d="M306.054 182.499C307.857 179.669 307.025 175.913 304.195 174.109C301.365 172.306 297.609 173.138 295.805 175.968C294.001 178.798 294.833 182.554 297.663 184.358C300.494 186.162 304.25 185.329 306.054 182.499Z" fill="url(#paint40_linear)"/>
<path fill-rule="evenodd" clip-rule="evenodd" d="M312.963 160.316C304.561 154.963 291.685 160.132 284.205 171.871L314.639 191.23C322.119 179.528 321.366 165.677 312.963 160.316Z" fill="url(#paint41_linear)"/>
<path fill-rule="evenodd" clip-rule="evenodd" d="M284.198 171.871L292.379 177.084C297.85 168.505 304.975 162.317 311.642 159.593C303.254 155.51 291.301 160.73 284.198 171.871Z" fill="#223762"/>
<rect x="353.348" y="256.937" width="2.98285" height="116.9" rx="0.989362" transform="rotate(-169.34 353.348 256.937)" fill="#223762"/>
<path fill-rule="evenodd" clip-rule="evenodd" d="M368.154 150.223C372.174 150.223 375.433 146.964 375.433 142.944C375.433 138.923 372.174 135.664 368.154 135.664C364.133 135.664 360.874 138.923 360.874 142.944C360.874 146.964 364.133 150.223 368.154 150.223Z" fill="#223762"/>
<path fill-rule="evenodd" clip-rule="evenodd" d="M369.512 150.223C373.533 150.223 376.792 146.964 376.792 142.944C376.792 138.923 373.533 135.664 369.512 135.664C365.491 135.664 362.232 138.923 362.232 142.944C362.232 146.964 365.491 150.223 369.512 150.223Z" fill="#4C93F4"/>
<path fill-rule="evenodd" clip-rule="evenodd" d="M369.512 146.591C371.526 146.591 373.159 144.958 373.159 142.943C373.159 140.929 371.526 139.296 369.512 139.296C367.498 139.296 365.865 140.929 365.865 142.943C365.865 144.958 367.498 146.591 369.512 146.591Z" fill="#223762"/>
<rect x="392.238" y="262.907" width="351.755" height="10.8535" transform="rotate(-180 392.238 262.907)" fill="url(#paint42_linear)"/>
<rect x="392.238" y="262.907" width="64.722" height="10.8535" transform="rotate(-180 392.238 262.907)" fill="#3769A5"/>
<rect x="392.238" y="262.907" width="351.755" height="3.52922" transform="rotate(-180 392.238 262.907)" fill="#83A4D6"/>
<rect x="392.238" y="262.907" width="64.4193" height="3.52922" transform="rotate(-180 392.238 262.907)" fill="#223762"/>
<path fill-rule="evenodd" clip-rule="evenodd" d="M337.129 397.527H346.358L310.283 262.907H301.054L337.129 397.527Z" fill="url(#paint43_linear)"/>
<path fill-rule="evenodd" clip-rule="evenodd" d="M264.706 397.527H255.477L291.552 262.907H300.781L264.706 397.527Z" fill="url(#paint44_linear)"/>
<path fill-rule="evenodd" clip-rule="evenodd" d="M213.045 252.047H161.628V249.374H211.266C212.244 249.374 213.038 250.167 213.038 251.146V252.039L213.045 252.047Z" fill="#3769A5"/>
<path fill-rule="evenodd" clip-rule="evenodd" d="M125.516 232.2H245.48C246.574 232.219 247.623 231.767 248.361 230.959C249.099 230.151 249.453 229.065 249.334 227.977L242.593 150.962C242.351 148.595 240.379 146.782 238.001 146.739H118.052C116.958 146.719 115.908 147.171 115.171 147.98C114.433 148.788 114.079 149.874 114.198 150.962L120.938 227.977C121.18 230.338 123.143 232.149 125.516 232.2Z" fill="#223762"/>
<g filter="url(#filter11_i)">
<path fill-rule="evenodd" clip-rule="evenodd" d="M122.223 232.2H242.172C243.266 232.219 244.316 231.767 245.053 230.959C245.791 230.151 246.145 229.065 246.026 227.977L239.285 150.962C239.043 148.595 237.072 146.782 234.693 146.739H114.751C113.657 146.719 112.608 147.171 111.87 147.98C111.133 148.788 110.778 149.874 110.897 150.962L117.638 227.977C117.88 230.341 119.847 232.153 122.223 232.2Z" fill="url(#paint45_linear)"/>
<path fill-rule="evenodd" clip-rule="evenodd" d="M122.223 232.2H242.172C243.266 232.219 244.316 231.767 245.053 230.959C245.791 230.151 246.145 229.065 246.026 227.977L239.285 150.962C239.043 148.595 237.072 146.782 234.693 146.739H114.751C113.657 146.719 112.608 147.171 111.87 147.98C111.133 148.788 110.778 149.874 110.897 150.962L117.638 227.977C117.88 230.341 119.847 232.153 122.223 232.2Z" fill="url(#paint46_linear)" fill-opacity="0.23"/>
</g>
<path fill-rule="evenodd" clip-rule="evenodd" d="M125.848 252.047C125.478 252.048 125.138 251.844 124.965 251.517C124.791 251.19 124.813 250.794 125.021 250.489C127.855 246.527 132.426 244.177 137.296 244.177C142.167 244.177 146.738 246.527 149.571 250.489C149.779 250.794 149.801 251.19 149.628 251.517C149.454 251.844 149.114 252.048 148.744 252.047H125.848Z" fill="#4C93F4"/>
<path fill-rule="evenodd" clip-rule="evenodd" d="M139.094 249.713C138.159 247.723 136.912 245.893 135.402 244.294C136.024 244.216 136.651 244.177 137.278 244.176C142.15 244.171 146.725 246.523 149.556 250.489C149.764 250.794 149.786 251.19 149.613 251.517C149.439 251.844 149.099 252.048 148.729 252.047H138.245C139.072 252.047 139.544 250.688 139.094 249.713Z" fill="#223762"/>
<g filter="url(#filter12_i)">
<path fill-rule="evenodd" clip-rule="evenodd" d="M88.5627 291.023C81.807 308.064 70.5991 321.176 58.6455 327.718C75.1915 309.023 91.8704 243.807 91.8704 243.807C96.1232 256.764 95.3184 273.982 88.5627 291.023Z" fill="url(#paint47_linear)"/>
</g>
<path fill-rule="evenodd" clip-rule="evenodd" d="M62.0197 280.494C68.7754 263.454 79.9833 250.356 91.9369 243.807C91.9369 243.807 75.2284 309.023 58.712 327.718C54.4297 314.76 55.2345 297.55 62.0197 280.494Z" fill="url(#paint48_linear)"/>
<g filter="url(#filter13_i)">
<path fill-rule="evenodd" clip-rule="evenodd" d="M62.0197 280.494C68.7754 263.454 79.9833 250.356 91.9369 243.807C91.9369 243.807 75.2284 309.023 58.712 327.718C54.4297 314.76 55.2345 297.55 62.0197 280.494Z" fill="url(#paint49_linear)"/>
</g>
<path fill-rule="evenodd" clip-rule="evenodd" d="M75.1287 293.572C75.7684 292.045 75.5918 290.516 74.7343 290.157C73.8768 289.797 72.6631 290.744 72.0234 292.271C71.3837 293.798 71.5603 295.327 72.4178 295.686C73.2753 296.046 74.489 295.099 75.1287 293.572Z" fill="#31AA5C"/>
<path fill-rule="evenodd" clip-rule="evenodd" d="M64.2962 295.316C64.9359 293.789 64.7593 292.26 63.9018 291.901C63.0443 291.542 61.8306 292.488 61.1909 294.015C60.5512 295.542 60.7278 297.071 61.5853 297.431C62.4428 297.79 63.6566 296.843 64.2962 295.316Z" fill="#31AA5C"/>
<path fill-rule="evenodd" clip-rule="evenodd" d="M69.8501 297.252C70.7104 296.899 70.8993 295.372 70.2719 293.84C69.6445 292.308 68.4384 291.351 67.578 291.704C66.7177 292.056 66.5288 293.584 67.1562 295.116C67.7836 296.648 68.9897 297.604 69.8501 297.252Z" fill="#31AA5C"/>
<path fill-rule="evenodd" clip-rule="evenodd" d="M68.9673 303.047C69.8276 302.695 70.0165 301.167 69.3891 299.635C68.7617 298.103 67.5556 297.147 66.6952 297.499C65.8349 297.851 65.646 299.379 66.2734 300.911C66.9008 302.443 68.1069 303.399 68.9673 303.047Z" fill="#31AA5C"/>
<path fill-rule="evenodd" clip-rule="evenodd" d="M64.6231 313.186C65.8042 312.702 66.0639 310.606 65.2032 308.504C64.3424 306.402 62.6872 305.091 61.5061 305.574C60.3249 306.058 60.0652 308.154 60.926 310.256C61.7867 312.358 63.442 313.669 64.6231 313.186Z" fill="#31AA5C"/>
<path fill-rule="evenodd" clip-rule="evenodd" d="M60.9144 321.435C62.1898 321.385 63.1517 319.505 63.0629 317.236C62.9741 314.966 61.8683 313.167 60.593 313.217C59.3176 313.266 58.3557 315.147 58.4445 317.416C58.5333 319.686 59.6391 321.485 60.9144 321.435Z" fill="#31AA5C"/>
<path fill-rule="evenodd" clip-rule="evenodd" d="M0 405.531H421.144L392.238 397.527H26.6611L0 405.531Z" fill="url(#paint50_linear)"/>
<path fill-rule="evenodd" clip-rule="evenodd" d="M174.969 252.047H145.2L167.726 184.615H188.577L174.969 252.047Z" fill="#3769A5"/>
<path fill-rule="evenodd" clip-rule="evenodd" d="M172.629 252.047H142.859L165.386 184.615H186.236L172.629 252.047Z" fill="#223762"/>
<path fill-rule="evenodd" clip-rule="evenodd" d="M176.69 166.821C176.495 166.132 176.4 165.418 176.409 164.702C175.662 164.596 174.899 164.682 174.194 164.953C171.433 166.031 169.986 169.597 170.96 172.92C171.935 176.242 174.962 178.088 177.731 176.973C179.902 176.124 181.245 173.732 181.245 171.133C179.01 170.719 177.225 169.031 176.69 166.821Z" fill="#D6E3FA"/>
<path d="M261.841 125.453C261.841 125.453 260.173 134.911 260.476 137.266C260.778 139.621 266.877 137.901 266.877 137.901" stroke="#775942" stroke-width="0.73833" stroke-linecap="round" stroke-linejoin="round"/>
<path fill-rule="evenodd" clip-rule="evenodd" d="M286.568 99.7585C279.923 97.1818 259.833 103.155 256.983 100.364C256.097 99.5001 255.411 97.4697 254.886 95.0775C254.294 96.1185 253.873 97.2477 253.639 98.4222C252.538 104.668 254.377 106.182 257.507 107.098C260.638 108.013 274.784 106.359 279.702 108.08C284.619 109.8 286.996 112.65 287.713 116.939C288.429 121.229 286.45 130.746 286.45 130.746C286.45 130.746 293.22 102.335 286.568 99.7585Z" fill="url(#paint51_linear)"/>
<path fill-rule="evenodd" clip-rule="evenodd" d="M256.223 252.047C257.417 252.047 258.386 250.721 258.386 249.086C258.386 247.451 257.417 246.125 256.223 246.125C255.028 246.125 254.059 247.451 254.059 249.086C254.059 250.721 255.028 252.047 256.223 252.047Z" fill="#4C93F4"/>
<path opacity="0.45" fill-rule="evenodd" clip-rule="evenodd" d="M109.834 89.5105H95.4513V126.375H120.267V100.216L109.834 89.5105Z" fill="url(#paint52_linear)"/>
<path fill-rule="evenodd" clip-rule="evenodd" d="M100.915 94.9373H86.5249V131.802H111.348V105.643L100.915 94.9373Z" fill="#0D3261"/>
<path fill-rule="evenodd" clip-rule="evenodd" d="M143.974 84.7041C147.33 84.7041 150.051 81.7687 150.051 78.1477C150.051 74.5267 147.33 71.5913 143.974 71.5913C140.618 71.5913 137.898 74.5267 137.898 78.1477C137.898 81.7687 140.618 84.7041 143.974 84.7041Z" fill="#FF9F5B"/>
<path fill-rule="evenodd" clip-rule="evenodd" d="M143.088 84.7041C146.444 84.7041 149.165 81.7687 149.165 78.1477C149.165 74.5267 146.444 71.5913 143.088 71.5913C139.732 71.5913 137.012 74.5267 137.012 78.1477C137.012 81.7687 139.732 84.7041 143.088 84.7041Z" fill="#FFD46A"/>
<rect opacity="0.45" x="143.583" y="78.1034" width="34.8787" height="27.141" fill="url(#paint53_linear)"/>
<rect x="142.542" y="78.1034" width="34.8787" height="27.141" fill="#0D3261"/>
<path opacity="0.45" fill-rule="evenodd" clip-rule="evenodd" d="M223.714 100.416H201.564C199.892 100.416 198.537 101.771 198.537 103.443V117.072C198.537 117.875 198.856 118.645 199.424 119.213C199.991 119.781 200.761 120.1 201.564 120.1H206.393L210.948 126.331H212.639L218.871 120.1H223.714C225.386 120.1 226.741 118.744 226.741 117.072V103.435C226.737 101.766 225.383 100.416 223.714 100.416Z" fill="url(#paint54_linear)"/>
<path fill-rule="evenodd" clip-rule="evenodd" d="M222.008 100.416H199.859C198.187 100.416 196.831 101.771 196.831 103.443V117.072C196.831 117.875 197.15 118.645 197.718 119.213C198.286 119.781 199.056 120.1 199.859 120.1H204.687L210.919 126.331L217.15 120.1H221.979C222.782 120.1 223.552 119.781 224.119 119.213C224.687 118.645 225.006 117.875 225.006 117.072V103.435C225.002 101.778 223.666 100.432 222.008 100.416Z" fill="#0D3261"/>
<path d="M98.0281 133.951C98.0281 133.951 99.6598 163.262 93.1404 170.963C86.6209 178.664 77.3992 164.887 81.5633 158.205C85.7275 151.523 98.5449 158.943 100.022 167.648C101.498 176.353 100.206 185.368 102.916 194.774C105.626 204.181 112.869 203.28 112.869 203.28" stroke="#112244" stroke-width="0.369165" stroke-linecap="round" stroke-linejoin="round" stroke-dasharray="2.21"/>
<path d="M159.981 107.939C159.981 107.939 162.255 107.157 156.962 115.95C151.668 124.744 135.653 123.4 133.077 129.631C130.5 135.863 150.309 135.7 153.706 138.491C157.102 141.282 155.182 144.398 155.182 144.398" stroke="#112244" stroke-width="0.369165" stroke-linecap="round" stroke-linejoin="round" stroke-dasharray="2.21"/>
<path d="M211.657 128C211.657 128 192.859 138.447 181.769 134.785C170.68 131.123 179.946 123.791 186.236 123.791C192.527 123.791 196.189 144.383 196.189 144.383" stroke="#112244" stroke-width="0.369165" stroke-linecap="round" stroke-linejoin="round" stroke-dasharray="2.21"/>
<path fill-rule="evenodd" clip-rule="evenodd" d="M147.267 125.371C148.69 125.371 149.844 124.128 149.844 122.595C149.844 121.062 148.69 119.819 147.267 119.819C145.844 119.819 144.691 121.062 144.691 122.595C144.691 124.128 145.844 125.371 147.267 125.371Z" fill="#FFD46A"/>
<path fill-rule="evenodd" clip-rule="evenodd" d="M98.0207 151.501C99.4439 151.501 100.598 150.258 100.598 148.725C100.598 147.192 99.4439 145.949 98.0207 145.949C96.5976 145.949 95.444 147.192 95.444 148.725C95.444 150.258 96.5976 151.501 98.0207 151.501Z" fill="#FFD46A"/>
<path fill-rule="evenodd" clip-rule="evenodd" d="M185.21 138.063C186.633 138.063 187.787 136.82 187.787 135.287C187.787 133.754 186.633 132.511 185.21 132.511C183.787 132.511 182.633 133.754 182.633 135.287C182.633 136.82 183.787 138.063 185.21 138.063Z" fill="#FFD46A"/>
<path d="M290.467 124.899C290.467 124.899 292.261 123.688 292.859 125.312C293.457 126.937 293.398 128.487 291.345 129.484C290.663 129.776 289.87 129.517 289.492 128.878" stroke="#775942" stroke-width="0.73833" stroke-linecap="round" stroke-linejoin="round"/>
<defs>
<filter id="filter0_i" x="157.737" y="174.167" width="103.492" height="82.6055" filterUnits="userSpaceOnUse" color-interpolation-filters="sRGB">
<feFlood flood-opacity="0" result="BackgroundImageFix"/>
<feBlend mode="normal" in="SourceGraphic" in2="BackgroundImageFix" result="shape"/>
<feColorMatrix in="SourceAlpha" type="matrix" values="0 0 0 0 0 0 0 0 0 0 0 0 0 0 0 0 0 0 127 0" result="hardAlpha"/>
<feOffset dx="5.45689" dy="2.04634"/>
<feGaussianBlur stdDeviation="7.84428"/>
<feComposite in2="hardAlpha" operator="arithmetic" k2="-1" k3="1"/>
<feColorMatrix type="matrix" values="0 0 0 0 0.729412 0 0 0 0 0.8 0 0 0 0 0.933333 0 0 0 1 0"/>
<feBlend mode="normal" in2="shape" result="effect1_innerShadow"/>
</filter>
<filter id="filter1_i" x="222.88" y="161.018" width="93.4599" height="124.469" filterUnits="userSpaceOnUse" color-interpolation-filters="sRGB">
<feFlood flood-opacity="0" result="BackgroundImageFix"/>
<feBlend mode="normal" in="SourceGraphic" in2="BackgroundImageFix" result="shape"/>
<feColorMatrix in="SourceAlpha" type="matrix" values="0 0 0 0 0 0 0 0 0 0 0 0 0 0 0 0 0 0 127 0" result="hardAlpha"/>
<feOffset dx="5.45689" dy="2.04634"/>
<feGaussianBlur stdDeviation="7.84428"/>
<feComposite in2="hardAlpha" operator="arithmetic" k2="-1" k3="1"/>
<feColorMatrix type="matrix" values="0 0 0 0 0.729412 0 0 0 0 0.8 0 0 0 0 0.933333 0 0 0 1 0"/>
<feBlend mode="normal" in2="shape" result="effect1_innerShadow"/>
</filter>
<filter id="filter2_i" x="223.057" y="161.387" width="93.4582" height="123.782" filterUnits="userSpaceOnUse" color-interpolation-filters="sRGB">
<feFlood flood-opacity="0" result="BackgroundImageFix"/>
<feBlend mode="normal" in="SourceGraphic" in2="BackgroundImageFix" result="shape"/>
<feColorMatrix in="SourceAlpha" type="matrix" values="0 0 0 0 0 0 0 0 0 0 0 0 0 0 0 0 0 0 127 0" result="hardAlpha"/>
<feOffset dx="5.45689" dy="2.04634"/>
<feGaussianBlur stdDeviation="7.84428"/>
<feComposite in2="hardAlpha" operator="arithmetic" k2="-1" k3="1"/>
<feColorMatrix type="matrix" values="0 0 0 0 0.729412 0 0 0 0 0.8 0 0 0 0 0.933333 0 0 0 1 0"/>
<feBlend mode="normal" in2="shape" result="effect1_innerShadow"/>
</filter>
<filter id="filter3_i" x="222.872" y="192.183" width="93.776" height="93.267" filterUnits="userSpaceOnUse" color-interpolation-filters="sRGB">
<feFlood flood-opacity="0" result="BackgroundImageFix"/>
<feBlend mode="normal" in="SourceGraphic" in2="BackgroundImageFix" result="shape"/>
<feColorMatrix in="SourceAlpha" type="matrix" values="0 0 0 0 0 0 0 0 0 0 0 0 0 0 0 0 0 0 127 0" result="hardAlpha"/>
<feOffset dx="5.45689" dy="2.04634"/>
<feGaussianBlur stdDeviation="7.84428"/>
<feComposite in2="hardAlpha" operator="arithmetic" k2="-1" k3="1"/>
<feColorMatrix type="matrix" values="0 0 0 0 0.729412 0 0 0 0 0.8 0 0 0 0 0.933333 0 0 0 1 0"/>
<feBlend mode="normal" in2="shape" result="effect1_innerShadow"/>
</filter>
<filter id="filter4_i" x="272.729" y="172.565" width="64.0502" height="79.6744" filterUnits="userSpaceOnUse" color-interpolation-filters="sRGB">
<feFlood flood-opacity="0" result="BackgroundImageFix"/>
<feBlend mode="normal" in="SourceGraphic" in2="BackgroundImageFix" result="shape"/>
<feColorMatrix in="SourceAlpha" type="matrix" values="0 0 0 0 0 0 0 0 0 0 0 0 0 0 0 0 0 0 127 0" result="hardAlpha"/>
<feOffset dx="5.45689" dy="2.04634"/>
<feGaussianBlur stdDeviation="7.84428"/>
<feComposite in2="hardAlpha" operator="arithmetic" k2="-1" k3="1"/>
<feColorMatrix type="matrix" values="0 0 0 0 0.729412 0 0 0 0 0.8 0 0 0 0 0.933333 0 0 0 1 0"/>
<feBlend mode="normal" in2="shape" result="effect1_innerShadow"/>
</filter>
<filter id="filter5_i" x="291.011" y="199.5" width="55.2147" height="53.9112" filterUnits="userSpaceOnUse" color-interpolation-filters="sRGB">
<feFlood flood-opacity="0" result="BackgroundImageFix"/>
<feBlend mode="normal" in="SourceGraphic" in2="BackgroundImageFix" result="shape"/>
<feColorMatrix in="SourceAlpha" type="matrix" values="0 0 0 0 0 0 0 0 0 0 0 0 0 0 0 0 0 0 127 0" result="hardAlpha"/>
<feOffset dx="-4.09267" dy="1.36422"/>
<feGaussianBlur stdDeviation="4.09267"/>
<feComposite in2="hardAlpha" operator="arithmetic" k2="-1" k3="1"/>
<feColorMatrix type="matrix" values="0 0 0 0 1 0 0 0 0 1 0 0 0 0 1 0 0 0 0.5 0"/>
<feBlend mode="normal" in2="shape" result="effect1_innerShadow"/>
</filter>
<filter id="filter6_i" x="29.3065" y="236.137" width="34.734" height="110.261" filterUnits="userSpaceOnUse" color-interpolation-filters="sRGB">
<feFlood flood-opacity="0" result="BackgroundImageFix"/>
<feBlend mode="normal" in="SourceGraphic" in2="BackgroundImageFix" result="shape"/>
<feColorMatrix in="SourceAlpha" type="matrix" values="0 0 0 0 0 0 0 0 0 0 0 0 0 0 0 0 0 0 127 0" result="hardAlpha"/>
<feOffset dy="-6.82112"/>
<feGaussianBlur stdDeviation="7.50323"/>
<feComposite in2="hardAlpha" operator="arithmetic" k2="-1" k3="1"/>
<feColorMatrix type="matrix" values="0 0 0 0 0.221483 0 0 0 0 0.77854 0 0 0 0 0.610041 0 0 0 1 0"/>
<feBlend mode="normal" in2="shape" result="effect1_innerShadow"/>
</filter>
<filter id="filter7_i" x="21.6111" y="167.339" width="23.3235" height="76.4604" filterUnits="userSpaceOnUse" color-interpolation-filters="sRGB">
<feFlood flood-opacity="0" result="BackgroundImageFix"/>
<feBlend mode="normal" in="SourceGraphic" in2="BackgroundImageFix" result="shape"/>
<feColorMatrix in="SourceAlpha" type="matrix" values="0 0 0 0 0 0 0 0 0 0 0 0 0 0 0 0 0 0 127 0" result="hardAlpha"/>
<feOffset dy="-6.82112"/>
<feGaussianBlur stdDeviation="7.50323"/>
<feComposite in2="hardAlpha" operator="arithmetic" k2="-1" k3="1"/>
<feColorMatrix type="matrix" values="0 0 0 0 0.221483 0 0 0 0 0.77854 0 0 0 0 0.610041 0 0 0 1 0"/>
<feBlend mode="normal" in2="shape" result="effect1_innerShadow"/>
</filter>
<filter id="filter8_i" x="57.1837" y="169.761" width="18.7388" height="126.519" filterUnits="userSpaceOnUse" color-interpolation-filters="sRGB">
<feFlood flood-opacity="0" result="BackgroundImageFix"/>
<feBlend mode="normal" in="SourceGraphic" in2="BackgroundImageFix" result="shape"/>
<feColorMatrix in="SourceAlpha" type="matrix" values="0 0 0 0 0 0 0 0 0 0 0 0 0 0 0 0 0 0 127 0" result="hardAlpha"/>
<feOffset dy="-6.82112"/>
<feGaussianBlur stdDeviation="7.50323"/>
<feComposite in2="hardAlpha" operator="arithmetic" k2="-1" k3="1"/>
<feColorMatrix type="matrix" values="0 0 0 0 0.221483 0 0 0 0 0.77854 0 0 0 0 0.610041 0 0 0 1 0"/>
<feBlend mode="normal" in2="shape" result="effect1_innerShadow"/>
</filter>
<filter id="filter9_i" x="37.4777" y="169.17" width="22.3163" height="128.291" filterUnits="userSpaceOnUse" color-interpolation-filters="sRGB">
<feFlood flood-opacity="0" result="BackgroundImageFix"/>
<feBlend mode="normal" in="SourceGraphic" in2="BackgroundImageFix" result="shape"/>
<feColorMatrix in="SourceAlpha" type="matrix" values="0 0 0 0 0 0 0 0 0 0 0 0 0 0 0 0 0 0 127 0" result="hardAlpha"/>
<feOffset dy="-6.82112"/>
<feGaussianBlur stdDeviation="7.50323"/>
<feComposite in2="hardAlpha" operator="arithmetic" k2="-1" k3="1"/>
<feColorMatrix type="matrix" values="0 0 0 0 0.221483 0 0 0 0 0.77854 0 0 0 0 0.610041 0 0 0 1 0"/>
<feBlend mode="normal" in2="shape" result="effect1_innerShadow"/>
</filter>
<filter id="filter10_i" x="7.55988" y="226.723" width="34.4444" height="76.0543" filterUnits="userSpaceOnUse" color-interpolation-filters="sRGB">
<feFlood flood-opacity="0" result="BackgroundImageFix"/>
<feBlend mode="normal" in="SourceGraphic" in2="BackgroundImageFix" result="shape"/>
<feColorMatrix in="SourceAlpha" type="matrix" values="0 0 0 0 0 0 0 0 0 0 0 0 0 0 0 0 0 0 127 0" result="hardAlpha"/>
<feOffset dy="-6.82112"/>
<feGaussianBlur stdDeviation="7.50323"/>
<feComposite in2="hardAlpha" operator="arithmetic" k2="-1" k3="1"/>
<feColorMatrix type="matrix" values="0 0 0 0 0.221483 0 0 0 0 0.77854 0 0 0 0 0.610041 0 0 0 1 0"/>
<feBlend mode="normal" in2="shape" result="effect1_innerShadow"/>
</filter>
<filter id="filter11_i" x="106.782" y="146.738" width="139.267" height="86.8271" filterUnits="userSpaceOnUse" color-interpolation-filters="sRGB">
<feFlood flood-opacity="0" result="BackgroundImageFix"/>
<feBlend mode="normal" in="SourceGraphic" in2="BackgroundImageFix" result="shape"/>
<feColorMatrix in="SourceAlpha" type="matrix" values="0 0 0 0 0 0 0 0 0 0 0 0 0 0 0 0 0 0 127 0" result="hardAlpha"/>
<feOffset dx="-4.09267" dy="1.36422"/>
<feGaussianBlur stdDeviation="4.09267"/>
<feComposite in2="hardAlpha" operator="arithmetic" k2="-1" k3="1"/>
<feColorMatrix type="matrix" values="0 0 0 0 1 0 0 0 0 1 0 0 0 0 1 0 0 0 0.5 0"/>
<feBlend mode="normal" in2="shape" result="effect1_innerShadow"/>
</filter>
<filter id="filter12_i" x="58.6455" y="236.986" width="35.844" height="90.7323" filterUnits="userSpaceOnUse" color-interpolation-filters="sRGB">
<feFlood flood-opacity="0" result="BackgroundImageFix"/>
<feBlend mode="normal" in="SourceGraphic" in2="BackgroundImageFix" result="shape"/>
<feColorMatrix in="SourceAlpha" type="matrix" values="0 0 0 0 0 0 0 0 0 0 0 0 0 0 0 0 0 0 127 0" result="hardAlpha"/>
<feOffset dy="-6.82112"/>
<feGaussianBlur stdDeviation="7.50323"/>
<feComposite in2="hardAlpha" operator="arithmetic" k2="-1" k3="1"/>
<feColorMatrix type="matrix" values="0 0 0 0 0.221483 0 0 0 0 0.77854 0 0 0 0 0.610041 0 0 0 1 0"/>
<feBlend mode="normal" in2="shape" result="effect1_innerShadow"/>
</filter>
<filter id="filter13_i" x="56.0715" y="236.986" width="35.8653" height="90.7323" filterUnits="userSpaceOnUse" color-interpolation-filters="sRGB">
<feFlood flood-opacity="0" result="BackgroundImageFix"/>
<feBlend mode="normal" in="SourceGraphic" in2="BackgroundImageFix" result="shape"/>
<feColorMatrix in="SourceAlpha" type="matrix" values="0 0 0 0 0 0 0 0 0 0 0 0 0 0 0 0 0 0 127 0" result="hardAlpha"/>
<feOffset dy="-6.82112"/>
<feGaussianBlur stdDeviation="7.50323"/>
<feComposite in2="hardAlpha" operator="arithmetic" k2="-1" k3="1"/>
<feColorMatrix type="matrix" values="0 0 0 0 0.221483 0 0 0 0 0.77854 0 0 0 0 0.610041 0 0 0 1 0"/>
<feBlend mode="normal" in2="shape" result="effect1_innerShadow"/>
</filter>
<linearGradient id="paint0_linear" x1="422.167" y1="196.994" x2="333.498" y2="222.71" gradientUnits="userSpaceOnUse">
<stop stop-color="#EAF1FC"/>
<stop offset="1" stop-color="#C0D4F4"/>
</linearGradient>
<linearGradient id="paint1_linear" x1="274.309" y1="-100.183" x2="-232.106" y2="153.777" gradientUnits="userSpaceOnUse">
<stop stop-color="#EAF1FC"/>
<stop offset="1" stop-color="#C0D4F4"/>
</linearGradient>
<linearGradient id="paint2_linear" x1="217.934" y1="398.295" x2="218.127" y2="403.314" gradientUnits="userSpaceOnUse">
<stop stop-color="#223762"/>
<stop offset="1" stop-color="#041B48"/>
</linearGradient>
<linearGradient id="paint3_linear" x1="260.747" y1="396.789" x2="260.555" y2="401.808" gradientUnits="userSpaceOnUse">
<stop stop-color="#223762"/>
<stop offset="1" stop-color="#041B48"/>
</linearGradient>
<linearGradient id="paint4_linear" x1="236.576" y1="497.577" x2="265.196" y2="497.279" gradientUnits="userSpaceOnUse">
<stop stop-color="#223762"/>
<stop offset="1" stop-color="#041B48"/>
</linearGradient>
<linearGradient id="paint5_linear" x1="255.238" y1="325.668" x2="264.832" y2="315.804" gradientUnits="userSpaceOnUse">
<stop stop-color="#223762"/>
<stop offset="1" stop-color="#041B48"/>
</linearGradient>
<linearGradient id="paint6_linear" x1="175.494" y1="358.558" x2="175.494" y2="236.771" gradientUnits="userSpaceOnUse">
<stop stop-color="#3769A5"/>
<stop offset="1" stop-color="#08448B"/>
</linearGradient>
<linearGradient id="paint7_linear" x1="-731.286" y1="358.558" x2="-731.286" y2="236.771" gradientUnits="userSpaceOnUse">
<stop stop-color="#3769A5"/>
<stop offset="1" stop-color="#08448B"/>
</linearGradient>
<linearGradient id="paint8_linear" x1="-1004.63" y1="296.561" x2="-1004.63" y2="259.371" gradientUnits="userSpaceOnUse">
<stop stop-color="#3769A5"/>
<stop offset="1" stop-color="#08448B"/>
</linearGradient>
<linearGradient id="paint9_linear" x1="-959.051" y1="296.561" x2="-959.051" y2="259.371" gradientUnits="userSpaceOnUse">
<stop stop-color="#3769A5"/>
<stop offset="1" stop-color="#08448B"/>
</linearGradient>
<linearGradient id="paint10_linear" x1="123.878" y1="351.684" x2="123.878" y2="261.549" gradientUnits="userSpaceOnUse">
<stop stop-color="#A7BDE5"/>
<stop offset="1" stop-color="#2F66CB"/>
</linearGradient>
<linearGradient id="paint11_linear" x1="230.956" y1="419.49" x2="230.169" y2="407.077" gradientUnits="userSpaceOnUse">
<stop stop-color="#223762"/>
<stop offset="1" stop-color="#041B48"/>
</linearGradient>
<linearGradient id="paint12_linear" x1="159.713" y1="419.492" x2="158.929" y2="407.08" gradientUnits="userSpaceOnUse">
<stop stop-color="#223762"/>
<stop offset="1" stop-color="#041B48"/>
</linearGradient>
<linearGradient id="paint13_linear" x1="196.516" y1="312.958" x2="196.126" y2="306.145" gradientUnits="userSpaceOnUse">
<stop stop-color="#223762"/>
<stop offset="1" stop-color="#041B48"/>
</linearGradient>
<linearGradient id="paint14_linear" x1="275.216" y1="308.402" x2="274.126" y2="301.342" gradientUnits="userSpaceOnUse">
<stop stop-color="#223762"/>
<stop offset="1" stop-color="#041B48"/>
</linearGradient>
<linearGradient id="paint15_linear" x1="151.425" y1="407.741" x2="212.494" y2="387.236" gradientUnits="userSpaceOnUse">
<stop stop-color="#3769A5"/>
<stop offset="1" stop-color="#08448B"/>
</linearGradient>
<linearGradient id="paint16_linear" x1="151.953" y1="410.31" x2="210.89" y2="394.715" gradientUnits="userSpaceOnUse">
<stop stop-color="#223762"/>
<stop offset="1" stop-color="#041B48"/>
</linearGradient>
<linearGradient id="paint17_linear" x1="294.312" y1="152.19" x2="251.944" y2="164.015" gradientUnits="userSpaceOnUse">
<stop stop-color="#EDF3FD"/>
<stop offset="1" stop-color="#D6E3FA"/>
</linearGradient>
<linearGradient id="paint18_linear" x1="294.487" y1="152.608" x2="252.155" y2="164.49" gradientUnits="userSpaceOnUse">
<stop stop-color="#EDF3FD"/>
<stop offset="1" stop-color="#D6E3FA"/>
</linearGradient>
<linearGradient id="paint19_linear" x1="294.561" y1="185.605" x2="254.403" y2="200.701" gradientUnits="userSpaceOnUse">
<stop stop-color="#EDF3FD"/>
<stop offset="1" stop-color="#D6E3FA"/>
</linearGradient>
<linearGradient id="paint20_linear" x1="212.212" y1="386.273" x2="273.843" y2="352.259" gradientUnits="userSpaceOnUse">
<stop stop-color="#4C93F4"/>
<stop offset="1" stop-color="#0B63DA"/>
</linearGradient>
<linearGradient id="paint21_linear" x1="301.389" y1="356.186" x2="299.024" y2="355.463" gradientUnits="userSpaceOnUse">
<stop stop-color="#3769A5"/>
<stop offset="1" stop-color="#08448B"/>
</linearGradient>
<linearGradient id="paint22_linear" x1="253.365" y1="240.047" x2="253.365" y2="251.221" gradientUnits="userSpaceOnUse">
<stop stop-color="#4376C9"/>
<stop offset="1" stop-color="#D6E3FA"/>
</linearGradient>
<linearGradient id="paint23_linear" x1="260.48" y1="313.612" x2="260.041" y2="306.599" gradientUnits="userSpaceOnUse">
<stop stop-color="#223762"/>
<stop offset="1" stop-color="#041B48"/>
</linearGradient>
<linearGradient id="paint24_linear" x1="243.15" y1="365.604" x2="253.128" y2="358.695" gradientUnits="userSpaceOnUse">
<stop stop-color="#3769A5"/>
<stop offset="1" stop-color="#08448B"/>
</linearGradient>
<linearGradient id="paint25_linear" x1="264.849" y1="103.503" x2="261.75" y2="106.529" gradientUnits="userSpaceOnUse">
<stop stop-color="#223762"/>
<stop offset="1" stop-color="#041B48"/>
</linearGradient>
<linearGradient id="paint26_linear" x1="254.866" y1="105.259" x2="254.866" y2="154.031" gradientUnits="userSpaceOnUse">
<stop stop-color="#4376C9"/>
<stop offset="1" stop-color="#D6E3FA"/>
</linearGradient>
<linearGradient id="paint27_linear" x1="260.023" y1="106.938" x2="271.352" y2="151.414" gradientUnits="userSpaceOnUse">
<stop stop-color="#223762"/>
<stop offset="1" stop-color="#041B48"/>
</linearGradient>
<linearGradient id="paint28_linear" x1="326.25" y1="196.272" x2="291.613" y2="219.465" gradientUnits="userSpaceOnUse">
<stop stop-color="#DBE9FF"/>
<stop offset="0.440948" stop-color="#A7BDE4"/>
<stop offset="1" stop-color="#5876AF"/>
</linearGradient>
<linearGradient id="paint29_linear" x1="326.65" y1="237.081" x2="324.289" y2="242.778" gradientUnits="userSpaceOnUse">
<stop stop-color="#869FCE" stop-opacity="0.01"/>
<stop offset="1" stop-color="#4975C1"/>
</linearGradient>
<linearGradient id="paint30_linear" x1="-690.318" y1="351.684" x2="-690.318" y2="261.549" gradientUnits="userSpaceOnUse">
<stop stop-color="#A7BDE5"/>
<stop offset="1" stop-color="#2F66CB"/>
</linearGradient>
<linearGradient id="paint31_linear" x1="24.7057" y1="271.121" x2="81.4169" y2="311.876" gradientUnits="userSpaceOnUse">
<stop stop-color="#B1FFBE"/>
<stop offset="0.444207" stop-color="#5CDB8E"/>
<stop offset="1" stop-color="#149654"/>
</linearGradient>
<linearGradient id="paint32_linear" x1="18.5217" y1="193.12" x2="56.6699" y2="220.465" gradientUnits="userSpaceOnUse">
<stop stop-color="#B1FFBE"/>
<stop offset="0.444207" stop-color="#5CDB8E"/>
<stop offset="1" stop-color="#149654"/>
</linearGradient>
<linearGradient id="paint33_linear" x1="54.7015" y1="209.171" x2="96.4156" y2="223.148" gradientUnits="userSpaceOnUse">
<stop stop-color="#B1FFBE"/>
<stop offset="0.444207" stop-color="#5CDB8E"/>
<stop offset="1" stop-color="#149654"/>
</linearGradient>
<linearGradient id="paint34_linear" x1="34.5216" y1="209.063" x2="82.3776" y2="227.88" gradientUnits="userSpaceOnUse">
<stop stop-color="#B1FFBE"/>
<stop offset="0.444207" stop-color="#5CDB8E"/>
<stop offset="1" stop-color="#149654"/>
</linearGradient>
<linearGradient id="paint35_linear" x1="2.99736" y1="252.394" x2="42.9663" y2="294.952" gradientUnits="userSpaceOnUse">
<stop stop-color="#B1FFBE"/>
<stop offset="0.444207" stop-color="#5CDB8E"/>
<stop offset="1" stop-color="#149654"/>
</linearGradient>
<linearGradient id="paint36_linear" x1="22.8202" y1="332.377" x2="2.34878" y2="412.651" gradientUnits="userSpaceOnUse">
<stop stop-color="#86A8D9"/>
<stop offset="1" stop-color="#BCD0F2"/>
</linearGradient>
<linearGradient id="paint37_linear" x1="53.7979" y1="332.377" x2="15.4306" y2="393.973" gradientUnits="userSpaceOnUse">
<stop stop-color="#86A8D9"/>
<stop offset="1" stop-color="#BCD0F2"/>
</linearGradient>
<linearGradient id="paint38_linear" x1="127.065" y1="373.279" x2="128.225" y2="361.181" gradientUnits="userSpaceOnUse">
<stop stop-color="#ACC5E9"/>
<stop offset="0.627469" stop-color="#D3E3FB"/>
<stop offset="1" stop-color="#EAF2FF"/>
</linearGradient>
<linearGradient id="paint39_linear" x1="320.244" y1="196.156" x2="333.485" y2="188.212" gradientUnits="userSpaceOnUse">
<stop stop-color="#4C93F4"/>
<stop offset="1" stop-color="#0B63DA"/>
</linearGradient>
<linearGradient id="paint40_linear" x1="296.149" y1="188.694" x2="299.251" y2="184.612" gradientUnits="userSpaceOnUse">
<stop stop-color="#FFC063"/>
<stop offset="0.95" stop-color="#E44D0B"/>
</linearGradient>
<linearGradient id="paint41_linear" x1="304.827" y1="195.642" x2="319.332" y2="174.515" gradientUnits="userSpaceOnUse">
<stop stop-color="#4C93F4"/>
<stop offset="1" stop-color="#0B63DA"/>
</linearGradient>
<linearGradient id="paint42_linear" x1="1001.21" y1="267.512" x2="1000.74" y2="239.9" gradientUnits="userSpaceOnUse">
<stop stop-color="#A7BDE5"/>
<stop offset="1" stop-color="#2F66CB"/>
</linearGradient>
<linearGradient id="paint43_linear" x1="-950.114" y1="328.589" x2="-950.114" y2="233.862" gradientUnits="userSpaceOnUse">
<stop stop-color="#A7BDE5"/>
<stop offset="1" stop-color="#2F66CB"/>
</linearGradient>
<linearGradient id="paint44_linear" x1="-904.537" y1="328.589" x2="-904.537" y2="233.862" gradientUnits="userSpaceOnUse">
<stop stop-color="#A7BDE5"/>
<stop offset="1" stop-color="#2F66CB"/>
</linearGradient>
<linearGradient id="paint45_linear" x1="193.232" y1="141.488" x2="132.525" y2="207.574" gradientUnits="userSpaceOnUse">
<stop stop-color="#DBE9FF"/>
<stop offset="0.440948" stop-color="#A7BDE4"/>
<stop offset="1" stop-color="#5876AF"/>
</linearGradient>
<linearGradient id="paint46_linear" x1="194.289" y1="207.86" x2="191.69" y2="218.055" gradientUnits="userSpaceOnUse">
<stop stop-color="#869FCE" stop-opacity="0.01"/>
<stop offset="1" stop-color="#4975C1"/>
</linearGradient>
<linearGradient id="paint47_linear" x1="53.8976" y1="266.653" x2="102.241" y2="310.849" gradientUnits="userSpaceOnUse">
<stop stop-color="#B1FFBE"/>
<stop offset="0.444207" stop-color="#5CDB8E"/>
<stop offset="1" stop-color="#149654"/>
</linearGradient>
<linearGradient id="paint48_linear" x1="66.6266" y1="213.453" x2="16.7191" y2="248.329" gradientUnits="userSpaceOnUse">
<stop stop-color="#4C93F4"/>
<stop offset="1" stop-color="#0B63DA"/>
</linearGradient>
<linearGradient id="paint49_linear" x1="51.3208" y1="266.653" x2="99.667" y2="310.878" gradientUnits="userSpaceOnUse">
<stop stop-color="#B1FFBE"/>
<stop offset="0.444207" stop-color="#5CDB8E"/>
<stop offset="1" stop-color="#149654"/>
</linearGradient>
<linearGradient id="paint50_linear" x1="421.144" y1="397.527" x2="0" y2="397.527" gradientUnits="userSpaceOnUse">
<stop stop-color="#223762"/>
<stop offset="1" stop-color="#041B48"/>
</linearGradient>
<linearGradient id="paint51_linear" x1="297.003" y1="110.94" x2="280.388" y2="95.8667" gradientUnits="userSpaceOnUse">
<stop stop-color="#223762"/>
<stop offset="1" stop-color="#041B48"/>
</linearGradient>
<linearGradient id="paint52_linear" x1="119.063" y1="130.919" x2="135.452" y2="91.5554" gradientUnits="userSpaceOnUse">
<stop stop-color="#223762"/>
<stop offset="1" stop-color="#041B48"/>
</linearGradient>
<linearGradient id="paint53_linear" x1="176.77" y1="108.59" x2="183.849" y2="76.1291" gradientUnits="userSpaceOnUse">
<stop stop-color="#223762"/>
<stop offset="1" stop-color="#041B48"/>
</linearGradient>
<linearGradient id="paint54_linear" x1="225.373" y1="129.525" x2="233.214" y2="99.0756" gradientUnits="userSpaceOnUse">
<stop stop-color="#223762"/>
<stop offset="1" stop-color="#041B48"/>
</linearGradient>
</defs>
</svg>
